<svg id="svg" version="1.1" xmlns="http://www.w3.org/2000/svg" xmlns:xlink="http://www.w3.org/1999/xlink" width="400" height="400" viewBox="0, 0, 400,400"><g id="svgg"><path id="path0" d="M194.200 38.831 C 190.240 38.958,186.640 39.205,186.200 39.379 C 175.521 43.601,170.064 47.617,166.329 54.000 C 161.140 62.869,161.234 62.439,161.177 77.393 C 161.118 93.010,161.054 92.770,166.952 99.148 C 175.092 107.951,174.976 109.126,164.963 119.285 C 161.423 122.877,158.018 126.622,157.397 127.608 C 156.220 129.477,151.747 134.039,146.935 138.277 C 144.838 140.125,143.733 141.498,142.590 143.677 C 140.745 147.196,138.884 149.916,136.484 152.600 C 134.219 155.133,132.169 158.168,130.096 162.053 C 129.200 163.733,126.697 167.456,124.534 170.328 C 120.967 175.063,119.112 177.906,115.912 183.543 C 115.206 184.788,114.602 186.782,114.191 189.230 C 113.753 191.835,113.080 193.989,112.013 196.200 C 109.265 201.892,109.393 200.509,109.475 223.664 C 109.556 246.524,109.537 246.307,111.895 250.987 C 112.674 252.534,113.920 255.675,114.663 257.967 C 116.158 262.578,117.273 264.587,121.072 269.508 C 122.484 271.337,125.080 275.247,126.841 278.196 C 132.180 287.137,131.940 287.677,122.458 288.039 C 115.376 288.309,116.022 288.106,108.056 292.576 C 94.018 300.455,88.657 309.006,90.754 320.174 C 92.039 327.015,100.246 334.887,108.257 336.963 C 111.061 337.690,285.525 337.943,288.563 337.225 C 290.747 336.709,299.731 332.069,301.593 330.496 C 304.349 328.168,304.601 326.881,304.592 315.200 C 304.581 300.602,303.694 298.913,292.800 292.740 C 284.544 288.062,285.289 288.277,276.800 288.117 C 264.227 287.879,263.337 286.285,271.096 277.898 C 275.661 272.963,278.235 268.713,280.731 261.988 C 281.586 259.685,282.862 256.659,283.566 255.265 C 284.271 253.871,285.292 250.929,285.837 248.728 C 286.382 246.527,287.422 243.528,288.150 242.063 C 290.330 237.672,290.600 236.145,290.600 228.200 C 290.600 220.143,290.398 219.057,287.853 213.400 C 286.260 209.858,286.229 209.703,285.969 203.800 C 285.670 197.051,285.316 195.385,283.336 191.428 C 282.400 189.555,281.708 187.316,281.205 184.528 C 280.541 180.847,280.151 179.827,277.597 175.100 C 273.408 167.347,272.332 166.562,266.000 166.644 C 260.186 166.720,259.144 167.318,250.454 175.568 C 233.305 191.847,230.873 194.516,227.600 200.643 C 224.823 205.843,211.768 219.614,207.915 221.407 C 203.538 223.445,197.999 222.505,196.189 219.417 C 194.655 216.800,194.855 215.201,197.347 210.151 C 198.527 207.758,199.798 204.865,200.171 203.723 C 201.140 200.753,202.241 199.312,205.406 196.868 C 209.319 193.846,236.677 166.677,240.918 161.600 C 247.645 153.548,252.543 144.929,252.511 141.200 C 252.476 137.225,251.869 136.378,243.106 128.093 C 240.964 126.068,237.652 122.685,235.746 120.574 C 233.839 118.463,231.272 115.995,230.040 115.088 C 225.218 111.541,224.548 108.907,227.499 105.101 C 232.904 98.129,233.115 97.700,234.188 91.456 C 234.559 89.295,235.400 86.564,236.343 84.456 C 239.388 77.651,239.462 74.647,236.731 68.626 C 235.827 66.632,234.752 63.708,234.341 62.128 C 232.983 56.898,232.452 56.100,225.363 48.639 C 217.332 40.185,215.734 39.157,210.274 38.927 C 203.002 38.621,201.109 38.609,194.200 38.831 " stroke="none" fill="#333" fill-rule="evenodd"></path><path id="path1" d="M0.000 200.000 L 0.000 400.000 200.000 400.000 L 400.000 400.000 400.000 200.000 L 400.000 0.000 200.000 0.000 L 0.000 0.000 0.000 200.000 M215.600 23.362 C 231.406 27.317,244.892 40.555,250.586 57.704 C 255.379 72.136,255.701 81.366,251.911 95.600 C 248.664 107.790,249.516 111.851,257.027 120.000 C 283.598 148.830,301.090 179.771,303.414 202.055 C 303.743 205.215,304.185 208.790,304.395 210.000 C 307.647 228.731,306.362 244.099,300.015 262.400 C 296.636 272.145,297.006 273.310,305.919 280.982 C 320.287 293.350,325.244 307.550,321.244 324.889 C 317.564 340.845,301.799 354.144,283.907 356.388 C 279.480 356.943,118.897 356.943,113.600 356.388 C 106.113 355.603,101.236 353.647,93.600 348.368 C 69.774 331.894,68.503 300.114,90.936 281.735 C 100.301 274.062,101.263 271.756,98.420 263.791 C 90.670 242.077,88.868 227.335,92.215 213.000 C 92.729 210.800,93.522 206.291,93.978 202.979 C 96.653 183.556,110.103 158.328,132.247 131.200 C 151.313 107.844,150.395 110.115,146.414 96.125 C 143.639 86.373,143.468 85.291,143.447 77.400 C 143.384 52.770,160.261 29.764,182.767 23.801 C 188.561 22.266,210.070 21.979,215.600 23.362 " stroke="none" fill="none" fill-rule="evenodd"></path><path id="path2" d="M187.967 22.791 C 163.571 25.846,143.378 50.616,143.447 77.400 C 143.468 85.291,143.639 86.373,146.414 96.125 C 150.395 110.115,151.313 107.844,132.247 131.200 C 110.103 158.328,96.653 183.556,93.978 202.979 C 93.522 206.291,92.729 210.800,92.215 213.000 C 89.748 223.568,89.826 229.585,92.608 243.182 C 94.335 251.625,95.306 255.066,98.420 263.791 C 101.263 271.756,100.301 274.062,90.936 281.735 C 68.503 300.114,69.774 331.894,93.600 348.368 C 101.236 353.647,106.113 355.603,113.600 356.388 C 118.897 356.943,279.480 356.943,283.907 356.388 C 301.799 354.144,317.564 340.845,321.244 324.889 C 325.244 307.550,320.287 293.350,305.919 280.982 C 297.006 273.310,296.636 272.145,300.015 262.400 C 306.362 244.099,307.647 228.731,304.395 210.000 C 304.185 208.790,303.743 205.215,303.414 202.055 C 301.090 179.771,283.598 148.830,257.027 120.000 C 249.516 111.851,248.664 107.790,251.911 95.600 C 255.701 81.366,255.379 72.136,250.586 57.704 C 244.892 40.555,231.406 27.317,215.600 23.362 C 212.627 22.619,192.644 22.206,187.967 22.791 M210.274 38.927 C 215.734 39.157,217.332 40.185,225.363 48.639 C 232.452 56.100,232.983 56.898,234.341 62.128 C 234.752 63.708,235.827 66.632,236.731 68.626 C 239.462 74.647,239.388 77.651,236.343 84.456 C 235.400 86.564,234.559 89.295,234.188 91.456 C 233.115 97.700,232.904 98.129,227.499 105.101 C 224.548 108.907,225.218 111.541,230.040 115.088 C 231.272 115.995,233.839 118.463,235.746 120.574 C 237.652 122.685,240.964 126.068,243.106 128.093 C 251.869 136.378,252.476 137.225,252.511 141.200 C 252.543 144.929,247.645 153.548,240.918 161.600 C 236.677 166.677,209.319 193.846,205.406 196.868 C 202.241 199.312,201.140 200.753,200.171 203.723 C 199.798 204.865,198.527 207.758,197.347 210.151 C 194.855 215.201,194.655 216.800,196.189 219.417 C 197.999 222.505,203.538 223.445,207.915 221.407 C 211.768 219.614,224.823 205.843,227.600 200.643 C 230.873 194.516,233.305 191.847,250.454 175.568 C 259.144 167.318,260.186 166.720,266.000 166.644 C 272.332 166.562,273.408 167.347,277.597 175.100 C 280.151 179.827,280.541 180.847,281.205 184.528 C 281.708 187.316,282.400 189.555,283.336 191.428 C 285.316 195.385,285.670 197.051,285.969 203.800 C 286.229 209.703,286.260 209.858,287.853 213.400 C 291.768 222.101,291.896 234.518,288.150 242.063 C 287.422 243.528,286.382 246.527,285.837 248.728 C 285.292 250.929,284.271 253.871,283.566 255.265 C 282.862 256.659,281.586 259.685,280.731 261.988 C 278.235 268.713,275.661 272.963,271.096 277.898 C 263.337 286.285,264.227 287.879,276.800 288.117 C 285.289 288.277,284.544 288.062,292.800 292.740 C 303.694 298.913,304.581 300.602,304.592 315.200 C 304.601 326.881,304.349 328.168,301.593 330.496 C 299.731 332.069,290.747 336.709,288.563 337.225 C 285.525 337.943,111.061 337.690,108.257 336.963 C 100.246 334.887,92.039 327.015,90.754 320.174 C 88.657 309.006,94.018 300.455,108.056 292.576 C 116.022 288.106,115.376 288.309,122.458 288.039 C 131.940 287.677,132.180 287.137,126.841 278.196 C 125.080 275.247,122.484 271.337,121.072 269.508 C 117.273 264.587,116.158 262.578,114.663 257.967 C 113.920 255.675,112.674 252.534,111.895 250.987 C 109.537 246.307,109.556 246.524,109.475 223.664 C 109.393 200.509,109.265 201.892,112.013 196.200 C 113.080 193.989,113.753 191.835,114.191 189.230 C 114.602 186.782,115.206 184.788,115.912 183.543 C 119.112 177.906,120.967 175.063,124.534 170.328 C 126.697 167.456,129.200 163.733,130.096 162.053 C 132.169 158.168,134.219 155.133,136.484 152.600 C 138.884 149.916,140.745 147.196,142.590 143.677 C 143.733 141.498,144.838 140.125,146.935 138.277 C 151.747 134.039,156.220 129.477,157.397 127.608 C 158.018 126.622,161.423 122.877,164.963 119.285 C 174.976 109.126,175.092 107.951,166.952 99.148 C 161.054 92.770,161.118 93.010,161.177 77.393 C 161.234 62.439,161.140 62.869,166.329 54.000 C 170.064 47.617,175.521 43.601,186.200 39.379 C 186.640 39.205,190.240 38.958,194.200 38.831 C 201.109 38.609,203.002 38.621,210.274 38.927 " stroke="none" fill="#eee" fill-rule="evenodd"></path></g></svg>