<svg id="svg" version="1.1" xmlns="http://www.w3.org/2000/svg" xmlns:xlink="http://www.w3.org/1999/xlink" width="400" height="400" viewBox="0, 0, 400,400"><g id="svgg"><path id="path0" d="M190.643 38.437 C 183.875 40.765,182.011 43.216,180.240 52.115 C 178.474 60.988,177.073 62.494,169.400 63.762 C 159.310 65.429,153.800 71.585,153.800 81.191 C 153.800 90.532,157.665 94.830,167.984 96.965 C 171.051 97.599,173.558 98.368,174.657 99.012 C 185.632 105.444,173.007 125.263,160.258 121.617 C 158.751 121.186,155.962 120.544,154.059 120.191 C 152.157 119.838,148.170 118.705,145.200 117.675 L 139.800 115.800 129.200 115.807 C 117.259 115.814,119.455 115.417,106.561 119.899 C 84.905 127.428,65.340 149.080,63.615 167.428 C 63.386 169.863,63.007 173.283,62.772 175.028 C 62.132 179.781,62.267 198.963,62.986 205.496 C 64.412 218.455,64.411 218.454,66.184 223.000 C 67.127 225.420,68.303 228.660,68.796 230.200 C 70.645 235.976,77.423 248.831,82.866 256.886 C 87.388 263.578,96.927 274.000,104.220 280.217 C 113.126 287.809,113.541 290.551,106.361 294.358 C 87.534 304.341,88.006 323.831,107.305 333.291 C 114.233 336.687,106.054 336.408,198.640 336.397 C 291.357 336.385,283.112 336.678,290.395 333.134 C 308.219 324.461,307.753 303.664,289.535 294.728 C 281.930 290.998,281.810 288.712,288.883 282.340 C 307.800 265.297,320.524 247.236,327.324 227.774 C 328.319 224.928,329.497 221.600,329.942 220.378 C 331.583 215.877,332.407 210.284,333.646 195.247 C 334.641 183.158,332.581 164.741,329.524 158.400 C 328.834 156.970,327.482 154.107,326.519 152.037 C 319.424 136.790,305.447 124.890,288.666 119.808 C 286.210 119.065,282.580 117.858,280.600 117.128 L 277.000 115.800 266.200 115.800 L 255.400 115.800 250.000 117.703 C 232.029 124.035,227.635 123.703,221.353 115.540 C 214.199 106.242,216.392 99.599,227.400 97.223 C 237.494 95.045,241.800 90.135,241.800 80.807 C 241.800 71.097,236.398 64.633,227.600 63.815 C 219.253 63.040,217.342 61.168,215.200 51.667 C 213.351 43.466,212.516 42.088,208.012 39.806 C 203.815 37.679,194.892 36.976,190.643 38.437 " stroke="none" fill="#333" fill-rule="evenodd"></path><path id="path1" d="M0.000 200.000 L 0.000 400.000 200.000 400.000 L 400.000 400.000 400.000 200.000 L 400.000 0.000 200.000 0.000 L 0.000 0.000 0.000 200.000 M202.695 17.606 C 216.885 18.688,227.166 25.313,233.102 37.200 C 235.513 42.027,237.772 44.312,242.986 47.200 C 255.730 54.257,260.258 64.088,260.522 85.272 C 260.642 94.896,261.692 95.782,274.200 96.805 C 287.010 97.854,295.077 100.063,305.711 105.434 C 321.652 113.487,338.068 131.150,344.527 147.200 C 352.504 167.022,354.222 180.193,352.222 206.200 C 350.401 229.888,342.279 249.712,325.777 270.745 C 314.587 285.008,314.439 285.523,318.449 296.312 C 326.612 318.276,320.835 336.726,301.800 349.481 C 296.692 352.904,291.593 354.859,285.301 355.807 C 280.331 356.556,115.864 356.707,110.545 355.967 C 98.428 354.282,84.716 344.374,79.237 333.347 C 73.232 321.259,72.817 313.113,77.464 298.526 C 80.994 287.447,80.618 285.709,72.241 274.416 C 57.097 254.001,49.550 237.239,44.766 213.400 C 42.548 202.345,42.588 177.448,44.839 168.000 C 53.756 130.576,73.713 108.513,107.400 98.837 C 110.196 98.034,116.817 97.174,125.703 96.460 C 134.969 95.715,135.923 94.488,136.428 82.654 C 137.272 62.846,141.144 54.197,151.901 48.092 C 158.084 44.583,159.352 43.315,164.589 35.407 C 172.404 23.608,180.103 18.746,192.755 17.618 C 194.650 17.450,196.470 17.287,196.800 17.257 C 197.130 17.227,199.783 17.384,202.695 17.606 " stroke="none" fill="none" fill-rule="evenodd"></path><path id="path2" d="M192.755 17.618 C 180.103 18.746,172.404 23.608,164.589 35.407 C 159.352 43.315,158.084 44.583,151.901 48.092 C 141.144 54.197,137.272 62.846,136.428 82.654 C 135.923 94.488,134.969 95.715,125.703 96.460 C 116.817 97.174,110.196 98.034,107.400 98.837 C 73.713 108.513,53.756 130.576,44.839 168.000 C 42.588 177.448,42.548 202.345,44.766 213.400 C 49.550 237.239,57.097 254.001,72.241 274.416 C 80.618 285.709,80.994 287.447,77.464 298.526 C 72.817 313.113,73.232 321.259,79.237 333.347 C 84.716 344.374,98.428 354.282,110.545 355.967 C 115.864 356.707,280.331 356.556,285.301 355.807 C 291.593 354.859,296.692 352.904,301.800 349.481 C 320.835 336.726,326.612 318.276,318.449 296.312 C 314.439 285.523,314.587 285.008,325.777 270.745 C 342.279 249.712,350.401 229.888,352.222 206.200 C 354.222 180.193,352.504 167.022,344.527 147.200 C 338.068 131.150,321.652 113.487,305.711 105.434 C 295.077 100.063,287.010 97.854,274.200 96.805 C 261.692 95.782,260.642 94.896,260.522 85.272 C 260.258 64.088,255.730 54.257,242.986 47.200 C 237.772 44.312,235.513 42.027,233.102 37.200 C 226.615 24.210,211.511 15.913,196.800 17.257 C 196.470 17.287,194.650 17.450,192.755 17.618 M202.574 38.207 C 210.882 39.656,213.001 41.914,215.200 51.667 C 217.342 61.168,219.253 63.040,227.600 63.815 C 236.398 64.633,241.800 71.097,241.800 80.807 C 241.800 90.135,237.494 95.045,227.400 97.223 C 216.392 99.599,214.199 106.242,221.353 115.540 C 227.635 123.703,232.029 124.035,250.000 117.703 L 255.400 115.800 266.200 115.800 L 277.000 115.800 280.600 117.128 C 282.580 117.858,286.210 119.065,288.666 119.808 C 305.447 124.890,319.424 136.790,326.519 152.037 C 327.482 154.107,328.834 156.970,329.524 158.400 C 332.581 164.741,334.641 183.158,333.646 195.247 C 332.407 210.284,331.583 215.877,329.942 220.378 C 329.497 221.600,328.319 224.928,327.324 227.774 C 320.524 247.236,307.800 265.297,288.883 282.340 C 281.810 288.712,281.930 290.998,289.535 294.728 C 307.753 303.664,308.219 324.461,290.395 333.134 C 283.112 336.678,291.357 336.385,198.640 336.397 C 106.054 336.408,114.233 336.687,107.305 333.291 C 88.006 323.831,87.534 304.341,106.361 294.358 C 113.541 290.551,113.126 287.809,104.220 280.217 C 96.927 274.000,87.388 263.578,82.866 256.886 C 77.423 248.831,70.645 235.976,68.796 230.200 C 68.303 228.660,67.127 225.420,66.184 223.000 C 64.411 218.454,64.412 218.455,62.986 205.496 C 62.267 198.963,62.132 179.781,62.772 175.028 C 63.007 173.283,63.386 169.863,63.615 167.428 C 65.340 149.080,84.905 127.428,106.561 119.899 C 119.455 115.417,117.259 115.814,129.200 115.807 L 139.800 115.800 145.200 117.675 C 148.170 118.705,152.157 119.838,154.059 120.191 C 155.962 120.544,158.751 121.186,160.258 121.617 C 168.778 124.053,178.600 115.996,178.600 106.571 C 178.600 100.782,176.276 98.679,167.984 96.965 C 157.665 94.830,153.800 90.532,153.800 81.191 C 153.800 71.585,159.310 65.429,169.400 63.762 C 177.073 62.494,178.474 60.988,180.240 52.115 C 182.689 39.811,189.052 35.849,202.574 38.207 " stroke="none" fill="#eee" fill-rule="evenodd"></path></g></svg>