<svg id="svg" version="1.1" xmlns="http://www.w3.org/2000/svg" xmlns:xlink="http://www.w3.org/1999/xlink" width="400" height="400" viewBox="0, 0, 400,400"><g id="svgg"><path id="path0" d="M158.000 47.053 C 143.429 47.746,137.118 54.512,141.444 64.800 C 145.243 73.832,145.175 82.434,141.242 90.560 C 138.570 96.082,128.901 112.125,125.137 117.283 C 123.646 119.327,120.863 123.610,118.953 126.800 C 117.043 129.990,114.958 133.268,114.319 134.084 C 113.680 134.901,112.028 137.691,110.648 140.284 C 109.268 142.878,106.999 146.980,105.607 149.400 C 94.235 169.158,95.083 181.352,108.938 197.302 C 110.292 198.861,112.390 201.576,113.600 203.336 C 118.745 210.819,126.365 211.126,134.070 204.160 C 137.021 201.493,138.257 200.736,145.195 197.346 C 154.494 192.803,158.189 190.737,166.325 185.532 C 173.489 180.949,186.510 173.717,189.394 172.720 C 195.966 170.447,201.390 174.493,198.661 179.632 C 194.919 186.681,192.009 191.816,190.355 194.291 C 187.976 197.850,186.590 200.561,186.208 202.400 C 185.232 207.106,182.769 211.398,177.803 217.049 C 175.894 219.222,172.247 223.759,169.698 227.132 C 165.457 232.742,162.735 236.009,156.293 243.218 C 153.754 246.060,143.972 259.156,140.620 264.200 C 139.450 265.960,137.014 270.337,135.207 273.926 C 129.217 285.819,126.253 288.528,115.674 291.779 C 100.512 296.438,93.342 308.720,97.647 322.659 C 99.354 328.184,108.304 334.826,115.600 335.982 C 119.867 336.658,294.366 336.537,297.259 335.856 C 303.540 334.377,310.438 326.592,312.234 318.955 C 314.671 308.592,309.761 299.151,299.000 293.507 C 289.420 288.481,287.918 284.140,291.827 272.776 C 292.590 270.559,293.661 266.627,294.208 264.038 C 294.755 261.449,295.830 257.372,296.598 254.977 C 298.352 249.508,298.702 247.562,299.179 240.600 C 299.486 236.128,299.932 233.549,301.395 227.800 C 303.911 217.903,303.942 217.286,303.815 178.508 C 303.692 141.044,303.810 142.973,301.153 135.132 C 300.283 132.565,299.301 128.918,298.971 127.029 C 298.642 125.139,297.949 122.380,297.432 120.897 C 296.916 119.414,295.760 116.111,294.864 113.557 C 284.338 83.541,265.548 63.288,238.712 53.033 C 232.514 50.665,231.476 50.396,220.600 48.339 L 213.800 47.054 187.200 46.991 C 172.570 46.957,159.430 46.985,158.000 47.053 " stroke="none" fill="#333" fill-rule="evenodd"></path><path id="path1" d="M0.000 200.000 L 0.000 400.000 200.000 400.000 L 400.000 400.000 400.000 200.000 L 400.000 0.000 200.000 0.000 L 0.000 0.000 0.000 200.000 M210.792 29.610 C 234.661 31.092,236.258 31.465,252.948 39.464 C 275.988 50.507,293.019 66.894,303.177 87.794 C 309.901 101.627,311.848 106.616,313.971 115.443 C 314.864 119.159,316.131 124.238,316.786 126.729 C 318.529 133.361,319.221 138.725,319.608 148.600 C 319.797 153.440,320.234 159.248,320.578 161.506 C 321.418 167.026,321.425 180.159,320.591 186.800 C 320.245 189.550,319.801 197.650,319.603 204.800 C 319.178 220.172,318.955 222.498,316.397 238.200 C 315.322 244.800,314.159 252.450,313.812 255.200 C 313.465 257.950,312.803 262.238,312.342 264.728 C 310.597 274.141,311.421 277.016,317.878 284.062 C 338.576 306.650,333.374 338.478,306.898 351.237 C 301.259 353.954,308.469 353.757,209.600 353.906 C 104.545 354.064,107.693 354.165,99.800 350.396 C 69.005 335.693,72.129 287.005,104.600 275.576 C 114.491 272.094,116.009 270.632,124.638 256.279 C 127.257 251.922,131.352 245.716,133.739 242.487 C 143.119 229.795,142.810 227.603,131.640 227.597 C 109.352 227.583,93.879 218.350,88.217 201.685 C 87.491 199.548,86.148 196.110,85.232 194.045 C 77.170 175.861,78.923 158.132,90.744 138.304 C 92.221 135.827,94.300 132.270,95.364 130.400 C 96.429 128.530,99.049 124.390,101.187 121.200 C 103.325 118.010,106.123 113.690,107.405 111.600 C 108.687 109.510,112.355 103.840,115.557 99.000 C 126.349 82.684,127.128 79.875,123.766 69.400 C 116.100 45.518,123.611 31.717,145.400 29.650 C 150.598 29.157,202.974 29.125,210.792 29.610 " stroke="none" fill="none" fill-rule="evenodd"></path><path id="path2" d="M145.400 29.650 C 133.683 30.761,127.073 34.757,123.044 43.164 C 119.440 50.685,119.597 56.414,123.766 69.400 C 127.128 79.875,126.349 82.684,115.557 99.000 C 112.355 103.840,108.687 109.510,107.405 111.600 C 106.123 113.690,103.325 118.010,101.187 121.200 C 99.049 124.390,96.429 128.530,95.364 130.400 C 94.300 132.270,92.221 135.827,90.744 138.304 C 78.923 158.132,77.170 175.861,85.232 194.045 C 86.148 196.110,87.491 199.548,88.217 201.685 C 93.879 218.350,109.352 227.583,131.640 227.597 C 142.810 227.603,143.119 229.795,133.739 242.487 C 131.352 245.716,127.257 251.922,124.638 256.279 C 116.009 270.632,114.491 272.094,104.600 275.576 C 72.129 287.005,69.005 335.693,99.800 350.396 C 107.693 354.165,104.545 354.064,209.600 353.906 C 308.469 353.757,301.259 353.954,306.898 351.237 C 333.374 338.478,338.576 306.650,317.878 284.062 C 311.421 277.016,310.597 274.141,312.342 264.728 C 312.803 262.238,313.465 257.950,313.812 255.200 C 314.159 252.450,315.322 244.800,316.397 238.200 C 318.955 222.498,319.178 220.172,319.603 204.800 C 319.801 197.650,320.245 189.550,320.591 186.800 C 321.425 180.159,321.418 167.026,320.578 161.506 C 320.234 159.248,319.797 153.440,319.608 148.600 C 319.221 138.725,318.529 133.361,316.786 126.729 C 316.131 124.238,314.864 119.159,313.971 115.443 C 313.077 111.727,311.972 107.677,311.515 106.443 C 299.368 73.651,281.397 53.100,252.948 39.464 C 236.258 31.465,234.661 31.092,210.792 29.610 C 202.974 29.125,150.598 29.157,145.400 29.650 M220.600 48.339 C 231.476 50.396,232.514 50.665,238.712 53.033 C 265.548 63.288,284.338 83.541,294.864 113.557 C 295.760 116.111,296.916 119.414,297.432 120.897 C 297.949 122.380,298.642 125.139,298.971 127.029 C 299.301 128.918,300.283 132.565,301.153 135.132 C 303.810 142.973,303.692 141.044,303.815 178.508 C 303.942 217.286,303.911 217.903,301.395 227.800 C 299.932 233.549,299.486 236.128,299.179 240.600 C 298.702 247.562,298.352 249.508,296.598 254.977 C 295.830 257.372,294.755 261.449,294.208 264.038 C 293.661 266.627,292.590 270.559,291.827 272.776 C 287.918 284.140,289.420 288.481,299.000 293.507 C 309.761 299.151,314.671 308.592,312.234 318.955 C 310.438 326.592,303.540 334.377,297.259 335.856 C 294.366 336.537,119.867 336.658,115.600 335.982 C 108.304 334.826,99.354 328.184,97.647 322.659 C 93.342 308.720,100.512 296.438,115.674 291.779 C 126.253 288.528,129.217 285.819,135.207 273.926 C 137.014 270.337,139.450 265.960,140.620 264.200 C 143.972 259.156,153.754 246.060,156.293 243.218 C 162.735 236.009,165.457 232.742,169.698 227.132 C 172.247 223.759,175.894 219.222,177.803 217.049 C 182.769 211.398,185.232 207.106,186.208 202.400 C 186.590 200.561,187.976 197.850,190.355 194.291 C 192.009 191.816,194.919 186.681,198.661 179.632 C 201.390 174.493,195.966 170.447,189.394 172.720 C 186.510 173.717,173.489 180.949,166.325 185.532 C 158.189 190.737,154.494 192.803,145.195 197.346 C 138.257 200.736,137.021 201.493,134.070 204.160 C 126.365 211.126,118.745 210.819,113.600 203.336 C 112.390 201.576,110.292 198.861,108.938 197.302 C 95.083 181.352,94.235 169.158,105.607 149.400 C 106.999 146.980,109.268 142.878,110.648 140.284 C 112.028 137.691,113.680 134.901,114.319 134.084 C 114.958 133.268,117.043 129.990,118.953 126.800 C 120.863 123.610,123.646 119.327,125.137 117.283 C 128.901 112.125,138.570 96.082,141.242 90.560 C 145.175 82.434,145.243 73.832,141.444 64.800 C 138.437 57.647,140.235 52.616,146.936 49.436 C 152.207 46.935,152.616 46.910,187.200 46.991 L 213.800 47.054 220.600 48.339 " stroke="none" fill="#eee" fill-rule="evenodd"></path></g></svg>