<svg id="svg" version="1.1" xmlns="http://www.w3.org/2000/svg" xmlns:xlink="http://www.w3.org/1999/xlink" width="400" height="400" viewBox="0, 0, 400,400"><g id="svgg"><path id="path0" d="M184.200 50.030 C 166.671 52.362,147.367 63.738,137.417 77.600 C 133.433 83.151,126.277 97.842,125.226 102.630 C 124.746 104.813,124.011 108.130,123.592 110.000 C 119.650 127.597,123.111 152.287,131.226 164.460 C 137.318 173.598,145.079 181.474,155.557 189.150 C 161.719 193.664,162.207 194.729,162.176 203.600 L 162.151 210.600 160.479 215.534 C 159.560 218.247,158.442 222.611,157.995 225.231 C 157.548 227.851,156.628 231.480,155.952 233.297 C 155.275 235.114,154.130 238.310,153.407 240.400 C 149.863 250.649,143.234 263.059,135.673 273.600 C 128.839 283.127,125.776 285.346,111.176 291.339 C 100.346 295.785,97.945 297.164,94.656 300.822 C 83.074 313.704,91.046 331.875,110.014 335.830 C 114.858 336.840,278.565 336.483,281.597 335.456 C 293.642 331.375,299.228 324.748,299.347 314.400 C 299.477 303.023,292.992 296.728,273.891 289.687 C 262.764 285.586,253.516 276.675,246.194 263.000 C 245.370 261.460,244.197 259.300,243.589 258.200 C 241.903 255.153,238.976 248.153,238.000 244.836 C 237.521 243.206,236.414 240.250,235.542 238.268 C 234.669 236.285,233.435 232.488,232.799 229.831 C 232.163 227.174,231.020 223.200,230.259 221.000 C 228.546 216.052,227.016 206.827,227.007 201.400 C 226.996 195.126,228.933 192.057,236.518 186.331 C 260.857 167.956,271.154 142.331,266.468 111.800 C 261.745 81.038,241.587 59.352,209.696 50.728 C 206.168 49.774,189.545 49.319,184.200 50.030 " stroke="none" fill="#333" fill-rule="evenodd"></path><path id="path1" d="M0.000 200.000 L 0.000 400.000 200.000 400.000 L 400.000 400.000 400.000 200.000 L 400.000 0.000 200.000 0.000 L 0.000 0.000 0.000 200.000 M208.010 32.019 C 261.984 38.688,297.875 97.751,281.829 153.498 C 277.511 168.502,270.058 180.653,256.987 194.000 C 245.713 205.513,244.826 210.609,251.025 228.257 C 261.908 259.236,270.655 270.352,287.662 274.816 C 309.456 280.538,319.794 298.085,315.812 322.600 C 314.116 333.041,307.827 342.462,298.793 348.093 C 290.832 353.054,287.060 353.547,253.600 353.992 C 232.992 354.266,228.747 354.423,225.000 355.051 C 218.314 356.170,143.387 356.186,135.400 355.069 C 131.988 354.592,125.869 354.227,117.600 354.009 C 103.789 353.643,100.810 353.260,95.904 351.218 C 82.016 345.436,73.737 334.073,72.328 318.858 C 70.273 296.670,80.587 281.762,102.800 274.811 C 117.380 270.249,121.556 265.910,131.623 244.867 C 141.392 224.445,143.658 214.141,140.216 205.799 C 138.056 200.565,137.661 200.028,130.818 193.000 C 100.078 161.433,94.769 122.853,115.462 81.400 C 128.512 55.257,153.942 35.907,180.345 32.029 C 183.670 31.540,204.079 31.533,208.010 32.019 " stroke="none" fill="none" fill-rule="evenodd"></path><path id="path2" d="M180.345 32.029 C 161.205 34.840,139.996 47.365,126.906 63.587 C 112.817 81.047,103.181 106.807,103.205 126.942 C 103.237 153.371,111.517 173.180,130.818 193.000 C 137.661 200.028,138.056 200.565,140.216 205.799 C 143.658 214.141,141.392 224.445,131.623 244.867 C 121.556 265.910,117.380 270.249,102.800 274.811 C 80.587 281.762,70.273 296.670,72.328 318.858 C 73.737 334.073,82.016 345.436,95.904 351.218 C 100.810 353.260,103.789 353.643,117.600 354.009 C 125.869 354.227,131.988 354.592,135.400 355.069 C 143.387 356.186,218.314 356.170,225.000 355.051 C 228.747 354.423,232.992 354.266,253.600 353.992 C 287.060 353.547,290.832 353.054,298.793 348.093 C 307.827 342.462,314.116 333.041,315.812 322.600 C 319.794 298.085,309.456 280.538,287.662 274.816 C 270.655 270.352,261.908 259.236,251.025 228.257 C 244.826 210.609,245.713 205.513,256.987 194.000 C 285.295 165.094,292.727 131.233,279.384 91.953 C 268.399 59.613,240.288 36.007,208.010 32.019 C 204.079 31.533,183.670 31.540,180.345 32.029 M209.696 50.728 C 238.724 58.578,256.755 75.864,264.849 103.600 C 267.410 112.376,268.176 128.758,266.479 138.447 C 262.911 158.811,253.904 173.205,236.518 186.331 C 228.933 192.057,226.996 195.126,227.007 201.400 C 227.016 206.827,228.546 216.052,230.259 221.000 C 231.020 223.200,232.163 227.174,232.799 229.831 C 233.435 232.488,234.669 236.285,235.542 238.268 C 236.414 240.250,237.521 243.206,238.000 244.836 C 238.976 248.153,241.903 255.153,243.589 258.200 C 244.197 259.300,245.370 261.460,246.194 263.000 C 253.516 276.675,262.764 285.586,273.891 289.687 C 292.992 296.728,299.477 303.023,299.347 314.400 C 299.228 324.748,293.642 331.375,281.597 335.456 C 278.565 336.483,114.858 336.840,110.014 335.830 C 91.046 331.875,83.074 313.704,94.656 300.822 C 97.945 297.164,100.346 295.785,111.176 291.339 C 120.386 287.558,127.772 283.420,130.456 280.535 C 137.574 272.888,149.209 252.541,153.407 240.400 C 154.130 238.310,155.275 235.114,155.952 233.297 C 156.628 231.480,157.548 227.851,157.995 225.231 C 158.442 222.611,159.560 218.247,160.479 215.534 L 162.151 210.600 162.176 203.600 C 162.207 194.729,161.719 193.664,155.557 189.150 C 145.079 181.474,137.318 173.598,131.226 164.460 C 123.111 152.287,119.650 127.597,123.592 110.000 C 124.011 108.130,124.746 104.813,125.226 102.630 C 126.277 97.842,133.433 83.151,137.417 77.600 C 147.367 63.738,166.671 52.362,184.200 50.030 C 189.545 49.319,206.168 49.774,209.696 50.728 " stroke="none" fill="#eee" fill-rule="evenodd"></path></g></svg>