<svg id="svg" version="1.1" xmlns="http://www.w3.org/2000/svg" xmlns:xlink="http://www.w3.org/1999/xlink" width="400" height="400" viewBox="0, 0, 400,400"><g id="svgg"><path id="path0" d="M150.529 45.801 C 147.190 46.527,144.453 48.379,140.434 52.632 C 135.247 58.119,134.999 58.840,135.004 68.400 C 135.008 77.587,134.989 77.524,139.718 83.736 C 143.826 89.132,144.000 89.846,144.016 101.347 L 144.029 110.429 142.773 113.914 C 142.082 115.831,141.156 118.390,140.715 119.600 C 140.143 121.168,139.810 123.523,139.554 127.800 C 138.744 141.351,134.686 140.959,122.534 126.157 C 121.250 124.593,118.454 121.395,116.321 119.050 C 107.813 109.699,105.964 105.841,105.566 96.611 C 105.154 87.059,104.773 86.055,99.420 80.443 C 91.146 71.768,80.762 69.893,71.394 75.382 C 66.970 77.975,60.833 87.817,59.936 93.759 C 58.551 102.926,66.059 112.984,79.200 119.566 C 82.649 121.294,84.162 122.816,85.878 126.282 L 87.304 129.164 87.628 138.882 C 87.960 148.844,88.118 150.066,89.851 156.099 C 91.867 163.114,92.096 166.809,92.380 196.800 C 92.667 227.239,92.521 225.428,95.159 231.245 C 95.799 232.657,96.520 234.934,96.761 236.306 C 97.003 237.678,97.396 239.915,97.635 241.277 C 98.445 245.885,103.551 257.037,107.398 262.600 C 108.767 264.580,110.749 267.881,111.802 269.936 C 113.358 272.969,114.532 274.529,118.046 278.231 C 125.267 285.838,125.510 289.098,118.904 289.779 C 112.317 290.458,111.526 290.695,104.973 293.953 C 89.440 301.674,85.756 313.188,94.617 326.319 C 96.940 329.761,103.498 334.307,107.800 335.456 C 110.393 336.149,279.955 336.266,283.827 335.578 C 294.772 333.633,303.136 323.692,302.738 313.101 C 302.350 302.738,289.020 291.535,275.304 290.043 C 266.878 289.127,266.328 287.110,272.786 280.800 C 280.975 272.798,291.638 254.239,293.765 244.288 C 294.292 241.820,295.294 238.540,295.990 237.001 C 298.053 232.439,298.387 230.269,298.396 221.400 C 298.401 216.063,298.608 212.201,299.018 209.800 C 300.863 198.994,301.210 196.501,301.605 191.200 C 301.843 188.010,302.237 183.780,302.482 181.800 C 302.728 179.820,303.035 168.660,303.165 157.000 L 303.402 135.800 305.238 131.200 C 306.247 128.670,307.389 125.738,307.776 124.684 C 309.028 121.270,312.097 118.998,321.721 114.363 C 328.971 110.871,331.414 105.662,331.135 94.293 C 330.763 79.138,316.655 67.890,303.732 72.445 C 291.826 76.641,285.885 85.823,285.239 101.025 C 284.836 110.505,285.086 110.044,274.385 120.994 C 268.093 127.431,265.532 130.366,263.450 133.524 C 259.247 139.899,257.871 140.005,254.742 134.200 C 252.135 129.361,252.017 128.884,251.401 120.600 C 250.932 114.291,250.710 112.979,249.608 110.000 C 245.579 99.102,245.713 96.299,250.663 87.878 C 256.331 78.235,257.925 71.001,256.194 62.770 C 254.512 54.775,246.023 46.472,238.586 45.548 C 227.679 44.194,218.750 50.151,213.625 62.200 C 210.927 68.543,211.859 74.537,217.309 85.881 C 219.658 90.770,219.654 93.163,217.287 98.025 C 216.370 99.908,215.143 102.878,214.560 104.625 C 213.977 106.371,213.172 108.449,212.771 109.242 C 212.371 110.035,211.324 112.735,210.445 115.242 C 208.054 122.062,204.248 129.045,202.000 130.736 C 201.010 131.481,199.112 133.071,197.782 134.271 C 193.966 137.712,193.513 137.847,191.621 136.100 C 190.388 134.962,187.653 129.007,185.605 123.000 C 185.005 121.240,183.793 118.360,182.911 116.600 C 182.030 114.840,180.899 112.230,180.399 110.800 C 179.900 109.370,178.411 106.040,177.091 103.400 C 171.588 92.393,171.630 90.568,177.584 81.800 C 182.208 74.992,182.043 67.621,177.048 57.800 C 171.366 46.629,163.367 43.010,150.529 45.801 " stroke="none" fill="#333" fill-rule="evenodd"></path><path id="path1" d="M0.000 200.000 L 0.000 400.000 200.000 400.000 L 400.000 400.000 400.000 200.000 L 400.000 0.000 200.000 0.000 L 0.000 0.000 0.000 200.000 M167.200 29.205 C 173.534 30.806,178.588 33.826,185.636 40.220 C 192.831 46.747,198.320 46.449,207.600 39.027 C 223.334 26.444,241.714 25.053,257.272 35.268 C 265.365 40.583,268.778 45.038,272.956 55.743 C 276.478 64.769,278.511 65.755,285.336 61.752 C 295.885 55.563,299.610 54.409,309.056 54.403 C 331.278 54.389,346.941 70.216,347.878 93.631 C 348.528 109.875,343.243 120.741,330.200 129.980 C 321.159 136.383,319.856 139.696,318.792 159.000 C 318.573 162.960,318.215 167.550,317.997 169.200 C 317.778 170.850,317.427 179.400,317.216 188.200 C 317.005 197.000,316.739 205.370,316.625 206.800 C 316.511 208.230,316.316 211.470,316.193 214.000 C 315.610 225.947,314.329 234.329,311.637 243.800 C 310.207 248.834,308.803 252.514,302.631 267.400 C 299.432 275.119,299.986 277.783,306.375 285.400 C 315.793 296.627,318.195 302.643,318.195 315.000 C 318.195 328.251,314.180 336.795,304.270 344.631 C 294.702 352.197,289.272 353.049,247.200 353.595 C 228.652 353.835,221.222 354.075,217.000 354.569 C 208.728 355.538,128.745 355.323,121.400 354.312 C 118.760 353.949,113.720 353.461,110.200 353.228 C 88.038 351.760,74.604 337.248,74.629 314.800 C 74.642 302.864,77.043 296.791,85.917 286.247 C 93.165 277.636,93.168 276.463,85.987 259.200 C 81.509 248.437,80.831 246.321,79.385 238.600 C 76.956 225.624,76.913 225.259,75.595 206.700 C 75.373 203.565,75.013 194.520,74.796 186.600 C 73.496 139.239,73.329 138.467,62.596 130.397 C 48.493 119.792,44.398 111.028,44.912 92.555 C 45.192 82.481,46.343 78.598,51.169 71.446 C 59.215 59.523,70.087 54.039,84.751 54.506 C 93.440 54.784,95.690 55.532,107.996 62.234 C 114.469 65.760,116.440 64.597,120.173 55.052 C 126.153 39.759,136.620 31.261,153.200 28.237 C 155.597 27.800,163.915 28.375,167.200 29.205 " stroke="none" fill="none" fill-rule="evenodd"></path><path id="path2" d="M153.200 28.237 C 136.620 31.261,126.153 39.759,120.173 55.052 C 116.440 64.597,114.469 65.760,107.996 62.234 C 95.690 55.532,93.440 54.784,84.751 54.506 C 70.087 54.039,59.215 59.523,51.169 71.446 C 46.343 78.598,45.192 82.481,44.912 92.555 C 44.398 111.028,48.493 119.792,62.596 130.397 C 73.329 138.467,73.496 139.239,74.796 186.600 C 75.504 212.393,76.418 222.749,79.385 238.600 C 80.831 246.321,81.509 248.437,85.987 259.200 C 93.168 276.463,93.165 277.636,85.917 286.247 C 77.043 296.791,74.642 302.864,74.629 314.800 C 74.604 337.248,88.038 351.760,110.200 353.228 C 113.720 353.461,118.760 353.949,121.400 354.312 C 128.745 355.323,208.728 355.538,217.000 354.569 C 221.222 354.075,228.652 353.835,247.200 353.595 C 289.272 353.049,294.702 352.197,304.270 344.631 C 314.180 336.795,318.195 328.251,318.195 315.000 C 318.195 302.643,315.793 296.627,306.375 285.400 C 299.986 277.783,299.432 275.119,302.631 267.400 C 308.803 252.514,310.207 248.834,311.637 243.800 C 314.329 234.329,315.610 225.947,316.193 214.000 C 316.316 211.470,316.511 208.230,316.625 206.800 C 316.739 205.370,317.005 197.000,317.216 188.200 C 317.427 179.400,317.778 170.850,317.997 169.200 C 318.215 167.550,318.573 162.960,318.792 159.000 C 319.856 139.696,321.159 136.383,330.200 129.980 C 343.243 120.741,348.528 109.875,347.878 93.631 C 346.941 70.216,331.278 54.389,309.056 54.403 C 299.610 54.409,295.885 55.563,285.336 61.752 C 278.511 65.755,276.478 64.769,272.956 55.743 C 268.778 45.038,265.365 40.583,257.272 35.268 C 241.714 25.053,223.334 26.444,207.600 39.027 C 198.320 46.449,192.831 46.747,185.636 40.220 C 175.113 30.674,163.455 26.367,153.200 28.237 M163.200 45.618 C 169.457 46.608,172.893 49.630,177.048 57.800 C 182.043 67.621,182.208 74.992,177.584 81.800 C 171.630 90.568,171.588 92.393,177.091 103.400 C 178.411 106.040,179.900 109.370,180.399 110.800 C 180.899 112.230,182.030 114.840,182.911 116.600 C 183.793 118.360,185.005 121.240,185.605 123.000 C 187.653 129.007,190.388 134.962,191.621 136.100 C 193.513 137.847,193.966 137.712,197.782 134.271 C 199.112 133.071,201.010 131.481,202.000 130.736 C 204.248 129.045,208.054 122.062,210.445 115.242 C 211.324 112.735,212.371 110.035,212.771 109.242 C 213.172 108.449,213.977 106.371,214.560 104.625 C 215.143 102.878,216.370 99.908,217.287 98.025 C 219.654 93.163,219.658 90.770,217.309 85.881 C 211.859 74.537,210.927 68.543,213.625 62.200 C 218.750 50.151,227.679 44.194,238.586 45.548 C 246.023 46.472,254.512 54.775,256.194 62.770 C 257.925 71.001,256.331 78.235,250.663 87.878 C 247.162 93.834,246.593 95.671,246.928 99.936 C 247.177 103.104,247.480 104.244,249.608 110.000 C 250.710 112.979,250.932 114.291,251.401 120.600 C 252.017 128.884,252.135 129.361,254.742 134.200 C 257.871 140.005,259.247 139.899,263.450 133.524 C 265.532 130.366,268.093 127.431,274.385 120.994 C 285.086 110.044,284.836 110.505,285.239 101.025 C 285.885 85.823,291.826 76.641,303.732 72.445 C 316.655 67.890,330.763 79.138,331.135 94.293 C 331.414 105.662,328.971 110.871,321.721 114.363 C 312.097 118.998,309.028 121.270,307.776 124.684 C 307.389 125.738,306.247 128.670,305.238 131.200 L 303.402 135.800 303.165 157.000 C 303.035 168.660,302.728 179.820,302.482 181.800 C 302.237 183.780,301.843 188.010,301.605 191.200 C 301.210 196.501,300.863 198.994,299.018 209.800 C 298.608 212.201,298.401 216.063,298.396 221.400 C 298.387 230.269,298.053 232.439,295.990 237.001 C 295.294 238.540,294.292 241.820,293.765 244.288 C 291.638 254.239,280.975 272.798,272.786 280.800 C 266.328 287.110,266.878 289.127,275.304 290.043 C 285.697 291.174,297.464 298.972,301.672 307.517 C 306.756 317.840,296.960 333.244,283.827 335.578 C 279.955 336.266,110.393 336.149,107.800 335.456 C 103.498 334.307,96.940 329.761,94.617 326.319 C 85.756 313.188,89.440 301.674,104.973 293.953 C 111.526 290.695,112.317 290.458,118.904 289.779 C 125.510 289.098,125.267 285.838,118.046 278.231 C 114.532 274.529,113.358 272.969,111.802 269.936 C 110.749 267.881,108.767 264.580,107.398 262.600 C 103.551 257.037,98.445 245.885,97.635 241.277 C 97.396 239.915,97.003 237.678,96.761 236.306 C 96.520 234.934,95.799 232.657,95.159 231.245 C 92.521 225.428,92.667 227.239,92.380 196.800 C 92.096 166.809,91.867 163.114,89.851 156.099 C 88.118 150.066,87.960 148.844,87.628 138.882 L 87.304 129.164 85.878 126.282 C 84.162 122.816,82.649 121.294,79.200 119.566 C 66.059 112.984,58.551 102.926,59.936 93.759 C 60.833 87.817,66.970 77.975,71.394 75.382 C 80.762 69.893,91.146 71.768,99.420 80.443 C 104.773 86.055,105.154 87.059,105.566 96.611 C 105.964 105.841,107.813 109.699,116.321 119.050 C 118.454 121.395,121.250 124.593,122.534 126.157 C 134.686 140.959,138.744 141.351,139.554 127.800 C 139.810 123.523,140.143 121.168,140.715 119.600 C 141.156 118.390,142.082 115.831,142.773 113.914 L 144.029 110.429 144.016 101.347 C 144.000 89.846,143.826 89.132,139.718 83.736 C 134.989 77.524,135.008 77.587,135.004 68.400 C 134.999 58.840,135.247 58.119,140.434 52.632 C 146.901 45.789,152.799 43.971,163.200 45.618 " stroke="none" fill="#eee" fill-rule="evenodd"></path></g></svg>