<svg id="svg" version="1.1" xmlns="http://www.w3.org/2000/svg" xmlns:xlink="http://www.w3.org/1999/xlink" width="400" height="400" viewBox="0, 0, 400,400"><g id="svgg"><path id="path0" d="M110.246 54.809 C 104.557 55.463,100.951 57.352,96.737 61.883 C 92.083 66.888,92.339 63.161,92.480 123.800 L 92.600 175.800 93.472 177.687 C 96.900 185.107,104.906 188.225,122.000 188.796 C 140.264 189.407,139.262 187.794,139.328 216.663 C 139.370 235.197,139.297 237.825,138.640 241.400 C 138.032 244.710,137.857 248.541,137.623 263.600 C 137.316 283.276,137.305 283.376,134.993 286.878 C 133.567 289.039,131.081 290.289,125.532 291.636 C 110.704 295.234,104.270 299.272,100.604 307.280 C 95.067 319.373,105.308 333.313,121.400 335.586 C 127.599 336.461,286.490 335.970,289.200 335.067 C 301.254 331.049,308.040 320.798,305.387 310.613 C 302.791 300.649,296.186 295.686,280.000 291.540 C 270.303 289.055,267.850 286.979,266.199 279.857 C 265.529 276.969,265.288 198.743,265.941 195.991 C 267.236 190.526,270.200 189.245,282.600 188.789 C 291.127 188.476,293.356 188.205,298.000 186.916 C 305.789 184.755,309.705 179.882,311.799 169.744 C 312.520 166.254,312.696 102.564,312.004 95.716 C 311.787 93.562,311.429 88.531,311.211 84.536 C 310.291 67.758,306.465 58.142,299.800 55.854 C 294.645 54.085,276.399 53.931,271.024 55.611 C 267.020 56.863,263.947 59.891,261.145 65.345 C 257.485 72.470,257.534 72.175,257.200 89.000 C 256.783 110.053,256.330 110.800,243.999 110.800 C 232.941 110.800,231.773 109.195,231.189 93.200 C 230.394 71.424,226.857 60.910,218.970 56.887 C 212.647 53.661,188.891 53.515,182.671 56.665 C 174.135 60.986,171.631 67.326,171.583 84.742 C 171.525 105.630,169.127 110.800,159.495 110.800 C 149.330 110.800,146.754 106.104,146.002 86.200 C 145.282 67.140,142.852 60.078,135.785 56.501 C 132.503 54.840,118.206 53.893,110.246 54.809 " stroke="none" fill="#eee" fill-rule="evenodd"></path><path id="path1" d="M0.000 200.000 L 0.000 400.000 200.000 400.000 L 400.000 400.000 400.000 200.000 L 400.000 0.000 200.000 0.000 L 0.000 0.000 0.000 200.000 M131.430 36.381 C 139.914 36.929,142.447 37.916,153.372 44.937 C 158.278 48.090,159.955 47.953,166.107 43.901 C 175.745 37.551,181.032 36.330,198.800 36.345 C 218.035 36.362,228.475 38.779,237.246 45.245 C 243.240 49.664,245.624 49.625,251.813 45.009 C 262.537 37.013,271.161 35.205,292.716 36.436 C 314.058 37.656,324.279 45.492,329.002 64.255 C 330.630 70.723,330.876 172.415,329.281 179.546 C 328.085 184.897,325.254 190.456,321.306 195.209 C 319.566 197.304,317.224 200.364,316.101 202.009 C 311.812 208.295,308.435 210.171,298.139 211.985 C 288.318 213.715,285.204 215.583,283.940 220.498 C 282.860 224.700,283.183 262.309,284.330 265.962 C 285.737 270.441,288.323 272.858,294.200 275.187 C 314.125 283.084,322.408 294.405,322.398 313.729 C 322.389 330.997,314.997 343.642,300.955 350.410 C 294.900 353.328,291.756 353.638,264.600 353.989 C 244.492 354.248,240.319 354.404,236.400 355.040 C 229.389 356.177,160.061 356.183,152.400 355.048 C 148.544 354.476,143.646 354.237,131.000 354.004 C 111.962 353.653,110.464 353.452,104.143 350.392 C 70.797 334.249,74.268 287.899,109.747 275.557 C 120.486 271.821,120.505 271.760,120.326 242.000 C 120.158 214.050,120.328 214.446,107.953 213.013 C 93.702 211.363,90.194 209.353,84.546 199.600 C 77.742 187.851,77.352 186.433,74.571 163.400 C 73.188 151.940,72.878 103.003,74.117 91.600 C 74.487 88.190,74.965 81.440,75.178 76.600 C 76.213 53.152,80.922 44.533,95.629 39.166 C 103.185 36.408,116.188 35.396,131.430 36.381 " stroke="none" fill="none" fill-rule="evenodd"></path><path id="path2" d="M110.200 36.428 C 85.343 37.781,76.441 47.992,75.178 76.600 C 74.965 81.440,74.487 88.190,74.117 91.600 C 72.878 103.003,73.188 151.940,74.571 163.400 C 77.352 186.433,77.742 187.851,84.546 199.600 C 90.194 209.353,93.702 211.363,107.953 213.013 C 120.328 214.446,120.158 214.050,120.326 242.000 C 120.505 271.760,120.486 271.821,109.747 275.557 C 74.268 287.899,70.797 334.249,104.143 350.392 C 110.464 353.452,111.962 353.653,131.000 354.004 C 143.646 354.237,148.544 354.476,152.400 355.048 C 160.061 356.183,229.389 356.177,236.400 355.040 C 240.319 354.404,244.492 354.248,264.600 353.989 C 291.756 353.638,294.900 353.328,300.955 350.410 C 314.997 343.642,322.389 330.997,322.398 313.729 C 322.408 294.405,314.125 283.084,294.200 275.187 C 288.323 272.858,285.737 270.441,284.330 265.962 C 283.183 262.309,282.860 224.700,283.940 220.498 C 285.204 215.583,288.318 213.715,298.139 211.985 C 308.435 210.171,311.812 208.295,316.101 202.009 C 317.224 200.364,319.566 197.304,321.306 195.209 C 325.254 190.456,328.085 184.897,329.281 179.546 C 330.876 172.415,330.630 70.723,329.002 64.255 C 324.279 45.492,314.058 37.656,292.716 36.436 C 271.161 35.205,262.537 37.013,251.813 45.009 C 245.624 49.625,243.240 49.664,237.246 45.245 C 228.475 38.779,218.035 36.362,198.800 36.345 C 181.032 36.330,175.745 37.551,166.107 43.901 C 159.955 47.953,158.278 48.090,153.372 44.937 C 139.547 36.053,134.688 35.095,110.200 36.428 M132.066 55.246 C 141.866 57.323,145.190 64.708,146.002 86.200 C 146.754 106.104,149.330 110.800,159.495 110.800 C 169.127 110.800,171.525 105.630,171.583 84.742 C 171.631 67.326,174.135 60.986,182.671 56.665 C 186.935 54.505,209.313 53.586,214.988 55.337 C 226.229 58.805,230.279 68.270,231.189 93.200 C 231.773 109.195,232.941 110.800,243.999 110.800 C 256.330 110.800,256.783 110.053,257.200 89.000 C 257.534 72.175,257.485 72.470,261.145 65.345 C 263.947 59.891,267.020 56.863,271.024 55.611 C 276.399 53.931,294.645 54.085,299.800 55.854 C 306.465 58.142,310.291 67.758,311.211 84.536 C 311.429 88.531,311.787 93.562,312.004 95.716 C 312.696 102.564,312.520 166.254,311.799 169.744 C 309.705 179.882,305.789 184.755,298.000 186.916 C 293.356 188.205,291.127 188.476,282.600 188.789 C 270.200 189.245,267.236 190.526,265.941 195.991 C 265.288 198.743,265.529 276.969,266.199 279.857 C 267.850 286.979,270.303 289.055,280.000 291.540 C 296.186 295.686,302.791 300.649,305.387 310.613 C 308.040 320.798,301.254 331.049,289.200 335.067 C 286.490 335.970,127.599 336.461,121.400 335.586 C 105.308 333.313,95.067 319.373,100.604 307.280 C 104.270 299.272,110.704 295.234,125.532 291.636 C 131.081 290.289,133.567 289.039,134.993 286.878 C 137.305 283.376,137.316 283.276,137.623 263.600 C 137.857 248.541,138.032 244.710,138.640 241.400 C 139.297 237.825,139.370 235.197,139.328 216.663 C 139.262 187.794,140.264 189.407,122.000 188.796 C 104.906 188.225,96.900 185.107,93.472 177.687 L 92.600 175.800 92.480 123.800 C 92.354 69.439,92.372 68.792,94.075 65.453 C 95.830 62.013,101.626 56.987,105.212 55.796 C 109.316 54.433,126.563 54.080,132.066 55.246 " stroke="none" fill="#333" fill-rule="evenodd"></path></g></svg>