<?xml version="1.0" encoding="utf-8"?>
<!-- Generator: Adobe Illustrator 19.1.0, SVG Export Plug-In . SVG Version: 6.00 Build 0)  -->
<svg version="1.1" xmlns="http://www.w3.org/2000/svg" xmlns:xlink="http://www.w3.org/1999/xlink" x="0px" y="0px" width="14px"
	 height="14px" viewBox="0 0 48 48" enable-background="new 0 0 48 48" xml:space="preserve">
<rect x="0" y="0" width="48" height="48" fill="#ffffff" fill-opacity="0.9"/>
<g id="Bounding_Boxes">
	<path fill="none" d="M0,0h24v24H0V0z"/>
</g>
<g id="Outline_1_">
	<rect x="0" y="0" width="12" height="12" fill="#333333" fill-opacity="0.9"/>
	<rect x="12" y="0" width="12" height="12" fill="#eeeeee" fill-opacity="0.9"/>
	<rect x="24" y="0" width="12" height="12" fill="#333333" fill-opacity="0.9"/>
	<rect x="36" y="0" width="12" height="12" fill="#eeeeee" fill-opacity="0.9"/>

	<rect x="0" y="12" width="12" height="12" fill="#eeeeee" fill-opacity="0.9"/>
	<rect x="12" y="12" width="12" height="12" fill="#333333" fill-opacity="0.9"/>
	<rect x="24" y="12" width="12" height="12" fill="#eeeeee" fill-opacity="0.9"/>
	<rect x="36" y="12" width="12" height="12" fill="#333333" fill-opacity="0.9"/>

	<rect x="0" y="24" width="12" height="12" fill="#333333" fill-opacity="0.9"/>
	<rect x="12" y="24" width="12" height="12" fill="#eeeeee" fill-opacity="0.9"/>
	<rect x="24" y="24" width="12" height="12" fill="#333333" fill-opacity="0.9"/>
	<rect x="36" y="24" width="12" height="12" fill="#eeeeee" fill-opacity="0.9"/>

	<rect x="0" y="36" width="12" height="12" fill="#eeeeee" fill-opacity="0.9"/>
	<rect x="12" y="36" width="12" height="12" fill="#333333" fill-opacity="0.9"/>
	<rect x="24" y="36" width="12" height="12" fill="#eeeeee" fill-opacity="0.9"/>
	<rect x="36" y="36" width="12" height="12" fill="#333333" fill-opacity="0.9"/>
</g>
</svg>
