<svg fill="#fff" height="14" viewBox="0 0 24 24" width="14" xmlns="http://www.w3.org/2000/svg">
    <rect x="0" y="0" width="24" height="24" fill="#ff8877" fill-opacity="0.9"/>
	 <ellipse ry="3" rx="3" id="svg_2" cy="13" cx="12" stroke-width="2" stroke="#fff" fill="none"/>
    <path stroke="#fff" stroke-width="1" d="M22 5.72l-4.6-3.86-1.29 1.53 4.6 3.86L22 5.72zM7.88 3.39L6.6 1.86 2 5.71l1.29 1.53 4.59-3.85zM12.5 8H11v6l4.75 2.85.75-1.23-4-2.37V8zM12 4c-4.97 0-9 4.03-9 9s4.02 9 9 9c4.97 0 9-4.03 9-9s-4.03-9-9-9zm0 16c-3.87 0-7-3.13-7-7s3.13-7 7-7 7 3.13 7 7-3.13 7-7 7z"/>
</svg>