<svg width="14" height="14" xmlns="http://www.w3.org/2000/svg" xmlns:svg="http://www.w3.org/2000/svg">
 <title>Blank globe, focus on Africa</title>
 <g>
  <title>Layer 1</title>
  <!--ellipse ry="6.5" rx="6.5" id="svg_1" cy="7" cx="7" stroke-width="0" stroke="#000000" fill="#aaaaaa"/-->
  <rect id="svg_3" fill-opacity="0.9" fill="#aaaaaa" height="14" width="14" y="0" x="0"/>
  <path fill="#aaa" stroke="#aaa" id="svg_1" d="m13.06956,6.97944c0,3.33184 -2.70481,6.03299 -6.04135,6.03299s-6.04152,-2.70108 -6.04152,-6.03299l0,0c0,-3.33202 2.70491,-6.03316 6.04152,-6.03316s6.04135,2.70114 6.04135,6.03316z" stroke-width="0.75"/>
  <path id="svg_2" d="m6.88942,13.0337c-0.01767,-0.00479 -0.03281,-0.0203 -0.03388,-0.03386c-0.00094,-0.01386 -0.0022,-0.03481 -0.00297,-0.04678c-0.00189,-0.02926 -0.0836,-0.15826 -0.13721,-0.21678c-0.02708,-0.02925 -0.04876,-0.07422 -0.05764,-0.11917c-0.00801,-0.03973 -0.01879,-0.07232 -0.02392,-0.07232c-0.00504,0 -0.00913,-0.01356 -0.00913,-0.03021c0,-0.01684 -0.01109,-0.0442 -0.02459,-0.0616c-0.0134,-0.01683 -0.02108,-0.04092 -0.01683,-0.05328c0.00479,-0.01387 0.00077,-0.01753 -0.01042,-0.01003c-0.01322,0.00939 -0.01802,-0.00127 -0.01802,-0.03827c0,-0.03203 -0.02007,-0.08853 -0.05373,-0.15227c-0.05551,-0.10385 -0.07933,-0.23152 -0.05421,-0.2891c0.0064,-0.01443 0.01494,-0.05202 0.01921,-0.08354c0.0042,-0.0314 0.02332,-0.07818 0.04235,-0.10379c0.04134,-0.05498 0.04253,-0.07529 0.01025,-0.17384c-0.0135,-0.04124 -0.02145,-0.0891 -0.01758,-0.10712c0.00374,-0.01752 -0.01476,-0.11235 -0.04123,-0.20996c-0.03571,-0.13266 -0.06464,-0.20536 -0.11339,-0.28569c-0.05884,-0.09666 -0.11784,-0.24295 -0.11784,-0.29231c0,-0.01003 0.00794,-0.01879 0.01749,-0.01879c0.01186,0 0.01758,-0.02188 0.01784,-0.06803c0.00024,-0.03758 0.00801,-0.0865 0.01749,-0.10902c0.0304,-0.07264 0.01245,-0.22157 -0.0198,-0.16381c-0.00794,0.01456 -0.02117,0.02617 -0.02963,0.02617c-0.02145,0 -0.01878,-0.0616 0.00343,-0.07687c0.03371,-0.02339 -0.00829,-0.04849 -0.08248,-0.04905c-0.03844,-0.00033 -0.07575,-0.00768 -0.08292,-0.01602c-0.00717,-0.00883 -0.02689,-0.06463 -0.04354,-0.1246c-0.02665,-0.09527 -0.0363,-0.11116 -0.07447,-0.12409c-0.05859,-0.0198 -0.13046,-0.01955 -0.23578,0.00082c-0.08188,0.01601 -0.09111,0.01336 -0.14561,-0.03928c-0.04508,-0.04338 -0.0807,-0.05884 -0.15722,-0.06784c-0.11333,-0.01375 -0.12281,-0.02453 -0.22458,-0.25864c-0.0327,-0.07496 -0.08334,-0.17598 -0.11245,-0.22472c-0.03476,-0.0582 -0.04858,-0.09407 -0.04004,-0.10499c0.02085,-0.02617 0.00503,-0.14212 -0.02869,-0.21047c-0.017,-0.03449 -0.03756,-0.08033 -0.04561,-0.10188c-0.00812,-0.022 -0.02536,-0.06816 -0.03833,-0.10251c-0.01749,-0.04678 -0.02133,-0.07912 -0.01511,-0.12591c0.00468,-0.03481 0.00895,-0.11002 0.00924,-0.16779c0.00042,-0.06697 0.00734,-0.11608 0.01914,-0.13638c0.02453,-0.04187 0.04858,-0.14684 0.03372,-0.14684c-0.00623,0 -0.01137,-0.02831 -0.01137,-0.06311c0,-0.03449 0.00451,-0.0628 0.01007,-0.0628s0.00948,0.01651 0.00878,0.03664c-0.00315,0.08254 0.02007,0.05083 0.02434,-0.03337c0.00315,-0.06085 0.0006,-0.0867 -0.00759,-0.0773c-0.01553,0.01709 -0.01571,0.02169 0.00511,-0.15668c0.01417,-0.12183 0.02671,-0.16892 0.06705,-0.25329c0.02724,-0.05707 0.05865,-0.10882 0.06985,-0.11526c0.01126,-0.0065 0.02032,-0.02554 0.02032,-0.04281c0,-0.05574 0.03536,-0.12918 0.06796,-0.14085c0.01811,-0.00655 0.03903,-0.03493 0.04799,-0.06494c0.01238,-0.04156 0.02193,-0.05062 0.04301,-0.04124c0.01683,0.00788 0.02742,0.00327 0.02742,-0.01172c0,-0.01324 0.00651,-0.02232 0.01451,-0.0198c0.00801,0.00227 0.02246,-0.00184 0.03204,-0.00921c0.00955,-0.00725 0.03116,-0.02208 0.04781,-0.03311c0.0234,-0.01538 0.03204,-0.03877 0.03767,-0.1007c0.00983,-0.1116 0.07975,-0.23984 0.14866,-0.27276c0.06534,-0.03109 0.1141,-0.13991 0.10605,-0.2372c-0.0035,-0.04357 -0.01168,-0.06299 -0.02647,-0.06299c-0.01169,0 -0.02441,-0.00952 -0.02837,-0.02093c-0.00402,-0.01154 -0.01734,-0.02106 -0.02987,-0.02106c-0.02683,0 -0.02784,-0.01695 -0.00468,-0.07252c0.01096,-0.02604 0.0147,-0.06438 0.01042,-0.10531c-0.00528,-0.05126 0.00059,-0.08128 0.02885,-0.14534c0.03696,-0.08374 0.05901,-0.19193 0.05918,-0.28973c0.00007,-0.04893 0.00682,-0.06022 0.04781,-0.08021c0.03963,-0.01911 0.05113,-0.01753 0.06779,0.00972c0.01109,0.01804 0.02792,0.03278 0.03732,0.03278c0.00948,0 0.02228,0.00952 0.02861,0.02081c0.00623,0.01121 0.03749,0.03493 0.06925,0.05233c0.05551,0.03045 0.05876,0.03002 0.07789,-0.01141c0.01102,-0.02384 0.02348,-0.07592 0.0275,-0.11546c0.00878,-0.08404 -0.0029,-0.21873 -0.01896,-0.21873c-0.00605,0 -0.01109,-0.01312 -0.01109,-0.02938c0,-0.01613 -0.00787,-0.03462 -0.01749,-0.04143c-0.01018,-0.00706 -0.01742,-0.03846 -0.01742,-0.07559c0,-0.06004 0.00256,-0.06357 0.04561,-0.06357c0.02519,0 0.04858,0.01185 0.05236,0.02628c0.00367,0.01444 0.00343,0.0034 -0.00042,-0.02415c-0.00557,-0.03971 -0.00314,-0.04773 0.01102,-0.03789c0.00991,0.00693 0.02015,0.00126 0.02297,-0.01262c0.00332,-0.01721 0.01232,-0.01338 0.02861,0.01292c0.02256,0.036 0.02605,0.03619 0.06867,0.00246l0.04491,-0.03569l-0.04082,-0.01836c-0.02238,-0.01001 -0.08004,-0.02188 -0.12809,-0.02649c-0.04809,-0.00428 -0.09657,-0.00908 -0.10769,-0.01015c-0.03159,-0.0034 -0.024,-0.03738 0.01153,-0.05172c0.01767,-0.00706 0.04253,-0.02756 0.0554,-0.04539c0.01888,-0.02649 0.02015,-0.03588 0.00699,-0.05062c-0.02145,-0.0237 -0.0076,-0.08511 0.01931,-0.08511c0.01553,0 0.02109,-0.01557 0.02075,-0.05756c-0.00035,-0.05062 0.0036,-0.05694 0.03151,-0.05159c0.02836,0.00524 0.03186,-0.00077 0.03074,-0.05253c-0.00077,-0.03569 -0.00343,-0.0442 -0.00664,-0.02201c-0.00291,0.0203 -0.01333,0.03664 -0.02315,0.03664c-0.01102,0 -0.01536,-0.01185 -0.01137,-0.03109c0.00556,-0.02603 0.0029,-0.02692 -0.01623,-0.00536c-0.01256,0.01432 -0.02288,0.0456 -0.02288,0.06986c0,0.02416 -0.00913,0.05852 -0.02039,0.07617c-0.02358,0.03708 -0.1205,0.0671 -0.15438,0.04773c-0.03465,-0.01986 -0.03058,-0.11021 0.00633,-0.14067c0.01759,-0.01432 0.02714,-0.03588 0.02347,-0.05295c-0.00913,-0.04281 0.02869,-0.13575 0.04946,-0.12163c0.00948,0.00675 0.02697,-0.0034 0.03861,-0.02264c0.01232,-0.01999 0.03287,-0.03033 0.04911,-0.02478c0.01872,0.0065 0.03236,-0.0034 0.04134,-0.02895c0.00829,-0.02384 0.00889,-0.03847 0.0016,-0.03847c-0.02066,0 -0.01263,-0.04187 0.00871,-0.04433c0.01938,-0.00246 0.01938,-0.00289 0,-0.01199c-0.02741,-0.01292 -0.0257,-0.036 0.0071,-0.09986c0.02818,-0.05498 0.06565,-0.07189 0.06565,-0.02989c0,0.01665 0.00504,0.01613 0.01689,-0.00184c0.00931,-0.01387 0.02281,-0.01893 0.02987,-0.01091c0.00699,0.00789 0.02323,-0.00246 0.03571,-0.02295c0.01819,-0.0297 0.0257,-0.03184 0.03707,-0.0111c0.01144,0.02063 0.00641,0.03877 -0.02365,0.0876c-0.0327,0.05309 -0.03477,0.0616 -0.01459,0.0616c0.03091,0 0.03091,0.06544 0,0.11557c-0.02697,0.04401 -0.02392,0.11532 0.01298,0.29943c0.0253,0.127 0.02928,0.26936 0.0076,0.28311c-0.00801,0.00522 -0.01109,0.01614 -0.00693,0.02434c0.01298,0.02541 0.07436,-0.04476 0.10741,-0.12332c0.0286,-0.06759 0.03696,-0.07465 0.08856,-0.07465c0.06286,0 0.06481,-0.00447 0.07591,-0.16563c0.00871,-0.12498 0.01844,-0.15007 0.0708,-0.18241c0.03476,-0.02168 0.04686,-0.02219 0.0538,-0.00265c0.00521,0.01477 0.00906,-0.00308 0.00906,-0.04281c0.00024,-0.07529 -0.01641,-0.08714 -0.05285,-0.03727c-0.01245,0.01696 -0.03833,0.03109 -0.05764,0.03139c-0.0519,0.00095 -0.06771,-0.05865 -0.05771,-0.21689c0.01084,-0.16994 0.02913,-0.22857 0.08615,-0.27479c0.02613,-0.02125 0.04739,-0.04603 0.04739,-0.05498c0,-0.0092 0.01844,-0.02862 0.04099,-0.04313c0.0276,-0.01804 0.05456,-0.06216 0.08241,-0.13517c0.02288,-0.05958 0.05414,-0.12056 0.06967,-0.13531c0.01546,-0.01525 0.02605,-0.03109 0.0234,-0.03601c-0.00266,-0.00479 -0.01623,0.00246 -0.03014,0.01582s-0.02809,0.01942 -0.03151,0.01323c-0.00924,-0.01676 0.06642,-0.13683 0.11518,-0.18241c0.02358,-0.022 0.04603,-0.04956 0.05012,-0.06129c0.00402,-0.01185 0.0227,-0.02157 0.04159,-0.02157c0.01879,0 0.03423,-0.00757 0.03423,-0.01665c0,-0.02478 0.0695,-0.06248 0.11818,-0.06419c0.02973,-0.00107 0.0517,0.014 0.07337,0.05031c0.01707,0.0285 0.03861,0.05159 0.04781,0.05159c0.00931,0 0.01689,0.00952 0.01689,0.02106s0.01032,0.02093 0.02305,0.02093c0.04123,0 0.17233,0.10927 0.18582,0.15498c0.0076,0.0251 0.02585,0.0456 0.0427,0.04742c0.02714,0.00291 0.02792,0.00033 0.01115,-0.03311c-0.00997,-0.01999 -0.01819,-0.05202 -0.01819,-0.07125c0,-0.01942 -0.00539,-0.03524 -0.01172,-0.03524c-0.0064,0 -0.01168,-0.01507 -0.01168,-0.03373c0,-0.02603 0.00871,-0.03172 0.03791,-0.02403c0.02075,0.0051 0.04698,0.01646 0.05806,0.02523c0.01494,0.01172 0.03116,-0.0065 0.06286,-0.06973c0.02756,-0.05554 0.05642,-0.09036 0.08171,-0.09898c0.07474,-0.02509 0.03102,-0.11363 -0.04834,-0.0976c-0.03115,0.0063 -0.06132,-0.00202 -0.08461,-0.02384c-0.03068,-0.0285 -0.03732,-0.04893 -0.04319,-0.13348c-0.00385,-0.05479 -0.01001,-0.12333 -0.0136,-0.15208c-0.01417,-0.11532 -0.00776,-0.1741 0.0235,-0.21508c0.01679,-0.02219 0.03074,-0.05435 0.03074,-0.07157c0,-0.0186 0.00826,-0.02831 0.02032,-0.02384c0.01595,0.00568 0.01938,0.0234 0.01588,0.08033c-0.00255,0.04004 -0.00511,0.14206 -0.00557,0.22705c-0.0009,0.13606 0.00207,0.15902 0.0253,0.19288c0.03465,0.05051 0.13614,0.0848 0.19454,0.06569l0.04663,-0.01538l-0.03212,-0.0502c-0.01758,-0.02786 -0.03193,-0.0693 -0.03193,-0.09237s-0.00734,-0.05662 -0.01623,-0.07496c-0.00895,-0.01816 -0.01997,-0.06513 -0.02459,-0.10422c-0.00801,-0.06823 -0.00717,-0.07037 0.02127,-0.05756c0.02578,0.01154 0.03005,0.00599 0.03329,-0.04401l0.00363,-0.05756l0.02612,0.05095c0.02127,0.0411 0.02623,0.0442 0.02623,0.01538c0,-0.01942 -0.00574,-0.03545 -0.01291,-0.03545c-0.00759,0 -0.01076,-0.02187 -0.00741,-0.05252c0.00297,-0.02882 0.00143,-0.05253 -0.00354,-0.05253c-0.00504,0 -0.01239,-0.04005 -0.01648,-0.08916c-0.01497,-0.17762 -0.01949,-0.20026 -0.04183,-0.21092c-0.03193,-0.01507 -0.02904,-0.0773 0.00361,-0.07818c0.02546,-0.00075 0.02549,-0.00139 0.0028,-0.02434c-0.01269,-0.01312 -0.02714,-0.03417 -0.03175,-0.04666c-0.00588,-0.01583 -0.00861,-0.01602 -0.00878,-0.00044c-0.00017,0.01231 -0.03375,0.03449 -0.07465,0.04913c-0.0785,0.0282 -0.10367,0.01848 -0.13606,-0.05277c-0.01528,-0.03322 -0.0134,-0.03513 0.02323,-0.02219c0.02761,0.01001 0.04834,0.00417 0.06807,-0.01911c0.0169,-0.01999 0.03945,-0.0285 0.05634,-0.02081c0.01665,0.00757 0.02801,0.0034 0.02801,-0.00984c0,-0.01495 0.01749,-0.01804 0.05072,-0.00908c0.04035,0.01078 0.05215,0.00693 0.05789,-0.01954c0.00878,-0.04156 0.04343,-0.0423 0.11546,-0.00289c0.05369,0.02957 0.05533,0.02906 0.05533,-0.01368c0,-0.02415 0.00913,-0.05617 0.02039,-0.07174c0.01854,-0.02541 0.01759,-0.02799 -0.01096,-0.02862c-0.03722,-0.00075 -0.04561,-0.01924 -0.03663,-0.08115c0.00534,-0.03676 0.01553,-0.04591 0.0547,-0.04709c0.02647,-0.00107 0.04159,-0.0065 0.03364,-0.01231c-0.00807,-0.00586 -0.01459,-0.02358 -0.01459,-0.03971c0,-0.07574 -0.11955,-0.13576 -0.16012,-0.08051c-0.04123,0.05637 -0.11938,0.02093 -0.11938,-0.05415c0,-0.02219 -0.00518,-0.04591 -0.01162,-0.05295c-0.02092,-0.02328 -0.01232,-0.07345 0.0128,-0.07345c0.01461,0 0.02683,0.01677 0.03049,0.04187c0.00332,0.02296 0.01162,0.04206 0.01833,0.04206c0.00675,0 0.02179,0.01571 0.03329,0.03449c0.01965,0.03184 0.02169,0.03184 0.02843,0c0.00398,-0.01878 0.01459,-0.03449 0.02357,-0.03449c0.01929,0 0.02141,-0.03355 0.0036,-0.05359c-0.00699,-0.00768 -0.01007,-0.03152 -0.00699,-0.05277c0.00398,-0.02768 -0.00581,-0.05095 -0.03399,-0.08097c-0.0398,-0.0423 -0.05201,-0.08449 -0.02504,-0.08639c0.02374,-0.0017 -0.0865,-0.09742 -0.13088,-0.11406c-0.02249,-0.00832 -0.09846,-0.06527 -0.1689,-0.12655c-0.07055,-0.06128 -0.13997,-0.11759 -0.15438,-0.12528c-0.02948,-0.01557 -0.03553,-0.05295 -0.00882,-0.05295c0.00955,0 0.01752,-0.00952 0.01752,-0.02095c0,-0.01154 0.00787,-0.02093 0.01742,-0.02093c0.00961,0 0.01743,0.00939 0.01743,0.02093c0,0.01142 0.01441,0.02106 0.03211,0.02106c0.01749,0.00013 0.0477,0.01507 0.06694,0.03342c0.04698,0.0445 0.15718,0.06569 0.15718,0.0302c0,-0.01646 0.00769,-0.02093 0.02042,-0.01198c0.01115,0.00768 0.08062,0.03708 0.15428,0.06558c0.07359,0.02818 0.14441,0.06021 0.15722,0.07093c0.05729,0.04849 0.11529,0.08448 0.13595,0.08448c0.01239,0 0.03798,0.01444 0.05676,0.03202c0.03091,0.02882 0.03432,0.02882 0.03432,0c0,-0.01753 0.00539,-0.03202 0.01178,-0.03202c0.00633,0 0.01161,0.01432 0.01161,0.03139c0,0.01722 0.00917,0.03153 0.02051,0.03153c0.01137,0 0.04929,0.01973 0.08447,0.04388c0.03509,0.02403 0.08248,0.05082 0.10528,0.0594c0.04662,0.01721 0.16236,0.12498 0.16236,0.15134c0,0.02384 -0.13271,-0.02925 -0.23867,-0.09558c-0.0128,-0.00814 -0.00363,0.00706 0.02026,0.03374s0.04362,0.06045 0.04362,0.07495c0.00011,0.01432 0.00557,0.02617 0.01206,0.02617s0.03417,0.03652 0.06113,0.08146c0.02704,0.04496 0.10424,0.14068 0.17152,0.21261c0.0673,0.07206 0.13869,0.15902 0.15883,0.19318c0.02305,0.03928 0.03945,0.05371 0.04435,0.03941c0.01133,-0.03311 -0.00308,-0.06494 -0.02305,-0.05113c-0.01617,0.0111 -0.01888,0.0034 -0.02169,-0.06098c-0.00064,-0.01444 -0.00917,-0.03727 -0.01861,-0.05062c-0.03494,-0.04912 -0.00077,-0.0502 0.07736,-0.00308c0.08136,0.04924 0.10546,0.07882 0.08402,0.10251c-0.0071,0.00814 -0.00402,0.01893 0.00752,0.0271c0.01076,0.00738 0.02448,0.00788 0.03057,0.00107c0.00616,-0.00693 0.01833,-0.00169 0.02732,0.01154c0.00895,0.01354 0.03235,0.02509 0.05208,0.02604c0.02603,0.00152 0.03501,0.0111 0.03281,0.03555c-0.00189,0.02188 0.0057,0.03373 0.02228,0.03417c0.03021,0.00075 0.14362,0.16702 0.14362,0.21041c0,0.04263 -0.01615,0.0374 -0.04183,-0.01368c-0.01214,-0.02416 -0.03252,-0.05295 -0.04543,-0.06407c-0.02756,-0.0237 0.04023,0.08929 0.14211,0.23658c0.04173,0.06035 0.08726,0.1507 0.10752,0.21368c0.03645,0.11224 0.17673,0.3833 0.24641,0.47599l0.03938,0.05253l-0.04372,-0.10776c-0.04554,-0.11235 -0.05064,-0.1336 -0.03281,-0.1336c0.01536,0 0.21559,0.48057 0.20672,0.49628c-0.00409,0.00725 -0.01536,0.00126 -0.02512,-0.01336c-0.02483,-0.03727 -0.02204,-0.01582 0.00557,0.04156c0.02295,0.04804 0.02995,0.08391 0.01623,0.08391c-0.00391,0 -0.0341,-0.05189 -0.06712,-0.11533c-0.03305,-0.06325 -0.06488,-0.11532 -0.07065,-0.11532c-0.00581,0 -0.02093,-0.01646 -0.03355,-0.03664c-0.02262,-0.03619 -0.02262,-0.03601 -0.00354,0.03142c0.01263,0.0442 0.0147,0.06803 0.00616,0.06803c-0.00724,0 -0.01007,0.01495 -0.00633,0.03266c0.00455,0.02125 0.00231,0.02756 -0.00623,0.01772c-0.02682,-0.02957 0.00308,0.03248 0.0356,0.07403l0.03294,0.04249l-0.00399,-0.06247c-0.00644,-0.10008 0.01571,-0.07232 0.05498,0.06897c0.0468,0.16841 0.05796,0.19364 0.06957,0.15966c0.00626,-0.01804 0.0264,0.00845 0.06516,0.08557c0.0632,0.12528 0.0936,0.20688 0.14567,0.38948c0.0198,0.06911 0.04698,0.14641 0.0605,0.17132c0.04099,0.07529 0.05443,0.10959 0.07192,0.18532c0.02222,0.09528 0.02186,0.14451 -0.00102,0.1287c-0.01368,-0.00952 -0.01536,-0.00396 -0.00689,0.02403c0.01536,0.0522 0.05967,0.44138 0.05967,0.52429c0,0.03866 0.01137,0.1145 0.02529,0.16872c0.0283,0.11054 0.04348,0.31866 0.02323,0.31866c-0.00689,0 -0.01844,-0.04005 -0.02546,-0.08916c-0.02092,-0.1459 -0.02495,-0.16627 -0.03056,-0.1558c-0.00297,0.00535 0.00218,0.0831 0.01172,0.1732c0.01571,0.14963 0.02141,0.17074 0.06831,0.24894c0.06576,0.10946 0.08572,0.23739 0.09615,0.61514c0.00665,0.24413 0.00545,0.27801 -0.01069,0.27801c-0.00997,0 -0.01825,-0.01418 -0.01825,-0.03139c0,-0.01741 -0.00787,-0.03153 -0.01731,-0.03153c-0.00955,0 -0.01743,-0.01418 -0.01743,-0.03127c0,-0.04709 -0.0206,-0.03802 -0.02955,0.01281c-0.00955,0.05435 0.00427,0.27049 0.01724,0.27049c0.00528,0 0.01287,0.04035 0.01696,0.08942c0.00539,0.06325 0.01487,0.0959 0.03228,0.11021c0.0517,0.04281 0.07837,0.4292 0.05152,0.74402c-0.00941,0.10927 -0.0227,0.20209 -0.02955,0.20638c-0.00682,0.00391 -0.01245,0.02094 -0.01245,0.03695c0,0.01653 -0.00527,0.02989 -0.01172,0.02989c-0.0064,0 -0.01162,-0.01431 -0.01162,-0.03171c0,-0.03971 -0.04806,-0.22813 -0.06061,-0.23771c-0.01528,-0.01154 -0.01049,-0.04956 0.00948,-0.07585c0.01657,-0.02188 0.01528,-0.02882 -0.01173,-0.06052c-0.03861,-0.0457 -0.03918,-0.11759 -0.00171,-0.18103c0.02416,-0.04093 0.03177,-0.04433 0.0469,-0.02188c0.00997,0.01495 0.02133,0.02127 0.02546,0.01388c0.01179,-0.02137 -0.03246,-0.28633 -0.04781,-0.28633c-0.00801,0 -0.02262,-0.06967 -0.03417,-0.16255c-0.03477,-0.2809 -0.04467,-0.34805 -0.06968,-0.47731l-0.02458,-0.12591l-0.01197,0.11375c-0.01153,0.1082 -0.03578,0.1633 -0.04554,0.10315c-0.00245,-0.01538 -0.0106,-0.06823 -0.01795,-0.11716c-0.00741,-0.04912 -0.01784,-0.08916 -0.02312,-0.08916c-0.00546,0 -0.02983,-0.0331 -0.05432,-0.07345c-0.02442,-0.04068 -0.0474,-0.07345 -0.05089,-0.07315c-0.01231,0.00064 -0.08215,0.29818 -0.08215,0.34957c0,0.0282 -0.00735,0.09546 -0.01622,0.14976c-0.01931,0.11747 -0.04418,0.37239 -0.04299,0.44118c0.00046,0.02699 -0.01179,0.09622 -0.02714,0.15423c-0.02585,0.09749 -0.02684,0.11072 -0.01134,0.17694c0.00906,0.03954 0.01714,0.11639 0.01777,0.171c0.00143,0.11853 0.01795,0.22926 0.03764,0.25119c0.02913,0.03235 0.06551,0.15024 0.06551,0.21229c0,0.07976 -0.02077,0.1645 -0.04435,0.18071c-0.02374,0.01645 -0.03518,-0.02047 -0.04445,-0.14243c-0.00836,-0.1113 -0.02323,-0.10743 -0.04456,0.01172c-0.00941,0.05202 -0.01888,0.06836 -0.0404,0.06836c-0.02229,0 -0.03501,-0.02384 -0.06121,-0.11545c-0.01822,-0.06324 -0.03826,-0.11853 -0.04473,-0.1222c-0.00651,-0.00396 -0.02459,-0.05587 -0.04028,-0.11546c-0.01571,-0.05952 -0.04134,-0.13266 -0.0567,-0.16236c-0.01536,-0.02957 -0.03151,-0.07452 -0.03602,-0.09962c-0.00444,-0.02505 -0.0134,-0.0457 -0.02007,-0.0457c-0.00662,0 -0.00937,-0.01292 -0.00594,-0.02895s-0.00644,-0.06269 -0.02207,-0.10379c-0.01549,-0.0411 -0.02809,-0.08424 -0.02809,-0.09576c0,-0.01174 -0.01906,-0.01665 -0.04407,-0.01129c-0.02955,0.0065 -0.05883,-0.00409 -0.08965,-0.03266c-0.0253,-0.0232 -0.05279,-0.0423 -0.06097,-0.0423s-0.01505,-0.01343 -0.01505,-0.02976c0,-0.01646 -0.01606,-0.03613 -0.03571,-0.04383c-0.01965,-0.00788 -0.03851,-0.02769 -0.042,-0.0442c-0.00361,-0.01646 -0.01689,-0.04035 -0.02973,-0.05246c-0.01833,-0.01753 -0.03005,-0.01405 -0.05397,0.01734c-0.01679,0.02188 -0.04907,0.05328 -0.07139,0.0693c-0.02246,0.01651 -0.05096,0.04646 -0.06352,0.06759c-0.01263,0.02073 -0.02827,0.03417 -0.03491,0.02989c-0.00675,-0.00417 -0.03578,0.00473 -0.0645,0.0203c-0.06523,0.03543 -0.13071,0.03664 -0.14911,0.00353c-0.0205,-0.03676 -0.0185,0.03266 0.00308,0.10764c0.01965,0.06867 0.04372,0.09036 0.08089,0.07358c0.01612,-0.00739 0.04295,0.00599 0.07002,0.03481c0.0409,0.04327 0.04337,0.05151 0.03644,0.12194c-0.00398,0.04155 -0.01025,0.11084 -0.01388,0.15423c-0.00402,0.04772 -0.01298,0.07864 -0.02288,0.07864c-0.01096,0 -0.01634,0.02553 -0.01634,0.07899c0,0.05605 -0.00658,0.08632 -0.02323,0.1051c-0.0128,0.01437 -0.0234,0.04591 -0.0234,0.06973c0,0.02649 -0.00941,0.04836 -0.02382,0.05512c-0.01445,0.00675 -0.02647,0.03449 -0.0304,0.06968c-0.00402,0.03652 -0.01599,0.0628 -0.03135,0.07005c-0.03875,0.01784 -0.11032,0.13435 -0.11441,0.18639c-0.00227,0.02914 -0.02578,0.07283 -0.06191,0.11546c-0.03204,0.03789 -0.07068,0.08947 -0.08572,0.1147c-0.03483,0.05801 -0.14278,0.1838 -0.15782,0.1838c-0.00633,0 -0.02561,0.02447 -0.04299,0.05448c-0.0192,0.03337 -0.04634,0.05574 -0.06957,0.0577c-0.03417,0.00297 -0.04082,-0.0065 -0.0645,-0.09112c-0.03294,-0.11822 -0.04141,-0.16235 -0.04543,-0.23934c-0.0022,-0.04269 -0.02108,-0.09054 -0.06191,-0.15751c-0.03228,-0.05309 -0.06167,-0.11576 -0.06541,-0.13991c-0.00367,-0.02403 -0.02374,-0.05681 -0.04442,-0.07345c-0.02931,-0.0232 -0.04134,-0.05095 -0.05373,-0.12422c-0.02684,-0.15845 -0.05037,-0.23121 -0.07957,-0.24434c-0.01511,-0.00706 -0.03536,-0.03971 -0.04491,-0.07308c-0.00962,-0.03322 -0.02187,-0.06052 -0.02739,-0.06052c-0.00545,0 -0.01325,-0.02127 -0.01718,-0.0471c-0.01245,-0.08065 -0.08111,-0.20846 -0.10367,-0.19288c-0.01096,0.0075 -0.01987,0.02799 -0.01987,0.0456c0,0.04035 0.06037,0.23152 0.09289,0.29432c0.01357,0.02598 0.02175,0.05587 0.01819,0.06633c-0.00853,0.02497 0.0049,0.08557 0.01906,0.08557c0.0327,0 0.07471,0.12806 0.08589,0.2623c0.00616,0.0747 0.01511,0.1024 0.04167,0.13071c0.01861,0.0198 0.04526,0.07882 0.05901,0.13095c0.01385,0.05202 0.03085,0.10188 0.03773,0.11022c0.00836,0.01046 0.00787,0.01557 -0.00189,0.0157c-0.00776,0.00018 -0.01109,0.01461 -0.00741,0.0319c0.00889,0.04136 0.0275,0.04035 0.0275,-0.00151c0,-0.02208 0.00854,-0.03078 0.02612,-0.02617c0.01724,0.00428 0.0262,0.02106 0.0262,0.04875c0,0.02585 0.01879,0.06449 0.04928,0.10144c0.07377,0.08864 0.11476,0.16469 0.12364,0.22845c0.0127,0.09299 0.04609,0.11034 0.11003,0.0582c0.03014,-0.02464 0.06262,-0.05378 0.07216,-0.06438c0.00955,-0.01078 0.02536,-0.02539 0.03483,-0.03235c0.07572,-0.05435 0.14728,-0.12212 0.15498,-0.14673c0.00511,-0.01613 0.01958,-0.02938 0.03204,-0.02938c0.01696,0 0.0227,0.01444 0.0227,0.05865c0,0.03235 0.00651,0.0708 0.01451,0.08531c0.01169,0.02125 0.01067,0.03045 -0.00539,0.04678c-0.01095,0.0111 -0.01707,0.03323 -0.01368,0.04925c0.00336,0.01589 -0.00534,0.06917 -0.01938,0.11872c-0.01392,0.04924 -0.03809,0.15007 -0.05337,0.22416c-0.0439,0.2101 -0.10024,0.34894 -0.25299,0.62295c-0.21108,0.3792 -0.32221,0.61974 -0.28625,0.61974c0.01819,0 0.01231,0.08033 -0.00644,0.08777c-0.01522,0.00586 -0.01536,0.01388 -0.00102,0.06343c0.01871,0.06463 0.01795,0.10347 -0.00297,0.14899c-0.01965,0.04249 -0.00572,0.13394 0.02228,0.14684c0.01998,0.00952 0.02213,0.02976 0.02051,0.1961l-0.00189,0.18563l-0.04799,0.08374c-0.02722,0.04773 -0.07412,0.10068 -0.10811,0.1225c-0.03313,0.02093 -0.06666,0.05233 -0.07463,0.06948c-0.00801,0.01721 -0.03465,0.04988 -0.0595,0.07262c-0.04953,0.0459 -0.06468,0.08878 -0.04554,0.1302c0.01479,0.03235 0.00471,0.17301 -0.01434,0.20025c-0.00717,0.01003 -0.03987,0.03418 -0.07258,0.05328c-0.05006,0.02958 -0.06275,0.04805 -0.07958,0.11482c-0.01997,0.08009 -0.02382,0.08532 -0.18485,0.23859c-0.09864,0.09407 -0.16355,0.11671 -0.36302,0.12704c-0.10262,0.00517 -0.20091,0.00536 -0.21849,0.00013l0.00007,0.00014l0.00001,-0.00017l0.00002,-0.00003l0.00009,-0.00005zm0.91346,-1.43118c-0.00966,-0.04401 -0.02305,0.07591 -0.01504,0.13455c0.00451,0.03235 0.0077,0.02585 0.01406,-0.02958c0.00458,-0.03941 0.00497,-0.08663 0.00099,-0.10497l-0.00001,0zm-0.24672,-0.29313c0,-0.01016 -0.01084,-0.0237 -0.024,-0.02989c-0.01965,-0.0092 -0.02145,-0.00586 -0.01018,0.01848c0.01538,0.03347 0.03417,0.03972 0.03417,0.01141l0.00001,0zm0.16789,-0.48488c0.02386,0 0.05687,-0.07912 0.04882,-0.11695c-0.00545,-0.02585 -0.01536,-0.03058 -0.03918,-0.01999c-0.01752,0.00768 -0.03375,0.02296 -0.03571,0.03354c-0.0022,0.01078 -0.01078,0.01942 -0.01923,0.01942c-0.00826,0 -0.01731,0.0282 -0.02004,0.06237c-0.0042,0.05 -0.00063,0.06293 0.01902,0.06803c0.01326,0.0034 0.02578,-0.00556 0.02785,-0.01999c0.00203,-0.01456 0.01045,-0.02643 0.01847,-0.02643l0.00001,0l-0.00001,0zm2.82445,-2.79828c-0.01109,-0.01848 -0.01273,-0.01507 -0.00682,0.01464c0.0041,0.02106 0.00818,0.05429 0.00906,0.07339c0.00101,0.01929 0.00398,0.0126 0.00682,-0.01458c0.0029,-0.0273 -0.00129,-0.06034 -0.00906,-0.07345l0,0.00001l0,-0.00001zm-0.01102,-0.0659c0,-0.04016 -0.00724,-0.04016 -0.01577,0c-0.00374,0.01741 -0.00182,0.0316 0.00452,0.0316c0.00623,0 0.01126,-0.01418 0.01126,-0.0316l-0.00001,0zm-1.81657,-0.15454c0.00017,-0.02957 0.00182,-0.03002 0.01109,-0.00308c0.01461,0.04156 0.0257,0.01929 0.06985,-0.14131c0.0198,-0.07232 0.04117,-0.13113 0.04732,-0.13113s0.0112,-0.01172 0.01096,-0.02617c-0.00024,-0.01456 -0.01357,0.00094 -0.02987,0.03417c-0.03716,0.07592 -0.11119,0.09717 -0.16506,0.04698c-0.01989,-0.01847 -0.04425,-0.02799 -0.05408,-0.02125c-0.01742,0.01185 -0.10007,-0.1222 -0.10007,-0.16242c0,-0.00998 -0.00553,-0.01816 -0.01239,-0.01816s-0.00906,-0.00934 -0.0051,-0.02093c0.00392,-0.01154 0.0016,-0.02093 -0.00521,-0.02093c-0.00671,0 -0.01245,0.02111 -0.01252,0.04709c-0.00017,0.03814 -0.00231,0.04125 -0.01144,0.01571c-0.00972,-0.0271 -0.01137,-0.02679 -0.01153,0.00361c-0.00007,0.01924 -0.00664,0.04016 -0.0147,0.04647c-0.00997,0.0077 -0.00633,0.02232 0.01173,0.04616c0.01434,0.01911 0.02612,0.04755 0.02612,0.06311c0,0.01583 0.00735,0.02306 0.01665,0.01665c0.00983,-0.00693 0.02495,0.01231 0.03767,0.04786c0.01161,0.03266 0.02893,0.07195 0.03865,0.08734c0.00966,0.0152 0.01197,0.02276 0.00506,0.01646c-0.00692,-0.00599 -0.01273,0.00113 -0.01273,0.01621c0,0.01474 0.00752,0.02692 0.01651,0.02692c0.01109,0 0.01476,-0.01646 0.01133,-0.04938c-0.00451,-0.04238 -0.00171,-0.0474 0.01941,-0.03588c0.03148,0.01721 0.02944,0.01292 0.04156,0.08834c0.0071,0.04496 0.00598,0.06772 -0.00332,0.07496c-0.00955,0.00706 -0.00882,0.01601 0.0029,0.03058c0.02112,0.02598 0.07086,-0.0285 0.07122,-0.07793l-0.00001,0l-0.00001,-0.00001l0.00001,-0.00004zm-1.78197,-0.31753c0.00511,-0.08222 0.01096,-0.09899 0.04655,-0.13103c0.05285,-0.04742 0.0993,-0.04659 0.12648,0.00246c0.01197,0.02157 0.042,0.04604 0.06706,0.05436c0.02483,0.00845 0.05043,0.02277 0.05687,0.03184c0.0064,0.0092 0.02994,0.02188 0.05243,0.0285c0.02237,0.0065 0.06702,0.02063 0.09894,0.03152c0.04981,0.01665 0.06296,0.01387 0.08943,-0.02012c0.03246,-0.04174 0.09069,-0.05172 0.16156,-0.0285c0.05361,0.01771 0.06079,0.00064 0.09154,-0.22208c0.0303,-0.21949 0.02288,-0.34036 -0.02169,-0.35177c-0.01588,-0.00397 -0.03159,0.00629 -0.03738,0.02467c-0.01505,0.04819 -0.0773,0.06601 -0.10087,0.02895c-0.03091,-0.04893 -0.07192,-0.06544 -0.07192,-0.02907c0,0.06034 -0.06113,0.07484 -0.09087,0.02136c-0.01795,-0.03235 -0.0198,-0.03139 -0.02567,0.01418c-0.00643,0.04974 -0.03483,0.08481 -0.03483,0.04327c0,-0.01261 -0.01087,-0.04249 -0.02416,-0.06633c-0.01322,-0.02384 -0.02109,-0.05756 -0.01749,-0.07496c0.00497,-0.02327 0.00084,-0.02787 -0.01658,-0.01771c-0.01657,0.00952 -0.02315,0.00353 -0.02315,-0.02094c0,-0.0186 0.00521,-0.02831 0.01162,-0.02124c0.00633,0.00706 0.01162,0.00308 0.01162,-0.00921s-0.00801,-0.02232 -0.01802,-0.02232c-0.01399,0 -0.01734,-0.02106 -0.01532,-0.09407c0.00154,-0.05172 -0.00084,-0.1005 -0.00528,-0.1084c-0.00451,-0.00814 -0.00808,-0.0034 -0.00808,0.01002s-0.00787,0.02433 -0.01734,0.02433c-0.00955,0 -0.01742,-0.014 -0.01742,-0.03139c0,-0.01709 0.00521,-0.0314 0.01162,-0.0314c0.00643,0 0.01162,-0.01571 0.01162,-0.03481c0,-0.02769 -0.00444,-0.02509 -0.02288,0.01312c-0.0128,0.02617 -0.03934,0.05373 -0.05936,0.06109l-0.0363,0.01336l0.03022,0.05865c0.01707,0.03323 0.03602,0.0522 0.04365,0.04388c0.00734,-0.00832 0.01032,-0.00599 0.00658,0.00479s0.01434,0.06098 0.04013,0.11147c0.04022,0.07838 0.04425,0.0942 0.02801,0.11054c-0.01042,0.01033 -0.01588,0.02786 -0.01221,0.03866c0.00374,0.01079 0.00189,0.01974 -0.00427,0.01974s-0.01417,-0.014 -0.01778,-0.03109c-0.00374,-0.01771 -0.01434,-0.02572 -0.02452,-0.0186c-0.0127,0.00877 -0.01793,-0.00075 -0.01793,-0.03248c0,-0.05384 -0.03313,-0.08266 -0.04756,-0.04143c-0.00557,0.01613 -0.01032,0.05523 -0.01049,0.08696c0,0.03172 -0.00539,0.05756 -0.01179,0.05756c-0.00633,0 -0.01162,-0.00738 -0.01162,-0.01646c0,-0.00895 -0.01571,-0.0271 -0.03483,-0.04004c-0.02357,-0.01601 -0.03501,-0.03814 -0.03501,-0.0676c0,-0.02416 -0.00752,-0.04388 -0.01676,-0.04388c-0.02425,0 -0.03543,-0.04358 -0.01676,-0.06494c0.01168,-0.01312 0.01214,-0.01835 0.00154,-0.01848c-0.00801,-0.00013 -0.01451,-0.01878 -0.01451,-0.0411c0,-0.02246 -0.00539,-0.04666 -0.01186,-0.05384c-0.02204,-0.02464 -0.04568,-0.15838 -0.03886,-0.22c0.00545,-0.04836 0.00024,-0.07176 -0.02483,-0.11362c-0.01725,-0.02894 -0.04935,-0.06325 -0.07115,-0.07636c-0.0218,-0.01279 -0.03962,-0.03353 -0.03962,-0.0457c0,-0.01199 -0.01179,-0.04263 -0.02613,-0.06823c-0.0433,-0.07572 -0.06712,-0.13576 -0.06712,-0.16885c0,-0.04773 -0.02281,-0.03694 -0.03417,0.01613c-0.00776,0.03651 -0.00374,0.05927 0.01795,0.10082c0.01528,0.02957 0.02784,0.06848 0.02784,0.08639c0,0.05062 0.04561,0.14331 0.0708,0.14331c0.01231,0 0.02238,0.01249 0.02238,0.02743c0,0.01525 0.02374,0.05745 0.0525,0.0942c0.05313,0.06759 0.06061,0.09515 0.04106,0.15101c-0.00924,0.02649 -0.0147,0.02384 -0.03542,-0.01632c-0.0135,-0.02605 -0.02987,-0.04143 -0.03645,-0.03406c-0.00812,0.00896 -0.00787,0.02063 0.0007,0.03601c0.00693,0.01261 0.01274,0.03898 0.01274,0.05851c0,0.04956 -0.05894,0.16595 -0.08413,0.16595c-0.01528,0 -0.02066,0.01646 -0.02066,0.06299c0,0.06973 -0.02193,0.08329 -0.05072,0.0314c-0.00966,-0.0174 -0.02103,-0.0314 -0.0253,-0.0314c-0.01778,0 -0.0754,-0.08897 -0.0754,-0.11652c0,-0.03727 0.05586,-0.06407 0.07208,-0.03481c0.01459,0.02617 0.09307,0.00757 0.10563,-0.02509c0.0141,-0.03652 -0.00154,-0.11695 -0.03218,-0.16639c-0.0631,-0.10144 -0.08957,-0.13991 -0.09692,-0.14042c-0.00437,-0.00031 -0.02323,-0.03802 -0.042,-0.08392c-0.01878,-0.04602 -0.04106,-0.08343 -0.04946,-0.08343s-0.01528,-0.00952 -0.01528,-0.02105s0.00557,-0.02095 0.01256,-0.02095c0.01689,0 0.00059,-0.08802 -0.02187,-0.11759c-0.0134,-0.01753 -0.02665,-0.01538 -0.05361,0.00878c-0.06867,0.06141 -0.07654,0.06696 -0.09223,0.06696c-0.00871,0 -0.03252,-0.01507 -0.05303,-0.03342c-0.0455,-0.04092 -0.07115,-0.02629 -0.07115,0.0408c0,0.06046 -0.01399,0.08279 -0.07566,0.12112c-0.06138,0.03802 -0.12465,0.14023 -0.11623,0.18752c0.00693,0.03941 -0.05907,0.17471 -0.07601,0.15593c-0.00539,-0.00599 -0.01758,0.0034 -0.02733,0.02093c-0.02008,0.03619 -0.05166,0.04036 -0.093,0.01185c-0.03844,-0.02629 -0.07771,-0.0051 -0.07771,0.04206c0,0.04666 0.01126,0.06046 0.05432,0.06633c0.01819,0.00246 0.03952,0.01582 0.04746,0.02957c0.00955,0.01695 0.02495,0.01924 0.04655,0.00726c0.12732,-0.07093 0.15567,-0.07326 0.37572,-0.02831c0.03509,0.00726 0.09181,0.01215 0.12571,0.01091c0.04312,-0.00152 0.06352,0.00675 0.06789,0.02742c0.0035,0.01646 0.01375,0.02466 0.02288,0.01835c0.01102,-0.0077 0.01648,0.00322 0.01648,0.03342c0,0.02467 -0.0077,0.05001 -0.01701,0.05638c-0.01333,0.00952 -0.01417,0.02137 -0.00402,0.05712c0.03432,0.12025 0.03476,0.12422 0.01914,0.14224c-0.00864,0.00984 -0.02416,0.01784 -0.03465,0.01816c-0.01049,0 -0.02228,0.01507 -0.02623,0.03291c-0.00391,0.01878 -0.00196,0.0271 0.00479,0.01942c0.00633,-0.00706 0.0292,0.02093 0.05072,0.06205c0.02169,0.04136 0.05047,0.07484 0.06457,0.07484c0.04645,0 0.1291,0.0814 0.1291,0.127c0,0.02649 0.01186,0.05006 0.03194,0.06405c0.01767,0.01217 0.05568,0.04401 0.08447,0.07069c0.07254,0.06766 0.0857,0.0606 0.09269,-0.05175l-0.00007,-0.00007l0.00002,0.00001l-0.00004,0.00002l0,0.00002zm0.22932,-0.39288c-0.01848,-0.00492 -0.03068,-0.01974 -0.02812,-0.03355c0.00521,-0.02831 0.00693,-0.0285 0.08121,-0.00567c0.10272,0.03198 0.05351,0.06835 -0.05309,0.03923l0,-0.00001zm0.41111,-0.00706c0,-0.03032 0.0305,-0.0836 0.03903,-0.06823c0.00374,0.00675 0.02004,-0.0034 0.03637,-0.02264c0.0303,-0.03588 0.0403,-0.01973 0.01542,0.02497c-0.0077,0.01387 -0.00931,0.02509 -0.0036,0.02509c0.00563,0 0.00028,0.014 -0.01221,0.03096c-0.0264,0.03601 -0.07502,0.0423 -0.07502,0.00984l0.00001,0.00001l-0.00001,0l0.00001,0zm-0.27205,-0.05126c0.00871,-0.04016 0.01599,-0.04016 0.01599,0c0,0.0174 -0.00511,0.03152 -0.01126,0.03152c-0.00627,0 -0.00836,-0.01402 -0.00473,-0.03152zm-0.62466,-0.07345c0,-0.0268 0.00829,-0.0268 0.01749,0c0.00391,0.01172 0.0016,0.02093 -0.00521,0.02093c-0.00671,0 -0.01228,-0.00908 -0.01228,-0.02093zm-0.24593,-0.39174c-0.00077,-0.00971 -0.00035,-0.02662 0.00101,-0.03814s0.00231,-0.05991 0.00231,-0.10776c0,-0.06727 0.00427,-0.08588 0.0192,-0.08373c0.01505,0.00214 0.01835,-0.01368 0.01564,-0.07465c-0.00266,-0.06034 0.00179,-0.08204 0.02075,-0.10038c0.02102,-0.0205 0.02392,-0.01741 0.02323,0.02466c-0.00042,0.02649 -0.00497,0.06697 -0.01001,0.08973c-0.00521,0.02307 -0.00496,0.06299 0.00035,0.08865c0.00734,0.03543 -0.00391,0.157 -0.01734,0.18689c-0.00689,0.0152 -0.05411,0.02769 -0.05513,0.01474l0.00001,0l-0.00001,0l0,-0.00001l-0.00001,0zm-0.26026,-0.13146c-0.01025,-0.02989 0.00284,-0.06405 0.02442,-0.06405c0.01007,0 0.01606,0.01464 0.01375,0.03493c-0.00444,0.04218 -0.02766,0.05978 -0.03817,0.02913l-0.00001,0l0.00001,0l0,-0.00001zm0.0637,-0.04187c0,-0.01215 0.00528,-0.02219 0.01168,-0.02219c0.01485,0 0.01485,0.01474 0,0.0314c-0.00647,0.00712 -0.01168,0.00297 -0.01168,-0.00921l0,0.00001l0,-0.00001l0,-0.00001l0,0.00001zm0.96792,0.41237c-0.00955,-0.01709 -0.01287,-0.01477 -0.01287,0.00877c0,0.04187 0.0156,0.07005 0.02133,0.03866c0.00249,-0.01324 -0.00137,-0.03462 -0.00847,-0.04741l0,-0.00002l0.00001,-0.00001l0,0.00001zm1.29508,-0.29309c0.01707,-0.02264 0.01795,-0.03555 0.00545,-0.09451c-0.00794,-0.0374 -0.01844,-0.06803 -0.02347,-0.06803c-0.00506,0 -0.00917,-0.01199 -0.00917,-0.02659c0,-0.01475 -0.01049,-0.06186 -0.02329,-0.10486s-0.02334,-0.0913 -0.02334,-0.10743c0,-0.01582 -0.00794,-0.04068 -0.01742,-0.05511c-0.00962,-0.01432 -0.01749,-0.04849 -0.01749,-0.07592c0,-0.03619 -0.00651,-0.04974 -0.02386,-0.04974c-0.01298,0 -0.0369,-0.0237 -0.05279,-0.05253c-0.01613,-0.02895 -0.03388,-0.05253 -0.03945,-0.05253c-0.00563,0 -0.01987,-0.02188 -0.03148,-0.04849c-0.02851,-0.06494 -0.05705,-0.0819 -0.07447,-0.04388c-0.0106,0.02276 -0.01102,0.04294 -0.00189,0.07743c0.00683,0.02539 0.01553,0.06986 0.0192,0.09881c0.0036,0.02882 0.01054,0.06216 0.01546,0.0739c0.01826,0.0445 0.13478,0.19886 0.15003,0.19886c0.0088,0 0.01598,0.01418 0.01598,0.03139s-0.00812,0.03152 -0.01811,0.03152c-0.01461,0 -0.01724,0.02295 -0.01451,0.12056c0.00315,0.11084 0.00588,0.12145 0.03263,0.12775c0.01606,0.00385 0.03417,0.01582 0.04013,0.02617c0.01612,0.02806 0.06869,0.02403 0.09185,-0.00675l0.00001,-0.00002l-0.00001,0l0,-0.00001l0.00001,0.00001zm-1.12175,-0.05756c0,-0.01154 -0.00826,-0.02106 -0.01811,-0.02106c-0.00997,0 -0.01505,0.00952 -0.01098,0.02106c0.00931,0.0271 0.0291,0.0271 0.0291,0l-0.00001,0l0.00001,0l-0.00001,0zm0.14875,-0.13412c0.04645,-0.05359 0.15405,-0.09067 0.15405,-0.0531c0,0.01198 0.00545,0.01583 0.01214,0.00832s0.01989,-0.00214 0.02913,0.01185c0.00955,0.01418 0.05072,0.02523 0.09331,0.02523c0.0632,0 0.08105,-0.00801 0.10426,-0.04743c0.03491,-0.05895 0.0246,-0.10328 -0.03767,-0.16223c-0.02425,-0.02295 -0.07283,-0.06911 -0.10811,-0.10315c-0.06866,-0.0659 -0.09289,-0.06666 -0.14158,-0.00447c-0.03774,0.04836 -0.06796,0.05095 -0.06796,0.00619c0,-0.01847 -0.01084,-0.03865 -0.02425,-0.04496c-0.01658,-0.00789 -0.02246,-0.02359 -0.0185,-0.05051c0.00398,-0.02756 -0.00063,-0.03909 -0.01553,-0.03909c-0.01172,0 -0.02392,-0.01185 -0.02724,-0.02617c-0.00776,-0.03418 -0.05351,0.06438 -0.05386,0.11558c-0.00028,0.0203 -0.01087,0.05309 -0.02374,0.07283c-0.0128,0.01999 -0.02323,0.06186 -0.02323,0.0942c0,0.03203 -0.00479,0.05834 -0.01036,0.05834c-0.01965,0 -0.02382,0.09346 -0.00651,0.14131c0.02458,0.06702 0.10622,0.06583 0.16565,-0.00271l-0.00001,-0.00001l-0.00001,0.00001l0.00002,-0.00001l0,-0.00002zm0.20426,-0.48223c0.00343,-0.01602 0.0007,-0.03877 -0.00598,-0.05082c-0.01553,-0.0282 -0.06754,0.01154 -0.06754,0.05159c0,0.03772 0.06551,0.03695 0.07352,-0.00075l0,-0.00001l0,-0.00001zm-0.84864,-0.88457c0.0275,-0.03771 0.0667,-0.03984 0.08607,-0.00479c0.01001,0.01804 0.01701,0.01911 0.0227,0.00372c0.00462,-0.0123 0.01683,-0.02799 0.02742,-0.03511c0.01221,-0.00814 0.02127,-0.0454 0.0251,-0.10328c0.00332,-0.04988 0.01536,-0.13992 0.02683,-0.20026c0.01742,-0.09161 0.02665,-0.11192 0.05645,-0.1256c0.03127,-0.01432 0.02724,-0.01753 -0.03432,-0.02692c-0.04075,-0.00619 -0.07181,-0.00214 -0.07463,0.01001c-0.00818,0.03543 -0.03021,0.06772 -0.05634,0.08254c-0.02623,0.01495 -0.04449,0.08084 -0.03228,0.11652c0.00801,0.02295 -0.01357,0.10745 -0.03355,0.13135c-0.007,0.00862 -0.02453,0.01557 -0.03894,0.01582c-0.02707,0.00032 -0.03509,0.02989 -0.01451,0.05277c0.01749,0.01955 0.01384,0.05233 -0.00587,0.05233c-0.00955,0 -0.01742,-0.00939 -0.01742,-0.02093s-0.01309,-0.02093 -0.02913,-0.02093s-0.02913,0.00939 -0.02913,0.02093s0.00787,0.02093 0.01742,0.02093c0.00966,0 0.01759,0.01443 0.01759,0.03152c-0.00014,0.04093 0.05624,0.0406 0.08653,-0.00064l0.00001,0.00003l-0.00001,-0.00001l0.00001,0zm0.07643,-0.25398c0,-0.02434 0.00794,-0.05635 0.01767,-0.07093c0.0275,-0.04156 0.03014,-0.01493 0.00511,0.05373c-0.02012,0.05504 -0.02266,0.05707 -0.02277,0.01722l-0.00001,-0.00001l0,-0.00001zm-0.21038,0.05662c0.01368,-0.01557 0.0141,-0.02819 0.00249,-0.06791c-0.00847,-0.02925 -0.01162,-0.03278 -0.00788,-0.00952c0.00392,0.0237 -0.00179,0.05051 -0.0141,0.06772c-0.02297,0.03115 -0.00675,0.03959 0.01949,0.00971l0,0.00002l0,-0.00001l0,-0.00001zm0.41577,-0.07496c0.01007,-0.0473 -0.01811,-0.10101 -0.03756,-0.07176c-0.01232,0.01804 -0.01256,0.0314 -0.0016,0.06311c0.01679,0.04855 0.03011,0.05145 0.03918,0.00863l0,0.00001l-0.00001,0l-0.00001,0.00001zm0.45837,-0.15593c0,-0.0285 -0.02057,-0.04711 -0.0279,-0.02553c-0.007,0.02029 0.00308,0.0454 0.01819,0.0454c0.00539,0 0.00972,-0.00888 0.00972,-0.01986l-0.00001,0l0.00001,-0.00001l-0.00001,0zm-0.34516,-0.09573c0.00854,-0.04016 0.00255,-0.04016 -0.01588,0c-0.00842,0.01816 -0.00948,0.0314 -0.00261,0.0314c0.0065,0.00013 0.01476,-0.014 0.0185,-0.0314l-0.00001,0zm-0.22245,-0.1024c0.00966,-0.02553 0.00675,-0.2437 -0.00325,-0.2437c-0.0035,0 -0.02228,0.02649 -0.04183,0.05865c-0.04609,0.07592 -0.05995,0.16608 -0.03115,0.20504c0.02196,0.02976 0.06132,0.01961 0.07625,-0.01999l-0.00001,0l-0.00001,0zm0.358,0.01924c0,-0.02679 -0.03287,-0.07434 -0.0517,-0.07434c-0.01186,0 -0.00689,0.05415 0.00745,0.07976c0.01931,0.03493 0.04425,0.03171 0.04425,-0.00543l0.00001,0.00001l-0.00001,-0.00001l0,0.00001zm-0.28454,-0.33879c0.04414,-0.06078 0.05236,-0.11299 0.01749,-0.11299c-0.02281,0 -0.05907,0.0514 -0.05907,0.08373c0,0.00971 -0.00315,0.03279 -0.00699,0.05082c-0.01008,0.04723 0.00266,0.04156 0.04858,-0.02157l-0.00001,0.00001zm0.36026,-0.05019c-0.00391,-0.01142 -0.01606,-0.02031 -0.0269,-0.01955c-0.01615,0.00139 -0.01546,0.00479 0.00361,0.01955c0.03115,0.02433 0.03151,0.02433 0.02329,0zm0.05817,-0.11317c0,-0.03897 -0.00675,-0.04388 -0.05894,-0.04388c-0.05279,0 -0.05852,0.00428 -0.0545,0.04187c0.00363,0.03449 0.01423,0.04249 0.05894,0.0442c0.04803,0.00169 0.0545,-0.00322 0.0545,-0.04217l0,-0.00001l0,0.00001l0,-0.00001l0,-0.00001zm2.28186,-0.3879c0.00354,-0.01001 -0.00101,-0.02957 -0.00997,-0.04294c-0.01344,-0.01999 -0.01536,-0.01665 -0.01014,0.01846c0.00678,0.04755 0.01063,0.05202 0.02012,0.02446l-0.00001,0.00001l0,0.00001zm-1.86693,-0.61653c-0.01144,-0.02061 -0.01287,-0.01804 -0.00651,0.01172c0.00437,0.02081 0.01087,0.03235 0.01445,0.02585c0.00367,-0.0063 0,-0.02339 -0.00794,-0.03757l-0.00001,0l0.00001,0zm1.36116,-0.58986c0,-0.00417 -0.00913,-0.02081 -0.02032,-0.03664c-0.01844,-0.02603 -0.01886,-0.02522 -0.00434,0.00801c0.01508,0.03473 0.02466,0.04603 0.02466,0.02862l0,0.00001zm-0.83857,-0.86193c0,-0.01582 -0.14404,-0.09407 -0.15047,-0.08158c-0.00706,0.01387 -0.00325,0.01709 0.08061,0.0705c0.04655,0.02976 0.06985,0.03342 0.06985,0.0111l0,-0.00001l0.00001,-0.00001zm-0.23655,10.98785c-0.00255,-0.00832 -0.00534,-0.05359 -0.00616,-0.10069c-0.00126,-0.06986 0.00506,-0.09665 0.03393,-0.14654c0.03082,-0.05295 0.03438,-0.07082 0.02809,-0.13796c-0.00836,-0.08815 0.01896,-0.207 0.04733,-0.207c0.03239,0 0.12246,-0.08916 0.15432,-0.15239c0.12834,-0.25644 0.12928,-0.25801 0.14629,-0.22504c0.0227,0.04327 0.03245,0.20178 0.0141,0.22938c-0.00797,0.01185 -0.01794,0.01538 -0.02213,0.00801c-0.00426,-0.0077 -0.0077,0.01141 -0.0077,0.04217c0,0.0309 -0.00528,0.05605 -0.01168,0.05605c-0.00644,0 -0.01162,0.00921 -0.01162,0.02061c0,0.02434 -0.07789,0.25119 -0.14561,0.42435c-0.03543,0.09079 -0.05901,0.12793 -0.09822,0.15487c-0.05914,0.04092 -0.11406,0.05636 -0.12091,0.03417l-0.00001,-0.00003l0.00001,0.00004l-0.00002,0l-0.00001,0zm0.62092,-0.52801c0,-0.01229 0.00517,-0.02232 0.01162,-0.02232c0.01494,0 0.01494,0.01487 0,0.03141c-0.0064,0.00712 -0.01162,0.00322 -0.01162,-0.00909zm-2.76016,-1.30078c0,-0.01231 0.00539,-0.02232 0.01168,-0.02232c0.01503,0 0.01503,0.0149 0,0.0314c-0.00636,0.00725 -0.01168,0.00322 -0.01168,-0.00908l0,-0.00001l0,0.00001l0,-0.00001l0,0.00001zm-1.953,-0.18499c-0.12944,-0.36432 -0.29023,-1.02196 -0.36837,-1.50646c-0.12435,-0.77214 -0.17097,-1.65418 -0.12542,-2.37633c0.01896,-0.29943 0.03963,-0.31803 0.03645,-0.03248c-0.00574,0.52813 -0.0036,0.71994 0.00854,0.74624c0.0071,0.01525 0.01896,0.09376 0.02637,0.17429c0.00735,0.08065 0.01819,0.16273 0.024,0.18272c0.00573,0.01999 0.01067,0.08158 0.01077,0.13638c0.00017,0.05512 0.00741,0.1565 0.01623,0.22599c0.00889,0.0693 0.01938,0.17301 0.02347,0.23091c0.01298,0.18505 0.1086,0.60342 0.17045,0.7466c0.01784,0.04187 0.0567,0.16697 0.08609,0.2783c0.02955,0.11129 0.05817,0.20239 0.0638,0.20239c0.01221,0 0.02127,0.03941 0.0427,0.18475c0.02374,0.16027 0.02066,0.20688 -0.01896,0.29572l-0.03544,0.07945l0.0304,0.16595c0.03371,0.18476 0.0631,0.38639 0.05628,0.38639c-0.00248,-0.00013 -0.02374,-0.05434 -0.04732,-0.12081l-0.00001,-0.00001l-0.00002,0.00001l0.00002,0.00001l-0.00003,-0.00001zm4.70145,-1.32693c0.02297,-0.02679 0.04988,-0.02679 0.04082,0c-0.00391,0.01142 -0.01868,0.02093 -0.0327,0.02063c-0.02075,-0.00013 -0.02229,-0.00404 -0.00812,-0.02063zm-0.67543,-0.13828c0,-0.03695 0.0251,-0.03045 0.03228,0.00851c0.00255,0.01368 -0.00363,0.02497 -0.01384,0.02497c-0.01007,-0.00006 -0.01844,-0.01533 -0.01844,-0.03347l0,-0.00001zm-3.53501,-0.76533c-0.0042,-0.01231 -0.00487,-0.02742 -0.00147,-0.03355c0.00829,-0.01507 0.031,0.01142 0.031,0.03601c0.00011,0.02692 -0.02004,0.02523 -0.02952,-0.00246l0,0.00001l-0.00001,-0.00001zm0.04124,-0.08266c0,-0.027 0.00829,-0.027 0.01749,0c0.00391,0.01142 0.00171,0.02106 -0.00521,0.02106c-0.00671,0 -0.01228,-0.00952 -0.01228,-0.02106zm-0.06113,-0.13563c-0.0234,-0.05769 -0.0253,-0.07422 -0.00878,-0.07422c0.00633,0 0.01162,0.01096 0.01162,0.02453s0.00878,0.042 0.01938,0.06311c0.0106,0.02106 0.01451,0.03789 0.00871,0.03772c-0.00581,-0.0005 -0.01974,-0.02327 -0.03091,-0.05113l-0.00001,0l0,-0.00001l-0.00001,0zm5.7179,-0.63255c-0.00461,-0.00832 -0.00812,-0.03959 -0.0078,-0.06917l0.00077,-0.05429l0.01115,0.05051c0.01224,0.05479 0.00968,0.09791 -0.00413,0.07294l0,0.00001l0.00001,0zm-5.17251,-0.11021c-0.00503,-0.01464 -0.00588,-0.03216 -0.00207,-0.03909c0.01042,-0.01878 0.02179,0.00896 0.01613,0.03923c-0.00394,0.02125 -0.00671,0.02125 -0.01406,-0.00013l0,-0.00001zm0.08073,-0.03644c0.01676,-0.02989 0.03305,-0.04956 0.03637,-0.04388c0.00913,0.01646 -0.03371,0.09862 -0.05131,0.09862c-0.00892,-0.00013 -0.00266,-0.02288 0.01494,-0.05472l0.00001,-0.00001l-0.00001,0l0,-0.00001zm-0.12246,-0.05038c0,-0.01141 0.00818,-0.02093 0.01819,-0.02093s0.01494,0.00952 0.01096,0.02093c-0.00933,0.02742 -0.02913,0.02742 -0.02913,0l-0.00001,0l-0.00001,0zm0.08153,-0.48241c0,-0.0268 0.00829,-0.0268 0.01749,0c0.00391,0.01155 0.0016,0.02094 -0.00511,0.02094c-0.00682,0 -0.01239,-0.00939 -0.01239,-0.02094l0.00001,0zm-0.17471,-0.79735c0,-0.02692 0.00829,-0.02692 0.01749,0c0.00391,0.01141 0.00171,0.02106 -0.00511,0.02106c-0.00693,0 -0.01238,-0.00952 -0.01238,-0.02106l0.00001,0l-0.00001,0zm-0.06446,-0.16892c-0.0106,-0.03109 -0.00214,-0.0423 0.01648,-0.02125c0.01007,0.01091 0.01126,0.02188 0.00343,0.03045c-0.00658,0.00743 -0.01556,0.00328 -0.01991,-0.0092zm-1.15647,-0.18796c0,-0.02882 0.00266,-0.04068 0.00588,-0.02617c0.00315,0.01444 0.00315,0.03802 0,0.05253c-0.00325,0.01444 -0.00588,0.00276 -0.00588,-0.02636zm0.00724,-0.19099c-0.00864,-0.04068 0.01459,-0.22845 0.02837,-0.22845c0.00948,0 0.0035,0.09236 -0.01384,0.20902c-0.00563,0.03847 -0.00937,0.04338 -0.01451,0.01942l-0.00001,0l-0.00001,0l0,0.00001zm0.13067,-0.7531c0,-0.01141 0.00521,-0.02093 0.01162,-0.02093s0.01162,0.00952 0.01162,0.02093c0,0.01154 -0.00521,0.02106 -0.01162,0.02106s-0.01162,-0.00952 -0.01162,-0.02106zm0.03483,-0.11621c0,-0.02617 0.03715,-0.13852 0.04242,-0.12881c0.00633,0.01121 -0.0276,0.14042 -0.0369,0.14042c-0.00297,-0.00018 -0.00553,-0.0053 -0.00553,-0.01161l0.00001,0.00001l0,-0.00001zm2.41112,-0.13934c-0.00017,-0.01975 0.00528,-0.04187 0.01221,-0.04942c0.02039,-0.02295 0.0234,0.00127 0.00528,0.04433c-0.015,0.03562 -0.01714,0.03607 -0.01749,0.0051l-0.00001,0l0.00001,-0.00001zm-2.36444,-0.03555c0,-0.01154 0.00528,-0.0268 0.01168,-0.03385c0.00633,-0.00725 0.01162,-0.00372 0.01162,0.00789s-0.00528,0.02692 -0.01162,0.03406c-0.00636,0.00706 -0.01168,0.00353 -0.01168,-0.00807l0,-0.00001l0,-0.00001l0,-0.00001zm2.26429,-0.21223c0,-0.02306 0.00693,-0.04217 0.01536,-0.04217c0.01178,0 0.01256,0.01001 0.0029,0.04217c-0.01564,0.05246 -0.01826,0.05246 -0.01826,0l-0.00001,0l0.00001,0zm-1.50309,-0.13114c0.00137,-0.01444 0.00633,-0.03802 0.01137,-0.05253c0.00581,-0.01677 0.00249,-0.02629 -0.00906,-0.02629c-0.01001,0 -0.01819,-0.01368 -0.01819,-0.03078c0,-0.01986 0.00675,-0.02604 0.01921,-0.01722c0.01938,0.01337 0.01879,-0.01324 -0.00332,-0.14748c-0.00444,-0.02649 0.00113,-0.04156 0.01802,-0.04943c0.0134,-0.00629 0.02435,-0.01784 0.02435,-0.02572c0,-0.0077 0.00941,-0.01538 0.02117,-0.01677c0.03542,-0.00492 0.11885,-0.07775 0.11476,-0.10039c-0.00214,-0.01154 -0.01588,-0.02245 -0.03049,-0.0237c-0.031,-0.00291 -0.04929,-0.0457 -0.04074,-0.09516c0.00332,-0.01924 0.0006,-0.04124 -0.00605,-0.0486c-0.00675,-0.00757 -0.01214,0.00386 -0.01214,0.02572c0,0.02157 -0.0077,0.05745 -0.01707,0.07988c-0.02671,0.06374 -0.02237,-0.00845 0.00545,-0.09098c0.03204,-0.09438 0.02938,-0.12302 -0.01307,-0.13839c-0.05722,-0.02063 -0.0602,-0.01633 -0.02596,0.03664c0.03134,0.04861 0.03151,0.05094 0.01203,0.10498c-0.01102,0.03032 -0.02785,0.05512 -0.03722,0.05512c-0.00948,0 -0.01724,0.00845 -0.01724,0.0186s-0.01067,0.02358 -0.02374,0.02969c-0.01291,0.00619 -0.0227,0.01911 -0.02161,0.02882c0.00503,0.04647 -0.01767,0.15392 -0.03246,0.15392c-0.00924,0 -0.01393,0.00832 -0.01049,0.01816c0.00343,0.01002 0.02068,0.01401 0.03844,0.00921c0.02955,-0.00845 0.03064,-0.0065 0.01203,0.02081c-0.0112,0.01633 -0.02039,0.04174 -0.02039,0.05606c0,0.03279 -0.05576,0.01079 -0.08248,-0.03247c-0.01001,-0.01635 -0.02732,-0.02969 -0.03826,-0.02969c-0.01665,0 -0.01767,-0.00725 -0.00664,-0.0445c0.00728,-0.02446 0.02323,-0.04913 0.03536,-0.05498c0.01214,-0.00568 0.0221,-0.01924 0.0221,-0.03021c0,-0.01058 -0.00444,-0.01474 -0.0099,-0.00863c-0.00545,0.00599 -0.01588,-0.01231 -0.02305,-0.0408c-0.00717,-0.02862 -0.01767,-0.05172 -0.02347,-0.05172c-0.01758,0 -0.07131,0.08511 -0.06849,0.1085c0.00147,0.01231 -0.00479,0.02723 -0.01375,0.03311c-0.01137,0.00757 -0.0141,0.00013 -0.00913,-0.02339c0.0041,-0.01892 0.0022,-0.03431 -0.00392,-0.03431s-0.01126,-0.01571 -0.01126,-0.03494c0,-0.03215 -0.00154,-0.03215 -0.02133,0c-0.01168,0.01924 -0.02689,0.03494 -0.03364,0.03494c-0.00682,0 -0.03809,0.04156 -0.06944,0.09219c-0.04679,0.07572 -0.06292,0.09023 -0.08981,0.08115c-0.02605,-0.00896 -0.03861,0.00107 -0.06138,0.04944l-0.02869,0.06066l0.0205,-0.06772c0.01126,-0.03695 0.06541,-0.17579 0.12015,-0.3082c0.51699,-1.24977 1.27099,-2.10999 2.11544,-2.41339c0.32927,-0.11853 0.72482,-0.16765 0.9208,-0.11482c0.05653,0.01525 0.0908,0.03109 0.07601,0.03555c-0.01485,0.00428 -0.02987,0.02125 -0.03337,0.03771c-0.00374,0.01753 -0.02237,0.0297 -0.04519,0.0297c-0.0426,0 -0.06421,0.03311 -0.03159,0.04849c0.01707,0.00814 0.0165,0.01001 -0.00332,0.01199c-0.01309,0.00151 -0.03005,0.01368 -0.03767,0.02742c-0.00948,0.01696 -0.08752,0.02662 -0.24976,0.03045c-0.28111,0.00693 -0.30058,0.01079 -0.3823,0.07593c-0.03483,0.02769 -0.09042,0.05617 -0.12358,0.06325c-0.03322,0.00706 -0.06996,0.0222 -0.08164,0.03373c-0.01162,0.01142 -0.03672,0.0268 -0.05558,0.03417c-0.02546,0.00971 -0.03005,0.01784 -0.01793,0.03127c0.00889,0.00983 0.02039,0.01368 0.02546,0.00799c0.00497,-0.00555 0.0275,-0.00106 0.04995,0.01001c0.02453,0.01231 0.04336,0.01261 0.04739,0.00127c0.00367,-0.01059 0,-0.01924 -0.00801,-0.01924c-0.00924,0 -0.0106,-0.00725 -0.00374,-0.01924c0.01989,-0.03462 0.09241,-0.03278 0.1205,0.00265c0.02536,0.03202 0.0257,0.03524 0.00539,0.05405c-0.02169,0.02017 -0.10196,0.05479 -0.18034,0.0773c-0.03175,0.00939 -0.04431,0.02467 -0.04929,0.06078c-0.00633,0.04527 -0.01263,0.04861 -0.09146,0.04861c-0.09076,0 -0.19794,0.04463 -0.19154,0.07987c0.00528,0.02882 0.06405,0.03972 0.08145,0.01507c0.04746,-0.06772 0.1661,-0.08115 0.15251,-0.01709c-0.007,0.03291 0.02605,0.06299 0.03639,0.03311c0.00374,-0.0111 0.0169,-0.02017 0.02946,-0.02017c0.01291,0 0.02262,-0.01444 0.02262,-0.03373c0,-0.02232 0.00633,-0.02957 0.01837,-0.02105c0.01018,0.00693 0.02623,0.01279 0.03578,0.01279c0.01511,0 0.01511,0.00396 -0.00052,0.03203c-0.02837,0.05113 -0.01203,0.08637 0.03553,0.07635c0.02913,-0.00619 0.03953,-0.00152 0.03399,0.01474s0.00871,0.0237 0.04543,0.0237s0.05551,0.00983 0.0602,0.03127c0.00367,0.01721 0.01399,0.03152 0.02288,0.03152c0.01451,0 0.02117,0.02572 0.01333,0.05159c-0.00161,0.00524 0.00741,0.02306 0.01997,0.03953c0.01965,0.02585 0.02092,0.03772 0.00913,0.08437c-0.0076,0.02958 -0.02665,0.05991 -0.04225,0.06697l-0.02847,0.01287l0.0251,0.0454c0.01393,0.02497 0.03663,0.04709 0.05054,0.04942c0.01393,0.00215 0.04159,0.01893 0.06149,0.0374c0.02843,0.02649 0.03525,0.04508 0.03218,0.08696c-0.00214,0.02925 -0.01144,0.06186 -0.02066,0.0722c-0.01263,0.01464 -0.01309,0.01924 -0.00154,0.01942c0.00836,0.00013 0.01197,0.01001 0.00801,0.02157c-0.00392,0.01141 0.00101,0.02093 0.01096,0.02093c0.01007,0 0.01819,0.01418 0.01819,0.0314c0,0.01709 -0.00717,0.03142 -0.01606,0.03142c-0.02435,0 -0.12375,0.08342 -0.12375,0.1039c0,0.01002 -0.01178,0.014 -0.02623,0.00939c-0.01445,-0.00479 -0.01965,-0.0034 -0.01169,0.00353c0.01067,0.0092 0.0112,0.02307 0.00196,0.05448c-0.00693,0.02307 -0.01564,0.03664 -0.0193,0.03002c-0.00367,-0.0065 -0.01256,0.00265 -0.01973,0.0205c-0.00728,0.01771 -0.02257,0.03481 -0.03417,0.03789c-0.02469,0.0065 -0.04253,0.05113 -0.03477,0.08726c0.00468,0.0222 -0.01938,0.04313 -0.06013,0.05253c-0.00633,0.00152 -0.01896,0.01368 -0.02766,0.02692c-0.00896,0.01312 -0.02339,0.02415 -0.03204,0.02433c-0.01802,0.00031 -0.10905,0.15285 -0.10905,0.18285c0,0.01059 -0.0112,0.01324 -0.02483,0.00555c-0.01581,-0.00921 -0.02204,-0.00629 -0.01707,0.00768c0.00605,0.01784 -0.08513,0.06098 -0.10937,0.05156c-0.10077,-0.03834 -0.14116,-0.04092 -0.24175,-0.01613c-0.04117,0.01033 -0.06642,0.00726 -0.07755,-0.00939c-0.0128,-0.0191 -0.02596,-0.01753 -0.0583,0.00675c-0.02297,0.01721 -0.04183,0.04004 -0.04183,0.05031c0,0.01015 -0.0163,0.01974 -0.0363,0.02081c-0.01989,0.00106 -0.07174,0.03555 -0.11518,0.07649c-0.09332,0.08853 -0.11077,0.09325 -0.09905,0.02768c0.00462,-0.02604 0.00947,-0.0773 0.01102,-0.11406c0.00332,-0.08543 0.04218,-0.17643 0.14952,-0.34931c0.10042,-0.16212 0.24141,-0.29446 0.24141,-0.22673c0,0.00983 0.01322,0.01354 0.02944,0.00799c0.02741,-0.00952 0.02791,-0.01217 0.00871,-0.03909c-0.01973,-0.02756 -0.01955,-0.03045 0.00266,-0.06186c0.0128,-0.01816 0.03756,-0.02938 0.05509,-0.02477c0.02339,0.00599 0.03382,-0.00246 0.03875,-0.03064c0.00402,-0.02306 0.04698,-0.07252 0.10486,-0.12144c0.11263,-0.09453 0.15789,-0.16362 0.14866,-0.22724c-0.00503,-0.03386 0.00374,-0.05189 0.04124,-0.0865c0.02612,-0.02403 0.05148,-0.04217 0.05645,-0.04016c0.00503,0.00203 0.01811,-0.00353 0.02913,-0.01231c0.01297,-0.01015 0.03509,0.00094 0.06233,0.03109c0.03408,0.0379 0.04425,0.04156 0.05201,0.01878c0.02145,-0.06247 -0.07087,-0.1051 -0.2654,-0.1222c-0.03459,-0.00322 -0.03313,-0.04741 0.00402,-0.12685c0.02246,-0.04819 0.0256,-0.06438 0.01232,-0.06438c-0.00972,0 -0.02108,0.00984 -0.02535,0.022c-0.00503,0.01464 -0.01778,0.01001 -0.03756,-0.01312c-0.02637,-0.03109 -0.03936,-0.03248 -0.10742,-0.01046c-0.04253,0.01368 -0.09289,0.04327 -0.11161,0.06558c-0.01888,0.02245 -0.04365,0.04068 -0.05526,0.04094c-0.01162,0 -0.01784,0.00952 -0.01393,0.02105c0.01203,0.03494 0.0526,0.02339 0.09087,-0.02553c0.03969,-0.05095 0.17524,-0.08051 0.19616,-0.04281c0.02117,0.03813 -0.04519,0.17964 -0.11357,0.24231c-0.03509,0.03216 -0.06688,0.07232 -0.07045,0.08916s-0.01384,0.03064 -0.02281,0.03064c-0.00889,0 -0.01641,0.01172 -0.01657,0.02617c-0.00035,0.02862 -0.09318,0.12068 -0.12168,0.12068c-0.00966,0 -0.03204,0.0302 -0.04959,0.06708c-0.07423,0.15529 -0.08121,0.16361 -0.13236,0.16009l-0.04893,-0.0034l0.03672,-0.05896c0.02015,-0.03265 0.03672,-0.06438 0.03672,-0.0708c0,-0.022 -0.05037,0.03727 -0.08692,0.10252c-0.02024,0.03601 -0.05653,0.07634 -0.08063,0.08929c-0.03033,0.01635 -0.03998,0.01665 -0.03135,0.00127c0.02169,-0.03897 0.01357,-0.06438 -0.00878,-0.02799c-0.0356,0.05801 -0.0398,0.03909 -0.01144,-0.05202c0.01476,-0.04773 0.04876,-0.11898 0.0754,-0.15858c0.02671,-0.03954 0.05397,-0.09975 0.06055,-0.13379c0.007,-0.03555 0.02495,-0.07068 0.04253,-0.08268c0.03927,-0.02692 0.04057,-0.0266 0.04057,0.01121c0,0.04388 0.03476,0.06482 0.04756,0.02862c0.00734,-0.02081 0.01032,-0.02169 0.01049,-0.00289c0.00007,0.01431 0.00588,0.02617 0.01309,0.02617c0.00734,0 0.01025,-0.0186 0.00675,-0.04313c-0.00451,-0.03109 0.00084,-0.04803 0.01956,-0.06078c0.0141,-0.00971 0.0327,-0.03278 0.04134,-0.05126c0.00854,-0.01835 0.0279,-0.03373 0.04312,-0.03373c0.01528,0 0.0276,-0.00845 0.0276,-0.01878c0,-0.01078 -0.01802,-0.0109 -0.04365,-0.00031c-0.02392,0.01033 -0.06558,0.01312 -0.09223,0.00619c-0.04183,-0.01046 -0.05617,-0.00289 -0.10273,0.05498c-0.02981,0.03676 -0.05764,0.06066 -0.06198,0.05277c-0.00444,-0.00788 0.00154,-0.02661 0.01309,-0.04206c0.01427,-0.01878 0.01683,-0.03248 0.00801,-0.0423c-0.02075,-0.02306 0.02288,-0.09761 0.04851,-0.08279c0.03142,0.01804 0.04816,-0.00832 0.02818,-0.0442c-0.00924,-0.01665 -0.02169,-0.0302 -0.02774,-0.0302c-0.00616,0 -0.01758,-0.01418 -0.02554,-0.0314c-0.01825,-0.03974 -0.07832,-0.04016 -0.11647,-0.00094c-0.01606,0.01646 -0.04698,0.04463 -0.06873,0.0628c-0.02187,0.01804 -0.06173,0.06836 -0.08882,0.11147c-0.02714,0.04294 -0.07122,0.11008 -0.09811,0.14899s-0.0545,0.09269 -0.06121,0.11928s-0.02836,0.06046 -0.04799,0.07529c-0.01965,0.01464 -0.05166,0.05172 -0.07122,0.08222c-0.01965,0.03064 -0.05064,0.06973 -0.06909,0.08714c-0.02682,0.02478 -0.02979,0.03373 -0.01459,0.04401c0.01043,0.00738 0.01903,0.00396 0.01903,-0.00725c0,-0.01091 0.00546,-0.02031 0.01232,-0.02031s0.03159,-0.02359 0.05526,-0.05264c0.02374,-0.02895 0.04484,-0.04294 0.04698,-0.03142c0.01042,0.05618 0.12347,-0.01015 0.16796,-0.09898c0.0112,-0.02232 0.03218,-0.03877 0.04656,-0.03652c0.01445,0.00233 0.03672,-0.00597 0.04946,-0.01848c0.02714,-0.02649 0.10066,-0.07573 0.11381,-0.07617c0.00497,-0.00013 0.00102,0.02188 -0.00878,0.0488c-0.00972,0.02679 -0.01505,0.05384 -0.01154,0.06021c0.00343,0.00619 -0.01232,0.04048 -0.03483,0.07636c-0.0227,0.03569 -0.04123,0.07465 -0.04123,0.08639c0,0.01154 -0.01956,0.03601 -0.04348,0.05415c-0.04609,0.03462 -0.09622,0.1085 -0.09622,0.14205c0,0.01121 0.0234,0.01525 0.05498,0.00877c0.04687,-0.00952 0.05201,-0.00725 0.03459,0.01582c-0.02008,0.02649 -0.11245,0.17611 -0.19521,0.31653c-0.02297,0.03877 -0.04858,0.10838 -0.05711,0.15441c-0.00847,0.04634 -0.0192,0.07976 -0.02382,0.07465c-0.00479,-0.00522 -0.01494,0.01784 -0.02263,0.0514c-0.02066,0.09023 -0.08702,0.19351 -0.10445,0.16225c-0.01049,-0.0186 -0.01197,-0.01635 -0.00651,0.00983c0.00539,0.02478 -0.00249,0.04035 -0.02836,0.0565c-0.01965,0.01231 -0.0356,0.03708 -0.0356,0.05498c0,0.01804 -0.00633,0.03248 -0.01399,0.03248c-0.01032,0 -0.0106,0.00619 -0.00084,0.0237c0.01657,0.02989 0.00616,0.07807 -0.02997,0.13854c-0.01571,0.02617 -0.02434,0.04773 -0.01931,0.04773s-0.00497,0.02358 -0.02222,0.05253c-0.0345,0.0565 -0.05285,0.06633 -0.04942,0.02541l0.00002,-0.00003l-0.00004,-0.00009l-0.00005,0.00005l0,0.00002zm-0.12725,-0.88652c0.00557,-0.04206 0.00437,-0.05587 -0.00343,-0.04206c-0.00633,0.01142 -0.01536,0.04924 -0.0198,0.08374c-0.00557,0.04217 -0.00427,0.05606 0.00344,0.04217c0.0064,-0.01154 0.01536,-0.04924 0.0198,-0.08386l-0.00001,0.00001zm-0.03107,-0.04327c0.00154,-0.03096 -0.00231,-0.04819 -0.00913,-0.0408c-0.0135,0.01525 -0.01571,0.09452 -0.00237,0.09452c0.005,-0.00018 0.01021,-0.02421 0.0115,-0.05373l0,0.00001zm0.1249,-0.19798c0.02477,-0.04925 0.00444,-0.05745 -0.02246,-0.00908c-0.02057,0.03695 -0.02288,0.05095 -0.00847,0.05095c0.0055,0 0.01931,-0.01893 0.03091,-0.04187l0.00001,0l0.00001,0zm0.06996,-0.18904c0.00913,-0.0266 -0.00623,-0.0266 -0.02913,0c-0.01511,0.0174 -0.01476,0.02049 0.0022,0.02081c0.01087,0.00013 0.02291,-0.00914 0.02694,-0.02081l-0.00001,0zm0.11333,-0.13039c0.02007,-0.03374 0.03058,-0.06761 0.02554,-0.08204c-0.00563,-0.01635 -0.0035,-0.01924 0.0064,-0.00814c0.01001,0.01091 0.01315,0.00693 0.00955,-0.01261c-0.00693,-0.03727 -0.02365,-0.0314 -0.03844,0.01369c-0.00633,0.01954 -0.02596,0.06205 -0.04365,0.09438c-0.01759,0.03248 -0.03204,0.07037 -0.03204,0.08417c0.00004,0.02723 0.01158,0.01318 0.07265,-0.08947l-0.00001,0.00001l0.00001,0l-0.00001,0.00001zm1.02794,-0.45701c-0.00402,-0.01154 -0.01245,-0.02093 -0.01896,-0.02093c-0.00633,0 -0.00836,0.00939 -0.00444,0.02093s0.01245,0.02106 0.01888,0.02106s0.00847,-0.00952 0.00451,-0.02106l0.00001,0zm0.48134,-0.25138c0.01676,0.00032 0.01701,0.00308 0.00189,0.02063c-0.01522,0.01772 -0.01503,0.0205 0.0016,0.02063c0.01025,0.00032 0.02501,-0.01292 0.03263,-0.02939c0.01077,-0.02358 0.00906,-0.03215 -0.00871,-0.04249c-0.03064,-0.01753 -0.06062,0.00661 -0.05954,0.04818c0.0006,0.022 0.00308,0.02477 0.00675,0.00832c0.00336,-0.01464 0.0147,-0.02604 0.02536,-0.02586l0.00002,-0.00002zm-0.34445,-0.18922c0.00983,0 0.02084,-0.01418 0.02453,-0.0314c0.00906,-0.04217 -0.00249,-0.03954 -0.04851,0.01079c-0.0227,0.02497 -0.03501,0.05189 -0.03022,0.06601c0.00574,0.01646 0.01256,0.01324 0.02222,-0.01079c0.00784,-0.01904 0.02218,-0.03462 0.03201,-0.03462l-0.00001,0l0,0.00001l-0.00001,0.00001l-0.00001,-0.00001zm0.13088,-0.18872c0.00402,-0.01154 0.00207,-0.02106 -0.00444,-0.02106c-0.0064,0 -0.01487,0.00952 -0.01888,0.02106c-0.00402,0.01141 -0.00189,0.02093 0.00451,0.02093s0.01489,-0.00952 0.01882,-0.02093l0.00001,0l-0.00001,0l-0.00001,0zm0.09906,-0.16798c0,-0.01154 -0.00787,-0.02106 -0.01743,-0.02106s-0.01742,0.00952 -0.01742,0.02106c0,0.01141 0.00788,0.02093 0.01742,0.02093s0.01743,-0.00952 0.01743,-0.02093zm-0.27939,2.46472c0,-0.01771 -0.00794,-0.03757 -0.01749,-0.0442c-0.02263,-0.01571 -0.02263,-0.04943 0,-0.04943c0.00955,0 0.01749,-0.01432 0.01749,-0.0314c0,-0.01741 -0.00557,-0.03152 -0.01245,-0.03152c-0.00675,0 -0.00913,-0.00895 -0.00539,-0.01999s0.01546,-0.01418 0.02596,-0.00693c0.01494,0.01033 0.01724,0.00479 0.01096,-0.02541c-0.00913,-0.04263 0.00865,-0.07264 0.04337,-0.07313c0.01606,-0.00031 0.02008,0.01046 0.01564,0.04156c-0.00468,0.03233 -0.00035,0.04217 0.01903,0.0423c0.01375,0 0.04519,0.00983 0.06944,0.02219c0.04075,0.02049 0.04407,0.02769 0.04082,0.08883c-0.00468,0.08696 -0.0409,0.11898 -0.13467,0.11949c-0.05764,-0.00018 -0.07269,-0.00693 -0.07269,-0.03235l-0.00001,0.00002l0.00001,0l-0.00002,-0.00001l0,-0.00002zm1.60316,-0.17076c-0.01606,-0.02882 -0.00689,-0.06986 0.01552,-0.06986c0.01553,0 0.02332,0.01402 0.02332,0.04206c0.00004,0.04029 -0.02281,0.05662 -0.03886,0.0278l0.00001,0l0.00001,0zm-0.63506,-0.58897c-0.00728,-0.02466 -0.01315,-0.0594 -0.01315,-0.07754c0,-0.01784 -0.00528,-0.03278 -0.01168,-0.03278c-0.01368,0 -0.01528,-0.08298 -0.00214,-0.12025c0.00528,-0.01495 0.02477,-0.0222 0.04638,-0.01722c0.02051,0.00479 0.03732,0.00013 0.03732,-0.00983c0,-0.01954 0.07832,-0.01231 0.08975,0.00832c0.01144,0.0203 -0.02263,0.07869 -0.03921,0.06708c-0.02145,-0.01474 -0.01973,0.02925 0.00297,0.07421c0.02169,0.04326 0.0134,0.08033 -0.01707,0.07605c-0.01451,-0.00203 -0.01973,-0.01507 -0.01606,-0.04068c0.00941,-0.06438 -0.01333,-0.0411 -0.03921,0.04005c-0.02372,0.07434 -0.02507,0.07559 -0.03791,0.0326l0.00001,-0.00001zm-1.56525,-0.28108c0.00788,-0.01431 0.01718,-0.02063 0.02075,-0.01418s-0.00273,0.01815 -0.01434,0.02605c-0.01648,0.01159 -0.01773,0.00914 -0.0064,-0.01185l-0.00001,-0.00001l0,-0.00001zm2.41364,-0.02918c-0.02141,-0.04634 -0.00924,-0.05172 0.01479,-0.0065c0.01115,0.02125 0.01577,0.03847 0.01014,0.03847c-0.00569,0 -0.01692,-0.01432 -0.02493,-0.03198l-0.00001,0l0,0.00001l0.00001,0zm-0.52021,-0.00233c-0.00962,-0.00706 -0.00801,-0.02106 0.00581,-0.04616c0.01378,-0.02509 0.02367,-0.02957 0.03295,-0.01443c0.00735,0.01185 0.0106,0.02989 0.00717,0.04004c-0.0035,0.01015 0.00102,0.014 0.00991,0.00845c0.01025,-0.0063 0.01485,-0.03373 0.01255,-0.07605c-0.00361,-0.06406 -0.00273,-0.06544 0.02809,-0.04433c0.02297,0.01582 0.03417,0.01525 0.04008,-0.00233c0.00588,-0.0174 0.01049,-0.01772 0.01623,-0.00094c0.00444,0.01279 0.00214,0.02326 -0.00506,0.02326s-0.00979,0.00952 -0.00581,0.02106c0.00402,0.01142 0.00035,0.02106 -0.00801,0.02125c-0.01109,0.00031 -0.01049,0.00586 0.00218,0.02062c0.01423,0.01666 0.0127,0.02049 -0.00788,0.02081c-0.01378,0.00013 -0.02777,-0.01154 -0.03102,-0.02604c-0.00374,-0.01633 -0.00623,-0.01336 -0.00682,0.00832c-0.00126,0.05044 -0.0504,0.07574 -0.09034,0.04647l-0.00001,-0.00001l0,0.00001l0.00001,0l-0.00003,0zm-2.12995,-0.21488c0.0035,-0.01015 0.01819,-0.02384 0.03271,-0.03045c0.02546,-0.01141 0.02561,-0.01059 0.00385,0.01847c-0.02512,0.03368 -0.04638,0.04074 -0.03655,0.01199l0,-0.00001l-0.00001,0zm0.29783,-0.21242c0.02288,-0.02659 0.03833,-0.02659 0.02913,0c-0.00392,0.01142 -0.01599,0.02093 -0.02682,0.02081c-0.01707,-0.00038 -0.01731,-0.00315 -0.00231,-0.02081zm0.05824,-0.10485c0,-0.01141 0.00794,-0.02106 0.01749,-0.02106s0.01743,0.00971 0.01743,0.02106s-0.00788,0.02106 -0.01743,0.02106c-0.00962,0.00008 -0.01749,-0.00964 -0.01749,-0.02106zm1.03968,-0.36943c0.00391,-0.00693 0.01392,-0.00768 0.02237,-0.00169c0.00913,0.00662 0.00651,0.01172 -0.0071,0.01261c-0.01231,0.00107 -0.01914,-0.00396 -0.01528,-0.01091l0,-0.00001l0.00001,0zm-0.07806,-0.02862c-0.01239,-0.00788 -0.01758,-0.01911 -0.01162,-0.02497c0.01546,-0.01538 0.1163,-0.02232 0.10811,-0.00757c-0.01428,0.02572 -0.07498,0.04621 -0.0965,0.03254l0.00001,0zm0.07779,-0.09836c-0.02483,-0.01804 -0.01606,-0.05233 0.01168,-0.04528c0.01434,0.00372 0.02483,0.01635 0.02323,0.02769c-0.00346,0.02554 -0.01542,0.0314 -0.03491,0.01759l0,0.00001l0,-0.00001zm-0.16589,-0.01406c0,-0.00662 0.01186,-0.03524 0.02647,-0.06325c0.01914,-0.03695 0.04319,-0.05479 0.08598,-0.063c0.03281,-0.00629 0.07328,-0.01772 0.08999,-0.02522c0.02263,-0.01035 0.0304,-0.00568 0.0304,0.01708c0,0.04187 -0.03058,0.08588 -0.04687,0.06772c-0.0071,-0.00799 -0.03749,-0.0077 -0.06737,0.00075c-0.04337,0.01218 -0.04977,0.0186 -0.03117,0.03216c0.02109,0.01538 0.02057,0.01696 -0.00581,0.0186c-0.01605,0.00094 -0.0409,0.00738 -0.05533,0.01432c-0.01455,0.00701 -0.02631,0.00732 -0.02631,0.00082l-0.00001,0l0.00001,0.00001l0.00001,0.00001l0.00001,0zm1.11489,-0.38468c0.00788,-0.00568 0.02367,-0.00599 0.03494,-0.00075c0.01134,0.00536 0.00487,0.01001 -0.01434,0.01046c-0.01923,0.00043 -0.02854,-0.00386 -0.0206,-0.00971l0,-0.00001l0,0.00001z" fill="#fff"/>
 </g>
</svg>