<?xml version="1.0" standalone="no"?>
<!DOCTYPE svg PUBLIC "-//W3C//DTD SVG 20010904//EN"
 "http://www.w3.org/TR/2001/REC-SVG-20010904/DTD/svg10.dtd">
<svg version="1.0" xmlns="http://www.w3.org/2000/svg"
 width="500.000000pt" height="425.000000pt" viewBox="1 1 499 425"
 preserveAspectRatio="xMidYMid meet">
<rect x="0" y="0" width="100%" height="100%" fill="#666666" fill-opacity="0.9"/>
<g transform="translate(0.000000,425.000000) scale(0.100000,-0.100000)"
fill="#ffffff" stroke="none">

<path d="M0 2295 c0 -1075 3 -1955 6 -1955 3 0 24 13 47 28 23 16 97 61 165
101 l122 73 0 61 c0 59 0 60 -20 42 -23 -21 -25 -16 -8 20 15 33 38 32 39 -2
5 -109 -1 -196 -14 -210 -10 -9 33 -53 51 -53 9 0 13 7 9 19 -7 27 13 43 121
92 84 38 112 59 79 59 -7 0 -53 -18 -102 -39 -99 -44 -115 -42 -115 14 0 26 5
34 23 39 22 5 279 173 349 228 l38 29 17 -35 c9 -20 20 -36 25 -36 11 0 10 7
-8 41 -14 29 -14 32 3 45 24 18 27 17 48 -6 10 -11 23 -20 28 -20 6 0 0 11
-12 24 l-23 24 31 16 c17 9 31 21 31 27 0 6 6 6 19 -1 25 -13 34 -13 26 0 -4
6 11 18 34 28 32 13 41 22 41 42 1 16 8 4 21 -35 55 -159 184 -252 337 -243
119 7 214 74 272 192 90 182 21 399 -154 488 -51 26 -73 31 -136 32 -62 1 -84
-4 -130 -26 -95 -47 -169 -136 -194 -234 l-11 -45 -20 56 c-20 61 -29 69 -90
79 -94 16 -95 16 -95 44 0 48 12 55 75 47 32 -4 64 -9 72 -12 7 -3 13 0 13 5
0 6 -12 13 -27 15 l-28 4 30 2 c25 2 27 4 11 10 -19 7 -19 8 3 14 23 6 23 4
18 -37 -7 -47 3 -98 20 -103 7 -3 8 9 3 36 -4 22 -4 57 0 78 4 21 8 32 9 26 0
-7 9 -13 19 -14 14 0 14 -2 -3 -9 l-20 -9 20 -1 c17 -1 18 -2 3 -8 -33 -13 -5
-30 37 -22 30 6 34 8 15 10 -23 2 -22 3 6 10 33 7 124 67 124 81 0 4 -8 7 -17
7 -10 0 -38 3 -63 7 -25 4 -60 8 -77 9 -21 0 -33 6 -33 15 0 10 -3 11 -13 2
-8 -6 -17 -8 -21 -4 -4 4 -11 1 -16 -7 -8 -13 -10 -13 -10 2 0 11 -7 15 -25
13 -14 -1 -28 2 -31 7 -3 5 -13 3 -22 -4 -14 -12 -14 -10 -3 10 9 18 10 40 1
95 -6 40 -14 106 -18 147 -7 72 -8 74 -37 81 -16 3 -43 12 -59 18 l-29 12 6
87 c4 48 13 108 21 134 14 44 14 47 -5 53 -20 7 -26 30 -9 40 6 4 8 10 5 15
-8 13 6 40 21 40 8 0 14 3 14 8 0 4 7 15 15 26 13 18 15 18 40 -3 25 -19 29
-19 55 -6 26 13 30 13 45 -2 13 -13 15 -27 10 -67 -8 -58 -21 -80 -44 -71 -28
11 -5 -6 314 -236 171 -122 342 -246 380 -274 39 -27 84 -57 100 -65 17 -8 33
-16 38 -18 4 -2 7 6 7 18 0 16 -5 20 -25 18 -20 -2 -102 51 -353 232 l-327
235 3 142 3 142 -53 3 -53 3 1 50 c0 73 9 97 54 151 45 54 53 85 20 77 -14 -4
-20 -1 -18 8 2 7 -2 13 -9 14 -6 0 -15 5 -20 10 -4 6 -4 7 1 3 11 -10 38 40
29 55 -3 6 -1 7 5 3 7 -4 12 -2 12 3 0 6 5 11 11 11 7 0 20 10 30 22 l19 21
24 -22 c20 -19 28 -21 44 -12 12 6 34 11 51 11 25 0 32 -5 37 -26 9 -37 -22
-100 -58 -115 -25 -10 -32 -9 -56 11 -15 13 90 -93 233 -235 668 -662 795
-789 795 -792 0 -2 -5 -2 -12 0 -6 1 -16 -11 -22 -26 -15 -40 11 -60 56 -45
26 9 33 8 44 -7 18 -24 27 -14 18 19 -5 20 -11 25 -28 20 -22 -5 -66 20 -54
31 4 4 14 0 23 -9 9 -9 19 -16 23 -16 4 1 -189 194 -428 430 -239 236 -434
435 -432 441 13 51 31 182 27 190 -4 5 -19 9 -36 9 -26 0 -29 3 -29 31 0 62
22 109 77 162 49 47 72 94 40 81 -7 -2 -22 5 -33 17 -10 13 -13 19 -5 14 11
-6 13 -4 8 9 -4 9 -3 14 2 11 5 -3 12 3 16 14 3 11 18 24 34 29 15 5 35 17 44
27 9 9 17 12 17 6 0 -6 9 -19 21 -30 16 -14 27 -17 47 -11 39 10 72 -4 72 -32
0 -35 -45 -95 -75 -100 -19 -4 -31 1 -45 20 -11 14 -22 23 -24 21 -7 -7 63
-94 73 -92 5 1 8 -5 7 -15 0 -9 6 -17 14 -17 8 0 15 -9 15 -20 0 -11 5 -19 11
-18 6 1 11 -4 11 -10 0 -19 34 -68 43 -62 4 3 14 -3 21 -13 13 -16 13 -16 -5
-2 -32 25 -17 3 129 -194 77 -104 207 -279 289 -390 154 -209 189 -252 166
-206 -7 14 -21 37 -32 52 -10 15 -14 29 -10 32 5 3 33 -43 63 -102 47 -94 57
-107 82 -110 15 -2 25 -8 22 -13 -4 -5 10 -9 30 -9 30 0 36 3 31 16 -9 23 4
64 20 64 8 0 14 5 14 10 0 6 -9 10 -21 10 -24 0 -23 34 1 36 31 2 35 5 20 14
-17 11 -100 13 -124 4 -22 -9 -20 -24 3 -24 30 0 33 -16 5 -28 -20 -10 -26 -9
-29 3 -3 8 -7 22 -10 30 -2 8 0 15 6 15 5 0 7 11 3 24 -5 21 -3 23 20 19 15
-3 29 -9 32 -14 8 -14 64 -11 61 3 -1 6 9 15 23 19 16 5 -3 7 -53 6 -42 -1
-77 2 -77 6 0 5 -3 6 -7 4 -5 -3 -8 17 -8 43 0 31 4 45 10 40 5 -6 17 -10 26
-10 9 0 22 -7 29 -15 11 -13 8 -15 -13 -15 -14 0 -29 -4 -32 -10 -4 -6 5 -10
19 -10 14 0 26 -4 26 -10 0 -5 12 -10 26 -10 18 0 25 5 23 18 -1 9 0 20 1 25
1 4 3 12 4 19 0 7 12 15 26 19 15 4 -5 7 -52 8 -69 1 -78 3 -78 20 0 14 6 17
25 13 14 -2 25 -8 25 -13 0 -5 13 -9 30 -9 28 0 29 2 28 44 0 44 -1 45 -37 49
l-36 4 39 1 c29 2 37 6 33 16 -4 10 2 16 16 19 l22 4 -22 2 c-18 1 -22 6 -19
24 2 17 10 22 32 22 23 0 28 -4 26 -20 -1 -11 -2 -45 -1 -75 0 -30 0 -119 0
-198 0 -78 2 -142 5 -142 2 0 13 14 23 31 10 17 23 31 27 32 5 1 27 26 50 57
258 348 720 973 729 989 5 9 4 12 -3 7 -6 -3 -13 -2 -17 4 -9 14 -28 12 -51
-5 -18 -14 -16 -15 20 -9 36 6 38 6 27 -14 -19 -35 -77 -8 -108 51 -27 53 -1
80 65 66 30 -7 36 -4 50 22 17 29 32 38 32 19 0 -5 14 -17 32 -26 17 -9 42
-26 56 -39 23 -22 23 -23 7 -48 -10 -15 -22 -24 -31 -20 -30 11 -12 -23 35
-66 58 -55 78 -91 83 -151 3 -43 2 -44 -30 -51 -18 -4 -35 -9 -38 -11 -2 -3 5
-47 16 -99 l20 -94 -435 -430 c-239 -237 -435 -438 -435 -447 0 -18 20 -28 56
-28 30 0 40 23 25 56 l-11 25 -24 -28 c-13 -15 -27 -25 -30 -22 -3 3 87 98
201 211 115 112 344 339 510 503 166 164 300 302 296 308 -3 6 -2 7 4 4 5 -3
25 10 44 31 20 22 23 27 7 13 -24 -21 -29 -22 -54 -9 -15 7 -36 30 -47 51 -35
69 6 108 78 75 24 -11 29 -9 46 12 l19 25 19 -22 c11 -13 22 -23 26 -23 10 0
35 -28 35 -39 0 -6 5 -11 11 -11 5 0 7 -4 4 -10 -3 -5 -1 -10 5 -10 6 0 2 -9
-8 -20 -12 -13 -25 -18 -35 -14 -32 12 -18 -28 28 -83 47 -57 59 -93 53 -158
l-3 -40 -53 -3 -53 -3 2 -145 2 -145 -49 -34 c-27 -19 -88 -63 -135 -97 -48
-35 -175 -126 -283 -203 -108 -77 -196 -144 -196 -148 0 -10 35 14 347 241
142 103 302 218 355 257 l98 69 -20 21 c-28 29 -28 120 -2 134 13 7 25 6 38
-3 10 -8 21 -15 24 -17 3 -2 16 6 29 18 13 12 28 20 34 16 5 -3 0 -13 -11 -22
l-21 -16 35 -47 c36 -51 48 -57 58 -33 3 9 -3 19 -15 26 -11 6 -18 13 -15 16
3 3 -4 13 -16 23 -24 19 -12 35 13 17 15 -12 49 -72 49 -88 0 -4 -9 -10 -19
-14 -21 -6 -21 -10 -1 -107 6 -32 10 -84 8 -115 l-3 -57 -47 -16 c-26 -9 -51
-19 -54 -23 -3 -3 -12 -60 -19 -127 -8 -67 -17 -135 -20 -151 -4 -18 -3 -29 4
-29 6 0 11 -4 11 -10 0 -5 -7 -7 -15 -4 -9 4 -15 0 -15 -7 0 -11 -3 -11 -11 1
-7 10 -12 11 -15 4 -4 -10 -53 -10 -81 0 -6 3 -13 0 -15 -6 -2 -6 -16 -10 -31
-10 -15 0 -27 -4 -27 -9 0 -5 -7 -6 -15 -3 -9 4 -15 0 -15 -7 0 -11 -3 -11
-11 1 -8 11 -12 12 -16 2 -2 -6 -9 -9 -15 -6 -6 4 -14 0 -19 -7 -6 -10 -9 -11
-9 -1 0 6 -4 12 -10 12 -47 0 68 -89 117 -91 l28 -1 -25 -8 c-29 -9 -28 -10
22 -14 21 -2 35 1 32 6 -3 4 1 8 8 9 7 0 4 4 -7 9 l-20 9 20 1 c19 1 19 2 1 9
-18 7 -18 8 -2 14 23 9 30 -13 23 -79 -3 -30 -2 -54 3 -54 11 0 20 37 20 83 0
34 2 37 28 36 23 -2 24 -2 5 -6 -13 -3 -23 -12 -23 -21 0 -14 2 -14 9 -3 6 9
20 12 40 9 17 -2 31 -1 31 4 0 4 11 8 23 8 28 0 57 -29 57 -57 0 -20 -8 -23
-136 -48 -26 -5 -35 -14 -48 -48 -9 -24 -16 -56 -17 -72 0 -24 -5 -16 -23 35
-12 36 -28 76 -35 90 -67 127 -211 198 -344 170 -70 -14 -163 -73 -200 -127
-35 -50 -67 -133 -68 -176 -1 -17 -3 -24 -6 -14 -11 41 -48 17 -160 -100 -82
-86 -113 -126 -116 -148 -2 -16 -5 34 -5 113 -1 87 -6 142 -12 142 -5 0 -10
-9 -10 -20 0 -21 -15 -27 -25 -10 -9 15 -23 12 -45 -10 -17 -17 -20 -33 -20
-123 l0 -102 -65 -19 -65 -18 0 -45 c0 -35 3 -44 14 -40 8 3 34 11 57 18 24 7
50 18 58 25 11 10 18 10 37 -2 27 -18 30 -14 39 54 7 55 2 62 -36 41 -19 -10
-20 -7 -18 85 2 105 11 126 48 106 20 -10 21 -20 21 -137 0 -165 -15 -253 -42
-253 -14 0 -19 -6 -16 -22 3 -20 10 -23 52 -26 68 -4 96 4 96 28 0 11 -4 21
-10 21 -5 1 -15 2 -22 3 -15 1 -26 38 -27 92 l-1 41 81 27 c45 14 84 25 86 22
2 -2 -10 -29 -27 -60 -18 -31 -30 -56 -27 -56 3 0 22 30 43 67 20 37 47 76 59
87 19 19 27 39 51 141 7 28 8 26 16 -23 16 -106 86 -206 180 -258 48 -26 62
-29 143 -29 75 0 98 4 135 23 85 44 149 120 181 217 10 27 18 43 18 34 1 -8
19 -25 41 -38 22 -12 37 -27 34 -33 -3 -5 2 -8 12 -7 11 2 34 -7 51 -21 31
-22 32 -25 16 -42 -9 -10 -11 -18 -6 -18 6 0 16 6 22 14 10 12 16 12 41 -2 27
-16 28 -17 13 -45 -20 -39 -8 -48 13 -10 l17 30 76 -57 c183 -137 307 -222
333 -227 16 -3 27 -11 25 -17 -7 -22 -45 -16 -122 19 -42 19 -84 35 -91 35
-34 0 -8 -20 71 -56 65 -29 85 -43 86 -59 0 -18 1 -18 8 -2 6 18 7 17 24 -1
10 -11 15 -26 11 -36 -9 -25 19 -20 45 8 14 14 18 26 12 30 -5 4 -8 13 -4 21
3 8 1 15 -4 15 -5 0 -10 7 -10 15 0 8 4 15 9 15 4 0 8 -7 8 -16 0 -10 65 -47
194 -110 106 -52 196 -94 200 -94 3 0 6 889 6 1975 l0 1975 -1230 0 -1229 0
20 -35 c28 -46 41 -231 17 -240 -20 -8 -71 12 -63 25 3 5 1 18 -4 27 -9 16
-10 16 -11 -4 0 -29 -6 -28 -55 5 -48 33 -53 57 -25 111 11 23 16 41 10 41
-20 0 -23 31 -5 50 18 20 10 20 -1203 20 l-1222 0 0 -1955z m2226 1765 c62
-28 175 -133 219 -203 11 -18 25 -38 32 -45 7 -7 13 -20 13 -28 0 -8 5 -14 10
-14 6 0 10 4 10 8 0 20 111 135 167 173 68 47 179 96 258 115 88 21 130 12
194 -39 47 -38 57 -70 11 -37 -26 19 -32 20 -45 7 -13 -13 -12 -18 6 -41 24
-30 23 -31 -24 -11 -42 17 -61 19 -52 5 3 -5 1 -10 -6 -10 -8 0 -8 -4 1 -15
16 -19 3 -19 -30 0 -38 22 -56 18 -29 -6 l24 -20 -27 5 c-14 3 -33 9 -42 12
-12 5 -13 2 -4 -18 11 -23 14 -23 162 -24 183 -2 235 -17 321 -96 66 -60 71
-79 11 -44 -56 33 -60 33 -41 -4 27 -52 16 -56 -25 -10 -39 44 -50 48 -29 9 5
-11 9 -28 7 -37 -2 -11 -15 0 -42 36 -41 57 -57 62 -36 12 7 -17 11 -33 8 -35
-2 -2 -31 20 -63 50 -32 30 -62 55 -67 55 -4 0 7 -20 24 -45 31 -44 33 -70 3
-45 -9 7 -18 10 -21 7 -4 -3 -23 3 -44 13 -36 18 -38 18 -33 1 3 -12 21 -22
56 -30 29 -6 81 -26 116 -43 71 -35 114 -89 125 -156 4 -20 9 -49 12 -64 3
-17 1 -28 -5 -28 -6 0 -11 8 -11 18 -1 9 -7 28 -15 42 -14 25 -14 24 -16 -20
l-1 -45 -12 46 c-7 25 -18 54 -24 65 -10 16 -11 13 -12 -24 0 -26 -4 -41 -10
-37 -5 3 -10 20 -10 37 0 22 -4 29 -14 25 -10 -4 -16 2 -19 16 -3 15 -5 12 -6
-10 0 -18 -4 -33 -7 -33 -10 0 -44 42 -44 54 0 6 -9 22 -20 36 -16 20 -20 22
-20 8 0 -10 -4 -18 -10 -18 -5 0 -10 -8 -10 -17 0 -15 -4 -13 -20 7 -11 14
-20 34 -21 45 0 12 -5 7 -11 -14 l-10 -35 -18 40 -18 39 -2 -35 -1 -35 -24 45
-24 45 -1 -38 c0 -34 4 -40 45 -65 95 -56 111 -69 162 -132 51 -63 69 -95 38
-70 -13 10 -15 9 -15 -11 -1 -24 -1 -24 -16 4 -18 33 -28 35 -19 5 6 -22 6
-22 -15 2 -21 25 -22 25 -17 3 3 -13 2 -23 -3 -23 -4 0 -10 10 -13 23 -4 12
-13 31 -22 42 -15 19 -16 17 -11 -30 l6 -50 -27 55 -27 55 -4 -45 -4 -45 -34
70 -34 70 3 -42 c1 -24 0 -43 -3 -43 -3 0 -16 24 -29 53 l-24 52 -6 -35 -6
-35 -28 47 c-36 62 -47 67 -41 21 l5 -38 -18 24 c-10 14 -26 34 -35 45 -17 21
-17 21 -18 -11 0 -25 7 -35 35 -52 39 -22 117 -135 140 -202 20 -56 32 -154
18 -146 -6 4 -14 23 -17 42 -8 41 -17 44 -39 13 -16 -22 -16 -22 -16 20 -1 23
-5 42 -11 42 -5 0 -10 -4 -10 -10 0 -5 -4 -10 -10 -10 -5 0 -10 18 -10 39 0
46 -15 62 -24 26 -4 -14 -10 -25 -15 -25 -5 0 -7 9 -4 21 3 12 0 24 -6 29 -7
4 -15 27 -18 51 -5 33 -8 39 -14 24 -7 -21 -7 -22 -28 38 -6 15 -17 27 -25 27
-13 0 -11 -7 5 -35 12 -19 22 -50 24 -68 2 -17 13 -54 24 -81 25 -57 22 -68
-8 -30 -26 33 -26 31 -1 -41 24 -68 25 -86 6 -60 -13 18 -13 15 -6 -25 5 -25
9 -63 9 -85 l-1 -40 -11 32 c-20 53 -27 49 -28 -13 0 -32 -4 -77 -8 -99 -7
-38 -7 -37 -15 33 -4 39 -10 72 -14 72 -4 0 -16 -18 -26 -40 -10 -22 -28 -47
-38 -57 -18 -16 -18 -14 1 28 21 45 27 79 14 79 -5 0 -21 -10 -36 -23 -27 -21
-28 -26 -29 -112 -1 -49 0 -128 1 -175 1 -47 2 -91 2 -98 -1 -20 -146 -12
-146 8 0 16 37 15 43 -1 2 -5 15 -9 28 -9 17 0 24 6 24 20 0 14 7 20 23 21 16
1 18 2 5 6 -10 2 -18 13 -18 24 0 16 -7 19 -50 19 -43 0 -50 3 -50 20 0 13 7
20 20 20 25 0 26 -17 3 -23 -10 -3 3 -5 30 -6 45 -1 47 0 41 23 -4 17 0 27 13
35 17 10 17 10 1 11 -10 0 -18 7 -18 15 0 11 -11 15 -40 15 -29 0 -40 4 -40
15 0 17 35 21 45 5 11 -17 32 -11 38 11 3 12 10 18 16 14 6 -3 11 -1 11 6 0 8
-17 10 -55 7 -49 -4 -55 -3 -55 15 0 14 4 17 18 12 40 -17 62 -18 62 -1 0 12
-10 16 -40 16 -33 0 -40 3 -40 19 0 14 5 18 20 14 11 -3 20 -9 20 -14 0 -5 11
-9 25 -9 25 0 33 14 15 25 -18 11 -11 25 13 26 16 1 18 2 5 6 -26 6 -22 23 5
24 21 1 21 1 -3 9 -14 4 -42 5 -62 3 -33 -5 -38 -3 -43 20 -4 14 -4 30 -1 36
7 11 -22 76 -30 68 -3 -3 0 -24 6 -47 13 -47 6 -67 -9 -27 -10 25 -31 46 -31
30 0 -4 6 -34 14 -66 15 -63 6 -66 -13 -5 -7 20 -18 41 -25 47 -11 9 -15 -4
-21 -71 -8 -98 -25 -88 -25 16 0 68 0 69 -20 51 -19 -17 -19 -16 -16 36 1 30
8 64 15 77 13 24 3 30 -17 10 -21 -21 -14 14 8 42 23 30 25 40 6 40 -29 0 -26
20 6 40 l33 20 -27 0 c-40 0 -34 13 20 43 l47 27 -42 0 c-30 0 -45 -5 -52 -17
-10 -17 -10 -17 -11 0 0 9 -2 17 -4 17 -2 0 -11 3 -20 6 -13 5 -16 -3 -17 -47
0 -54 -3 -53 -25 6 -5 15 -9 6 -15 -33 -9 -66 -16 -74 -24 -28 -8 41 -25 49
-25 12 0 -13 -3 -32 -7 -42 -5 -14 -9 -11 -19 17 -12 32 -13 30 -7 -31 l6 -65
-21 25 -20 25 -7 -70 c-9 -95 -11 -98 -19 -38 -5 29 -11 55 -16 58 -4 3 -13
-26 -20 -63 -6 -37 -14 -74 -16 -82 -10 -30 -24 14 -24 79 0 53 -2 62 -14 52
-8 -6 -24 -35 -37 -64 -16 -36 -24 -46 -27 -33 -6 29 17 107 44 148 13 21 24
40 24 43 0 12 -24 4 -36 -12 -12 -16 -13 -15 -14 15 0 20 -4 31 -10 27 -5 -3
-10 -19 -10 -35 0 -22 -4 -28 -15 -24 -12 5 -15 -3 -15 -37 0 -40 -1 -41 -15
-23 -14 18 -14 17 -15 -16 -1 -33 -1 -34 -15 -16 -14 19 -15 18 -15 -11 0 -18
-4 -35 -10 -38 -15 -9 -12 79 4 147 20 86 71 161 172 255 57 53 95 98 103 120
19 52 8 50 -35 -9 -27 -36 -40 -47 -42 -36 -2 9 2 27 9 40 12 23 12 23 -9 5
-11 -10 -33 -43 -48 -73 -29 -57 -50 -62 -40 -10 5 29 5 30 -10 11 -8 -11 -20
-39 -26 -62 -12 -48 -22 -54 -33 -20 -7 20 -8 19 -12 -11 -4 -28 -7 -31 -19
-21 -12 10 -14 4 -14 -37 0 -47 -13 -52 -23 -9 -4 18 -5 17 -6 -3 -1 -16 -6
-22 -18 -20 -12 2 -19 -4 -21 -19 -6 -41 -22 -24 -23 25 0 39 -2 43 -9 22 -5
-14 -11 -42 -15 -64 -9 -51 -28 -33 -28 26 0 68 37 139 106 205 61 58 167 125
219 138 14 4 31 18 37 31 17 37 14 40 -14 14 -35 -33 -41 -19 -8 21 26 32 26
33 3 14 -14 -10 -42 -35 -62 -54 -45 -42 -58 -35 -28 14 31 50 21 52 -25 5
-37 -38 -72 -57 -45 -25 6 8 10 19 8 25 -2 6 -21 -15 -42 -47 -31 -46 -37 -52
-32 -28 7 29 7 29 -13 11 -31 -28 -34 -14 -6 24 14 19 25 36 25 39 -1 8 -73
-71 -86 -95 -21 -36 -26 -6 -6 39 27 62 84 121 145 151 41 21 65 26 126 26 96
0 238 -23 336 -54 72 -23 145 -26 145 -6 0 4 -28 13 -62 20 -53 11 -59 14 -38
21 14 4 39 8 55 9 26 1 27 2 10 9 -11 5 -45 12 -75 16 l-55 8 35 16 35 16 -57
3 c-32 2 -58 6 -58 10 0 5 16 14 35 21 50 18 43 31 -14 31 -63 0 -72 13 -23
33 l37 15 -33 18 c-19 11 -41 25 -50 32 -28 20 33 4 104 -28z m891 -512 c-3
-8 -6 -5 -6 6 -1 11 2 17 5 13 3 -3 4 -12 1 -19z m-1794 -424 c-3 -8 -7 -14
-10 -14 -3 0 -3 7 1 15 3 8 1 15 -4 15 -6 0 -10 5 -10 11 0 8 4 8 14 -1 8 -6
12 -18 9 -26z m2297 16 c0 -5 -5 -10 -11 -10 -5 0 -7 5 -4 10 3 6 8 10 11 10
2 0 4 -4 4 -10z m-1184 -165 c-8 -8 -17 -15 -20 -15 -3 0 -6 7 -6 15 0 9 9 15
21 15 18 0 19 -2 5 -15z m1619 -134 c-3 -6 -11 -11 -17 -11 -6 0 -6 6 2 15 14
17 26 13 15 -4z m-3160 -9 c-3 -3 -11 0 -18 7 -9 10 -8 11 6 5 10 -3 15 -9 12
-12z m1871 -78 c-8 -27 -15 -43 -15 -35 -1 18 21 92 26 87 2 -2 -2 -26 -11
-52z m-596 -7 c7 -21 10 -40 8 -42 -2 -3 -12 18 -21 47 -9 28 -12 47 -8 42 5
-5 14 -26 21 -47z m266 35 c-15 -3 -16 -6 -5 -13 11 -6 8 -9 -8 -9 -16 0 -23
6 -23 19 0 15 5 17 28 13 21 -5 23 -7 8 -10z m489 -47 c-10 -19 -19 -34 -22
-32 -2 3 4 21 13 41 10 19 19 34 22 32 2 -3 -4 -21 -13 -41z m-895 -37 c1 -19
-18 -6 -24 16 -3 13 -8 32 -12 43 -3 10 4 2 15 -17 11 -19 20 -38 21 -42z
m-983 20 c-3 -8 -6 -5 -6 6 -1 11 2 17 5 13 3 -3 4 -12 1 -19z m1396 -43 c-1
-5 -11 -12 -22 -17 -17 -6 -21 -3 -21 13 0 15 5 20 23 17 12 -2 21 -7 20 -13z
m-1458 -13 c-3 -3 -11 0 -18 7 -9 10 -8 11 6 5 10 -3 15 -9 12 -12z m920 -72
c14 -27 21 -59 10 -49 -8 9 -35 79 -30 79 2 0 11 -13 20 -30z m1115 -21 c-11
-24 -20 -36 -20 -26 0 19 31 79 37 73 2 -2 -6 -23 -17 -47z m-478 -19 c2 -23
1 -44 -2 -49 -3 -4 -30 -8 -60 -8 -30 0 -40 1 -22 4 19 2 32 10 32 19 0 8 10
14 23 15 21 1 21 1 -3 12 -32 15 -29 47 5 47 20 0 23 -6 27 -40z m-98 15 c4
-10 -1 -15 -14 -15 -11 0 -23 0 -27 -1 -5 0 -9 7 -11 15 -5 21 44 22 52 1z
m-147 -58 c4 -6 0 -8 -10 -4 -9 3 -17 1 -20 -6 -2 -6 -6 -2 -9 9 -4 17 -2 20
13 17 11 -3 22 -10 26 -16z m143 14 c0 -9 -24 -21 -41 -21 -5 0 -9 7 -9 15 0
9 9 15 25 15 14 0 25 -4 25 -9z m230 -8 c0 -5 -5 -15 -11 -23 -9 -13 -10 -12
-5 3 3 9 1 17 -4 17 -6 0 -10 -7 -10 -15 0 -8 -4 -15 -10 -15 -14 0 -12 27 3
33 19 8 37 8 37 0z m-129 -40 c0 -5 2 -48 3 -98 2 -61 7 -89 15 -87 6 1 11 -5
11 -14 0 -8 -4 -12 -10 -9 -5 3 -9 -2 -8 -12 0 -10 0 -32 0 -50 l-2 -31 -80
-4 c-79 -3 -81 -2 -86 22 -3 14 -7 31 -9 37 -3 7 7 16 20 19 42 10 64 -18 23
-30 -23 -6 -22 -6 6 -21 42 -22 70 -20 63 5 -3 11 -1 22 4 25 4 3 6 12 2 20
-3 10 -20 15 -54 15 -37 0 -49 4 -49 15 0 9 9 15 25 15 14 0 25 -5 25 -11 0
-6 12 -9 28 -7 46 5 30 23 -25 26 -45 3 -53 6 -53 23 0 17 4 19 23 13 12 -3
24 -11 25 -15 2 -5 15 -9 28 -9 17 0 24 6 24 20 0 17 -7 20 -50 20 -38 0 -50
4 -50 15 0 9 9 15 25 15 14 0 25 -4 25 -10 0 -5 11 -10 25 -10 16 0 25 6 25
15 0 11 -12 15 -50 15 -42 0 -50 3 -50 19 0 14 6 17 25 13 14 -2 25 -8 25 -13
0 -5 11 -9 25 -9 20 0 25 5 25 24 0 37 10 56 31 56 10 0 19 -3 20 -7z m-103
-15 c-6 -18 -48 -21 -48 -3 0 9 10 15 26 15 15 0 24 -5 22 -12z m-255 -18 c3
-11 1 -20 -4 -20 -5 0 -9 2 -9 4 0 2 -3 11 -6 20 -3 9 -2 16 4 16 5 0 12 -9
15 -20z m601 8 c-3 -4 -12 -8 -20 -8 -8 0 -14 -5 -14 -12 0 -6 -3 -9 -6 -5
-12 12 5 36 25 34 11 0 17 -5 15 -9z m-1423 -65 c13 -16 12 -17 -3 -4 -10 7
-18 15 -18 17 0 8 8 3 21 -13z m1404 7 c3 -5 1 -10 -4 -10 -6 0 -11 5 -11 10
0 6 2 10 4 10 3 0 8 -4 11 -10z m-458 -42 c-3 -8 -6 -5 -6 6 -1 11 2 17 5 13
3 -3 4 -12 1 -19z m36 0 c9 -31 2 -33 -11 -3 -6 14 -8 25 -3 25 5 0 11 -10 14
-22z m274 -10 c-3 -8 -6 -5 -6 6 -1 11 2 17 5 13 3 -3 4 -12 1 -19z m-2012 2
c3 -5 1 -10 -4 -10 -6 0 -11 5 -11 10 0 6 2 10 4 10 3 0 8 -4 11 -10z m3735 6
c0 -3 -4 -8 -10 -11 -5 -3 -10 -1 -10 4 0 6 5 11 10 11 6 0 10 -2 10 -4z
m-2232 -33 c2 -7 -1 -13 -8 -13 -6 0 -8 5 -4 12 5 8 0 9 -14 6 -12 -4 -22 -2
-22 4 0 14 43 5 48 -9z m752 7 c0 -5 -7 -7 -15 -4 -8 4 -15 1 -15 -5 0 -6 -4
-11 -10 -11 -5 0 -7 7 -4 15 7 16 44 21 44 5z m-253 -22 c-3 -8 -6 -5 -6 6 -1
11 2 17 5 13 3 -3 4 -12 1 -19z m-238 -32 c1 -5 -2 -6 -6 -3 -3 4 -12 2 -20
-4 -9 -9 -13 -8 -13 0 0 6 5 11 10 11 6 0 10 10 11 23 0 21 1 21 9 2 5 -11 9
-24 9 -29z m-1728 17 c13 -16 12 -17 -3 -4 -10 7 -18 15 -18 17 0 8 8 3 21
-13z m1619 -37 c0 -6 -6 -2 -13 9 -8 10 -19 15 -25 11 -16 -10 -15 1 1 18 10
12 14 10 24 -8 7 -11 12 -25 13 -30z m452 21 c-4 -15 -7 -16 -13 -5 -7 11 -11
10 -19 -2 -11 -16 -13 -10 -5 12 9 22 43 17 37 -5z m-112 3 c0 -5 -5 -10 -11
-10 -5 0 -7 5 -4 10 3 6 8 10 11 10 2 0 4 -4 4 -10z m-334 -92 c-9 -12 -16
-20 -16 -16 0 3 -3 14 -6 22 -5 12 -2 15 11 10 14 -6 16 -3 11 17 -6 20 -5 21
4 6 8 -13 7 -22 -4 -39z m405 12 c5 0 9 5 9 12 0 6 2 9 5 6 3 -3 3 -13 -1 -22
-5 -13 -9 -14 -20 -5 -8 6 -14 8 -14 4 0 -5 -2 -6 -5 -3 -3 3 -2 14 2 24 7 17
8 17 11 2 2 -10 8 -18 13 -18z m-232 -54 c9 -11 6 -15 -16 -19 -32 -6 -43 -1
-43 19 0 18 44 19 59 0z m-12 -42 c15 -4 14 -7 -7 -18 -30 -15 -40 -12 -40 14
0 13 5 18 15 15 8 -3 23 -7 32 -11z m-187 -36 c0 -5 -7 -3 -15 6 -8 8 -15 18
-15 22 0 3 7 1 15 -6 8 -7 15 -17 15 -22z m476 20 c4 -7 3 -8 -4 -4 -7 4 -12
3 -12 -1 0 -5 -7 -18 -15 -29 -14 -17 -14 -15 0 14 17 35 20 37 31 20z m1234
-3 c0 -2 -10 -9 -22 -15 -22 -11 -22 -10 -4 4 21 17 26 19 26 11z m-1510 -45
c0 -13 -44 -20 -51 -8 -4 7 -6 15 -4 19 6 8 55 -1 55 -11z m226 -36 c-4 -9 -9
-15 -11 -12 -3 3 -3 13 1 22 4 9 9 15 11 12 3 -3 3 -13 -1 -22z m-396 6 c0 -5
-5 -10 -11 -10 -5 0 -7 5 -4 10 3 6 8 10 11 10 2 0 4 -4 4 -10z m-30 -21 c0
-6 -4 -7 -10 -4 -5 3 -10 11 -10 16 0 6 5 7 10 4 6 -3 10 -11 10 -16z m392
-148 c-15 -21 -28 -37 -30 -36 -7 6 29 65 39 65 6 0 7 5 3 12 -4 7 -3 8 4 4 8
-4 2 -19 -16 -45z m-268 -7 c3 -8 2 -12 -4 -9 -6 3 -10 10 -10 16 0 14 7 11
14 -7z m74 -110 c2 -1 -6 -7 -17 -14 -24 -12 -41 -6 -41 16 0 11 7 13 28 8 15
-4 29 -8 30 -10z m-1535 -239 c-7 -21 -13 -19 -13 6 0 11 4 18 10 14 5 -3 7
-12 3 -20z m124 -67 c-3 -8 -6 -5 -6 6 -1 11 2 17 5 13 3 -3 4 -12 1 -19z
m3070 -35 c-3 -10 -5 -4 -5 12 0 17 2 24 5 18 2 -7 2 -21 0 -30z m-2689 16
c-2 -6 -8 -10 -13 -10 -5 0 -11 4 -13 10 -2 6 4 11 13 11 9 0 15 -5 13 -11z
m2132 -4 c0 -8 -4 -15 -10 -15 -5 0 -10 7 -10 15 0 8 5 15 10 15 6 0 10 -7 10
-15z m400 -11 c0 -2 -9 -4 -20 -4 -11 0 -20 4 -20 9 0 5 9 7 20 4 11 -3 20 -7
20 -9z m-2650 -9 c0 -8 -4 -15 -10 -15 -5 0 -10 7 -10 15 0 8 5 15 10 15 6 0
10 -7 10 -15z m2368 3 c-6 -18 -28 -21 -28 -4 0 9 7 16 16 16 9 0 14 -5 12
-12z m-2725 -5 c-7 -2 -19 -2 -25 0 -7 3 -2 5 12 5 14 0 19 -2 13 -5z m587 -3
c0 -5 -7 -10 -15 -10 -8 0 -15 5 -15 10 0 6 7 10 15 10 8 0 15 -4 15 -10z
m1910 0 c0 -5 -7 -10 -15 -10 -8 0 -15 5 -15 10 0 6 7 10 15 10 8 0 15 -4 15
-10z m-2297 -7 c-7 -2 -19 -2 -25 0 -7 3 -2 5 12 5 14 0 19 -2 13 -5z m2680 0
c-7 -2 -19 -2 -25 0 -7 3 -2 5 12 5 14 0 19 -2 13 -5z m-3313 -95 c0 -4 -15
-8 -32 -8 -50 0 -81 -20 -91 -60 -11 -44 -21 -51 -77 -49 -25 1 -61 -1 -80 -5
-33 -8 -34 -7 -19 9 10 9 38 21 64 26 67 13 76 23 70 78 -7 54 -1 65 45 85 35
15 35 15 78 -27 23 -23 42 -45 42 -49z m1001 55 c60 -31 112 -92 129 -151 5
-20 10 -66 10 -102 0 -199 -190 -321 -366 -235 -97 47 -150 146 -142 262 6 79
30 132 85 185 51 49 95 67 169 68 47 0 73 -6 115 -27z m2145 3 c154 -72 195
-298 79 -434 -99 -115 -285 -114 -380 3 -68 82 -84 220 -37 310 26 50 86 109
132 129 54 24 146 20 206 -8z m914 11 c22 -11 26 -21 30 -77 5 -63 6 -65 38
-72 17 -4 46 -11 64 -16 17 -4 33 -13 36 -21 3 -10 -2 -11 -19 -6 -12 4 -47 7
-77 6 -61 -1 -82 10 -82 43 0 37 -22 55 -78 63 l-53 8 36 43 c39 44 62 51 105
29z m-3369 -30 c-1 -12 -15 -9 -19 4 -3 6 1 10 8 8 6 -3 11 -8 11 -12z m424
-17 c-5 -8 -11 -8 -17 -2 -6 6 -7 16 -3 22 5 8 11 8 17 2 6 -6 7 -16 3 -22z
m1711 -7 c-11 -11 -19 6 -11 24 8 17 8 17 12 0 3 -10 2 -21 -1 -24z m425 24
c-1 -12 -15 -9 -19 4 -3 6 1 10 8 8 6 -3 11 -8 11 -12z m346 -19 c-3 -8 -6 -5
-6 6 -1 11 2 17 5 13 3 -3 4 -12 1 -19z m-2969 -79 c-2 -6 -8 -10 -13 -10 -5
0 -11 4 -13 10 -2 6 4 11 13 11 9 0 15 -5 13 -11z m2692 -4 c0 -8 -4 -15 -9
-15 -13 0 -22 16 -14 24 11 11 23 6 23 -9z m-2140 -16 c0 -5 -7 -9 -15 -9 -15
0 -20 12 -9 23 8 8 24 -1 24 -14z m1590 6 c0 -8 -4 -15 -10 -15 -5 0 -10 7
-10 15 0 8 5 15 10 15 6 0 10 -7 10 -15z m-2592 -86 c29 -36 22 -38 -14 -4
-36 33 -45 22 -11 -13 15 -16 27 -32 27 -36 0 -5 -13 6 -30 24 -16 18 -30 38
-30 46 0 24 34 14 58 -17z m3632 20 c0 -5 -5 -7 -10 -4 -6 4 -23 -5 -37 -19
-14 -14 -30 -26 -36 -26 -6 0 3 13 19 30 29 29 64 40 64 19z m-3263 -66 c-3
-10 -5 -2 -5 17 0 19 2 27 5 18 2 -10 2 -26 0 -35z m3253 44 c0 -2 -17 -19
-37 -38 -21 -19 -29 -23 -18 -9 11 13 25 30 30 37 9 11 25 18 25 10z m-3200
-22 c0 -8 -4 -15 -9 -15 -13 0 -22 16 -14 24 11 11 23 6 23 -9z m2741 -8 c-13
-13 -26 -3 -16 12 3 6 11 8 17 5 6 -4 6 -10 -1 -17z m-2141 -8 c0 -5 -7 -9
-15 -9 -15 0 -20 12 -9 23 8 8 24 -1 24 -14z m1550 0 c0 -5 -4 -9 -10 -9 -5 0
-10 7 -10 16 0 8 5 12 10 9 6 -3 10 -10 10 -16z m-2500 -39 c0 -15 -5 -12 -26
11 -19 22 -19 22 4 10 12 -6 22 -16 22 -21z m3445 10 c-3 -5 -12 -10 -18 -10
-7 0 -6 4 3 10 19 12 23 12 15 0z m-3455 -42 c0 -14 -19 1 -31 25 -12 22 -12
22 10 3 11 -11 21 -23 21 -28z m3480 29 c0 -2 -10 -12 -22 -23 l-23 -19 19 23
c18 21 26 27 26 19z m-3100 -67 c0 -5 -4 -10 -10 -10 -5 0 -10 5 -10 10 0 6 5
10 10 10 6 0 10 -4 10 -10z m2710 0 c0 -5 -7 -10 -15 -10 -8 0 -15 5 -15 10 0
6 7 10 15 10 8 0 15 -4 15 -10z m-2160 -10 c0 -5 -4 -10 -10 -10 -5 0 -10 5
-10 10 0 6 5 10 10 10 6 0 10 -4 10 -10z m1610 0 c0 -5 -7 -10 -15 -10 -8 0
-15 5 -15 10 0 6 7 10 15 10 8 0 15 -4 15 -10z m-2098 -95 c0 -5 -5 -11 -11
-13 -6 -2 -11 4 -11 13 0 9 5 15 11 13 6 -2 11 -8 11 -13z m2578 0 c0 -8 -4
-15 -10 -15 -5 0 -10 7 -10 15 0 8 5 15 10 15 6 0 10 -7 10 -15z m-2152 -6
c-2 -6 -8 -10 -13 -10 -5 0 -11 4 -13 10 -2 6 4 11 13 11 9 0 15 -5 13 -11z
m1732 -4 c0 -8 -4 -15 -10 -15 -5 0 -10 7 -10 15 0 8 5 15 10 15 6 0 10 -7 10
-15z m-2870 -45 c0 -5 -5 -10 -11 -10 -5 0 -7 5 -4 10 3 6 8 10 11 10 2 0 4
-4 4 -10z m4015 0 c3 -5 1 -10 -4 -10 -6 0 -11 5 -11 10 0 6 2 10 4 10 3 0 8
-4 11 -10z m-3205 -15 c0 -8 -4 -15 -9 -15 -13 0 -22 16 -14 24 11 11 23 6 23
-9z m225 -15 c-5 -8 -11 -8 -17 -2 -6 6 -7 16 -3 22 5 8 11 8 17 2 6 -6 7 -16
3 -22z m1935 4 c0 -16 -16 -19 -25 -4 -8 13 4 32 16 25 5 -4 9 -13 9 -21z
m230 11 c0 -8 -4 -15 -9 -15 -13 0 -22 16 -14 24 11 11 23 6 23 -9z m-3240
-15 c-11 -20 -49 -46 -62 -42 -4 1 -5 -5 -2 -13 5 -11 2 -13 -10 -9 -26 10
-19 23 31 54 56 35 57 36 43 10z m4149 -28 c13 -11 21 -24 17 -31 -10 -15 -29
-14 -23 2 2 6 -9 17 -24 24 -15 6 -33 21 -39 33 -11 21 -11 21 17 6 15 -8 39
-24 52 -34z m-3189 13 c0 -8 -4 -15 -10 -15 -5 0 -10 7 -10 15 0 8 5 15 10 15
6 0 10 -7 10 -15z m2162 0 c0 -5 -5 -11 -11 -13 -6 -2 -11 4 -11 13 0 9 5 15
11 13 6 -2 11 -8 11 -13z m1076 -80 c17 -36 15 -41 -6 -22 -10 10 -22 14 -25
10 -4 -3 -7 3 -7 15 0 30 24 28 38 -3z m-4236 -27 c-9 -9 -12 -7 -12 12 0 19
3 21 12 12 9 -9 9 -15 0 -24z m4168 12 c0 -5 -4 -10 -10 -10 -5 0 -10 5 -10
10 0 6 5 10 10 10 6 0 10 -4 10 -10z m-4133 -22 c-3 -8 -6 -5 -6 6 -1 11 2 17
5 13 3 -3 4 -12 1 -19z"/>
<path d="M2830 3895 c0 -2 11 -12 24 -21 18 -11 30 -13 43 -6 16 10 15 12 -10
21 -30 12 -57 14 -57 6z"/>
<path d="M2770 3870 l-25 -6 22 -12 c23 -12 73 -7 73 8 0 11 -41 17 -70 10z"/>
<path d="M2005 3765 c-37 -35 -43 -51 -13 -40 17 7 62 64 56 71 -3 2 -22 -12
-43 -31z"/>
<path d="M2872 3753 c15 -15 31 -23 35 -19 9 8 -32 46 -50 46 -7 0 1 -12 15
-27z"/>
<path d="M2049 3750 c-20 -16 -21 -19 -7 -20 10 0 22 9 28 20 13 25 8 25 -21
0z"/>
<path d="M2104 3756 c-22 -17 -11 -35 13 -20 19 12 29 34 16 34 -5 0 -18 -6
-29 -14z"/>
<path d="M2790 3755 c0 -16 46 -32 58 -20 8 8 -26 35 -45 35 -7 0 -13 -7 -13
-15z"/>
<path d="M2935 3750 c10 -11 23 -20 28 -20 6 0 2 9 -8 20 -10 11 -23 20 -28
20 -6 0 -2 -9 8 -20z"/>
<path d="M2730 3751 c0 -14 18 -23 31 -15 8 4 7 9 -2 15 -18 11 -29 11 -29 0z"/>
<path d="M2982 3748 c3 -7 15 -14 29 -16 23 -2 23 -2 5 13 -24 18 -39 20 -34
3z"/>
<path d="M2615 3740 c-26 -6 -22 -8 23 -9 33 -1 51 3 47 9 -7 11 -26 11 -70 0z"/>
<path d="M2898 3636 c-4 -18 -1 -29 9 -33 22 -9 26 3 10 33 l-14 27 -5 -27z"/>
<path d="M2045 3630 c-10 -11 -13 -20 -8 -20 13 0 38 29 31 35 -3 3 -13 -4
-23 -15z"/>
<path d="M2050 3549 c0 -5 5 -7 10 -4 6 3 10 8 10 11 0 2 -4 4 -10 4 -5 0 -10
-5 -10 -11z"/>
<path d="M2670 3532 c0 -12 7 -25 15 -29 27 -10 30 6 7 30 l-22 21 0 -22z"/>
<path d="M2255 3457 c-8 -31 -5 -40 11 -29 6 4 7 18 4 32 l-7 25 -8 -28z"/>
<path d="M2542 3418 c-14 -14 -16 -38 -3 -38 10 0 26 39 19 46 -2 2 -10 -2
-16 -8z"/>
<path d="M2547 3352 c-18 -20 -23 -52 -8 -52 10 0 36 58 29 65 -3 3 -12 -3
-21 -13z"/>
<path d="M1920 3330 c0 -13 11 -13 30 0 12 8 11 10 -7 10 -13 0 -23 -4 -23
-10z"/>
<path d="M2557 3286 c-15 -12 -17 -31 -17 -152 0 -76 4 -134 8 -129 5 6 19 28
32 49 20 33 21 38 7 33 -21 -8 -22 -12 8 61 32 78 31 82 -5 47 -33 -31 -40
-19 -13 22 17 26 17 26 -5 14 -26 -14 -27 -10 -6 30 18 36 16 42 -9 25z"/>
<path d="M2380 3194 c1 -16 29 -60 29 -44 0 8 -6 24 -14 34 -8 11 -15 16 -15
10z"/>
<path d="M1378 1230 c2 -55 8 -100 13 -100 5 0 9 21 9 48 0 26 3 71 6 100 6
47 5 52 -12 52 -18 0 -19 -7 -16 -100z"/>
<path d="M1420 1296 c0 -30 4 -36 21 -36 19 0 20 -2 8 -17 -13 -16 -12 -17 3
-5 9 7 33 12 53 10 l36 -3 -52 -50 c-28 -27 -49 -44 -45 -37 5 8 0 12 -13 12
-24 0 -28 -27 -8 -53 11 -16 19 -10 81 52 63 64 76 91 41 91 -7 0 -15 7 -19
15 -3 8 -11 15 -17 15 -7 0 -17 7 -23 14 -6 8 -23 18 -38 22 -27 6 -28 4 -28
-30z"/>
<path d="M1300 1312 c0 -5 -10 -12 -22 -15 -31 -8 -21 -13 40 -21 52 -7 53 -6
50 16 -2 18 -10 24 -35 26 -18 2 -33 -1 -33 -6z"/>
<path d="M1219 1260 c-11 -7 -9 -14 11 -36 19 -20 21 -26 8 -21 -10 4 -18 2
-18 -4 0 -18 32 -73 59 -103 l26 -28 -83 4 c-57 3 -81 1 -79 -6 2 -7 40 -12
94 -14 l91 -3 0 28 c0 15 -5 35 -12 43 -10 13 -9 13 7 1 14 -11 20 -11 33 -1
23 20 14 64 -13 68 -28 4 -29 -4 -5 -32 l17 -21 -24 20 c-13 11 -41 41 -61 67
-26 33 -41 44 -51 38z"/>
<path d="M1478 1133 c-14 -15 -28 -39 -30 -53 -3 -25 -3 -25 88 -28 l91 -3 0
45 c1 49 6 45 -87 61 -30 5 -39 2 -62 -22z"/>
<path d="M1360 1100 c-24 -24 -25 -43 -4 -64 30 -31 74 -13 74 30 0 23 -24 54
-41 54 -5 0 -18 -9 -29 -20z"/>
<path d="M1598 1033 c7 -3 16 -2 19 1 4 3 -2 6 -13 5 -11 0 -14 -3 -6 -6z"/>
<path d="M1273 961 c-66 -73 -71 -81 -50 -81 14 0 127 123 127 139 0 22 -16 9
-77 -58z"/>
<path d="M1432 1016 c5 -23 120 -138 129 -129 7 8 -112 143 -126 143 -3 0 -5
-6 -3 -14z"/>
<path d="M1378 910 c-2 -75 0 -100 10 -100 9 0 12 27 12 100 0 55 -4 100 -9
100 -5 0 -11 -45 -13 -100z"/>
<path d="M3453 1320 c-13 -5 -23 -13 -23 -19 0 -5 -10 -12 -22 -16 -16 -4 -19
-8 -9 -12 11 -5 11 -7 0 -14 -10 -6 -2 -9 22 -9 19 0 41 -6 49 -12 12 -11 12
-10 1 5 -12 15 -11 17 8 17 17 0 21 6 21 35 0 37 -8 41 -47 25z"/>
<path d="M3519 1323 c-1 -5 -1 -41 0 -80 2 -73 2 -73 -25 -73 -23 0 -25 -2
-14 -17 7 -10 -15 10 -50 45 -44 45 -66 60 -74 52 -7 -7 -4 -14 10 -25 12 -7
33 -31 49 -52 15 -21 22 -33 15 -26 -9 8 -29 10 -59 6 -72 -9 -80 -16 -78 -70
2 -43 4 -48 27 -50 l25 -2 -25 8 c-18 6 2 9 67 10 91 1 92 1 89 25 -1 14 -9
33 -17 43 -12 16 -11 16 8 -1 20 -17 23 -17 29 -2 4 10 18 16 38 16 18 0 38 6
46 13 12 10 12 9 1 -6 -8 -9 -11 -21 -7 -25 4 -4 38 25 75 65 44 46 64 76 58
82 -6 6 -29 -11 -64 -47 -31 -31 -49 -48 -42 -38 13 18 12 19 -24 12 l-39 -7
7 75 c6 66 5 76 -9 76 -9 0 -17 -3 -17 -7z"/>
<path d="M3560 1295 c0 -14 4 -25 9 -25 5 0 17 -3 27 -7 11 -4 15 -3 10 5 -4
7 6 12 26 15 30 4 31 5 11 12 -13 4 -20 11 -17 16 3 5 -11 9 -30 9 -32 0 -36
-3 -36 -25z"/>
<path d="M3643 1158 c-37 -38 -51 -61 -51 -80 l1 -28 93 0 c77 0 94 3 94 15 0
12 -13 14 -75 9 -41 -2 -75 -2 -75 1 0 3 9 16 21 28 19 20 59 89 59 102 0 15
-20 0 -67 -47z"/>
<path d="M3510 1100 c-13 -13 -19 -28 -15 -39 4 -14 -14 -38 -70 -91 -57 -56
-72 -76 -64 -86 8 -10 26 5 77 66 53 62 71 77 88 73 26 -6 56 23 52 50 -2 11
-13 26 -25 34 -19 13 -24 12 -43 -7z"/>
<path d="M3570 1020 c0 -6 29 -42 64 -79 43 -46 68 -65 75 -58 6 6 -12 32 -57
78 -64 67 -82 80 -82 59z"/>
<path d="M3527 1004 c-4 -4 -7 -49 -7 -101 0 -70 3 -93 13 -93 10 0 12 21 9
93 -4 105 -5 111 -15 101z"/>
<path d="M1497 2924 c-16 -13 -33 -21 -39 -18 -7 4 -8 2 -4 -4 4 -7 2 -12 -3
-12 -6 0 -11 -7 -11 -15 0 -24 22 -17 65 20 26 22 36 37 30 44 -7 6 -20 1 -38
-15z"/>
<path d="M3393 2943 c-21 -8 -15 -18 31 -51 51 -37 62 -39 62 -13 0 11 -3 18
-7 15 -6 -3 -56 30 -69 47 -3 3 -11 4 -17 2z"/>
<path d="M1560 2841 c0 -9 34 -21 60 -21 9 1 5 7 -10 15 -29 16 -50 19 -50 6z"/>
<path d="M1075 2640 c-21 -22 -35 -43 -32 -47 10 -10 38 -13 32 -4 -2 4 11 23
30 41 19 19 35 38 35 42 0 19 -29 5 -65 -32z"/>
<path d="M3790 2667 c0 -16 62 -77 78 -77 21 0 13 15 -26 53 -40 39 -52 45
-52 24z"/>
<path d="M1170 2586 c0 -2 14 -6 30 -8 17 -3 30 -1 30 4 0 4 -13 8 -30 8 -16
0 -30 -2 -30 -4z"/>
<path d="M3703 2583 c9 -2 25 -2 35 0 9 3 1 5 -18 5 -19 0 -27 -2 -17 -5z"/>
<path d="M832 2191 c-24 -32 -39 -81 -25 -81 12 0 73 81 73 97 0 23 -25 14
-48 -16z"/>
<path d="M2515 2010 c-3 -5 -1 -10 4 -10 6 0 11 5 11 10 0 6 -2 10 -4 10 -3 0
-8 -4 -11 -10z"/>
<path d="M1234 1826 c-8 -21 67 -147 105 -178 16 -13 52 -65 81 -116 29 -51
57 -95 63 -99 6 -4 1 9 -10 28 -58 96 -103 183 -103 199 0 22 -99 172 -117
178 -7 2 -16 -3 -19 -12z"/>
<path d="M3604 1755 c-30 -46 -54 -90 -52 -97 1 -7 -11 -35 -27 -63 -83 -144
-95 -168 -91 -172 4 -4 49 69 102 165 16 29 37 55 46 58 22 7 108 144 108 172
0 44 -31 21 -86 -63z"/>
<path d="M2400 1631 c0 -6 10 -11 23 -12 l22 0 -22 -16 c-29 -20 -29 -43 -1
-43 l22 0 -22 -16 c-27 -19 -28 -34 -2 -34 26 0 26 -16 -1 -23 -12 -3 -18 -10
-14 -17 5 -8 11 -8 21 1 11 9 14 8 14 -4 0 -9 -8 -18 -17 -20 -10 -3 3 -5 30
-6 43 -1 60 10 38 23 -12 8 11 56 27 56 6 0 12 4 12 9 0 5 -9 7 -19 4 -16 -4
-19 -1 -14 16 3 12 12 21 19 21 23 0 16 18 -8 22 l-23 3 22 20 22 21 -65 2
c-40 2 -64 -1 -64 -7z m63 -98 c-7 -2 -19 -2 -25 0 -7 3 -2 5 12 5 14 0 19 -2
13 -5z"/>
<path d="M1820 1515 c0 -10 7 -15 18 -13 21 4 19 22 -2 26 -10 2 -16 -3 -16
-13z"/>
<path d="M2280 1490 c0 -13 20 -13 40 0 12 8 9 10 -12 10 -16 0 -28 -4 -28
-10z"/>
<path d="M2605 1490 c3 -5 13 -10 21 -10 8 0 14 5 14 10 0 6 -9 10 -21 10 -11
0 -17 -4 -14 -10z"/>
<path d="M2650 1473 c0 -16 -2 -53 -5 -83 -4 -50 -3 -51 5 -15 19 90 23 125
11 125 -6 0 -11 -12 -11 -27z"/>
<path d="M3094 1464 c-10 -17 -22 -31 -25 -30 -8 1 -376 -262 -384 -274 -3 -6
-3 -10 0 -10 9 0 353 249 360 261 12 19 25 8 25 -21 0 -25 4 -30 25 -30 25 0
30 10 26 53 -1 9 3 17 8 17 6 0 11 -16 11 -35 0 -19 5 -35 11 -35 8 0 10 13 5
38 -3 20 -6 49 -6 65 0 15 -4 27 -9 27 -4 0 -6 -12 -3 -27 5 -33 -14 -21 -20
12 -4 18 -6 16 -24 -11z"/>
<path d="M2590 1415 c-24 -25 -40 -45 -34 -45 13 0 89 78 83 85 -3 2 -25 -16
-49 -40z"/>
<path d="M1750 1437 c27 -28 64 -30 91 -7 l24 21 -25 -7 c-32 -10 -49 -10 -80
0 -22 7 -23 7 -10 -7z"/>
<path d="M2346 1386 c32 -35 67 -64 76 -65 9 0 18 -5 20 -10 5 -16 53 -17 53
-2 0 8 9 17 20 22 13 5 -2 8 -44 8 l-64 1 -50 55 c-27 30 -54 55 -60 55 -6 0
16 -29 49 -64z"/>
<path d="M2270 1418 c0 -27 30 -232 35 -237 8 -8 6 24 -11 136 -15 99 -24 139
-24 101z"/>
<path d="M2420 1404 l-24 -25 22 -6 c12 -3 22 -10 22 -15 0 -5 12 -8 27 -6 24
3 28 7 28 38 0 30 -3 35 -25 37 -15 1 -35 -8 -50 -23z"/>
<path d="M1874 1411 c3 -4 29 -25 59 -45 l53 -37 -8 -85 c-5 -47 -16 -100 -24
-116 -12 -23 -13 -29 -2 -26 25 8 41 61 42 140 1 43 2 78 3 78 1 0 55 -38 119
-85 64 -47 121 -85 127 -85 16 0 9 6 -184 144 -166 118 -198 139 -185 117z"/>
<path d="M1790 1376 c0 -17 5 -26 16 -26 10 0 14 7 12 22 -5 32 -28 35 -28 4z"/>
<path d="M1600 1365 c0 -2 10 -15 23 -28 40 -42 67 -77 67 -87 0 -6 12 -11 28
-11 23 -2 24 -2 4 -6 -19 -4 -20 -6 -8 -19 20 -19 60 -19 52 1 -3 8 -2 15 3
15 5 0 11 -21 14 -46 7 -62 27 -82 27 -27 0 34 3 41 18 38 9 -2 21 -4 25 -4 5
-1 6 -4 3 -9 -2 -4 14 -6 36 -4 26 3 38 1 34 -6 -4 -6 2 -8 13 -5 15 4 21 17
26 58 11 82 7 90 -43 90 -23 0 -42 3 -42 7 0 13 -20 9 -20 -4 0 -7 -9 -24 -20
-38 -26 -33 -25 -40 8 -41 27 -2 27 -2 2 -6 -14 -3 -28 -10 -32 -17 -5 -6 -8
-2 -8 12 0 19 -4 22 -27 16 -21 -4 -24 -3 -13 5 12 8 12 12 -2 28 -9 10 -19
30 -23 44 -7 27 -9 28 -90 32 -19 1 -35 5 -35 10 0 4 -4 7 -10 7 -5 0 -10 -2
-10 -5z m133 -112 c-7 -2 -19 -2 -25 0 -7 3 -2 5 12 5 14 0 19 -2 13 -5z m200
-30 c-7 -2 -21 -2 -30 0 -10 3 -4 5 12 5 17 0 24 -2 18 -5z m-70 -10 c-7 -2
-19 -2 -25 0 -7 3 -2 5 12 5 14 0 19 -2 13 -5z"/>
<path d="M3272 1363 c-18 -2 -30 -8 -27 -14 3 -5 -1 -6 -9 -3 -9 3 -16 1 -16
-5 0 -7 -6 -11 -12 -10 -31 4 -58 -2 -71 -16 -13 -13 -16 -13 -21 0 -3 8 -11
15 -18 15 -9 0 -8 -3 2 -10 8 -5 11 -10 5 -11 -24 -3 -61 4 -72 13 -10 8 -13
5 -13 -8 0 -16 -2 -17 -11 -4 -8 12 -12 12 -16 2 -4 -10 -8 -10 -19 -1 -12 10
-14 1 -13 -60 1 -58 5 -74 20 -81 23 -13 32 -13 23 1 -5 8 4 10 29 7 20 -2 33
0 31 4 -3 4 1 8 10 8 8 0 22 3 31 7 15 5 16 1 10 -35 -4 -25 -3 -42 3 -42 11
0 22 33 22 69 0 20 4 22 25 17 17 -4 31 -1 40 8 13 13 12 15 -7 19 -22 4 -22
4 2 6 17 2 37 18 63 51 20 27 37 54 37 60 0 6 5 8 10 5 6 -3 10 -1 10 4 0 6
-3 10 -7 9 -5 0 -23 -3 -41 -5z m-160 -128 c5 -23 3 -25 -31 -24 -30 2 -32 3
-8 6 19 3 27 10 27 24 0 27 7 24 12 -6z m44 2 c1 -9 -2 -17 -7 -17 -5 0 -9 2
-9 4 0 2 -3 12 -7 22 -4 11 -2 15 7 12 7 -2 14 -12 16 -21z m57 16 c-7 -2 -19
-2 -25 0 -7 3 -2 5 12 5 14 0 19 -2 13 -5z m-130 -20 c-7 -2 -19 -2 -25 0 -7
3 -2 5 12 5 14 0 19 -2 13 -5z m-60 -10 c-7 -2 -21 -2 -30 0 -10 3 -4 5 12 5
17 0 24 -2 18 -5z"/>
<path d="M2632 1300 c0 -19 2 -27 5 -17 2 9 2 25 0 35 -3 9 -5 1 -5 -18z"/>
<path d="M2938 1314 c-20 -19 -2 -184 21 -207 17 -17 24 -1 10 25 -7 12 -15
60 -18 106 -3 46 -9 80 -13 76z"/>
<path d="M1810 1290 c0 -11 5 -20 10 -20 6 0 10 9 10 20 0 11 -4 20 -10 20 -5
0 -10 -9 -10 -20z"/>
<path d="M2400 1281 c0 -6 9 -11 20 -11 11 0 20 -4 20 -10 0 -5 12 -10 26 -10
19 0 25 5 22 18 -2 12 -15 18 -46 20 -25 2 -42 -1 -42 -7z"/>
<path d="M2622 1230 c0 -19 2 -27 5 -17 2 9 2 25 0 35 -3 9 -5 1 -5 -18z"/>
<path d="M2418 1233 c12 -2 22 -9 22 -14 0 -5 11 -9 25 -9 16 0 25 6 25 15 0
11 -11 15 -47 14 -27 -1 -38 -4 -25 -6z"/>
<path d="M2010 1221 c0 -13 37 -24 51 -15 8 4 7 9 -2 15 -19 12 -49 11 -49 0z"/>
<path d="M2862 1221 c-11 -7 -11 -9 1 -14 19 -7 57 2 57 14 0 11 -41 11 -58 0z"/>
<path d="M2450 1170 c0 -5 5 -10 11 -10 5 0 7 5 4 10 -3 6 -8 10 -11 10 -2 0
-4 -4 -4 -10z"/>
<path d="M2380 1135 c-8 -2 -33 -7 -55 -10 -35 -6 -37 -8 -20 -18 24 -13 243
-16 300 -3 36 7 38 9 17 17 -24 9 -217 20 -242 14z"/>
<path d="M1730 1069 c0 -28 5 -60 11 -71 9 -16 8 -19 -2 -13 -9 6 -10 3 -5
-11 5 -10 10 -30 11 -43 2 -13 9 -29 15 -35 10 -8 10 -6 1 12 -6 12 -10 22 -7
22 2 0 25 -36 51 -80 26 -44 49 -80 52 -80 3 0 -7 21 -22 47 -24 40 -25 45 -9
39 22 -9 156 -56 160 -56 1 0 5 10 8 23 3 12 3 -10 1 -50 -4 -77 -17 -113 -40
-113 -23 0 -29 -22 -10 -37 26 -18 119 -17 135 2 14 17 4 39 -15 31 -18 -7
-26 17 -32 104 -5 70 -4 74 11 55 13 -17 17 -18 26 -5 7 11 10 12 10 2 0 -8
-9 -16 -20 -19 -21 -6 -27 -28 -10 -38 5 -3 18 -2 27 4 17 9 36 4 173 -38 14
-4 35 -4 45 1 17 7 16 8 -5 4 -24 -5 -24 -4 -6 9 11 8 15 15 9 15 -6 0 -9 11
-8 25 2 14 0 25 -3 25 -4 0 -8 20 -10 44 -1 25 -6 55 -11 68 -8 18 -10 8 -10
-43 l-1 -67 -70 22 -70 21 0 103 c0 89 -3 105 -20 122 -22 22 -36 25 -45 10
-12 -19 -25 -10 -27 18 -1 15 -5 -29 -8 -98 l-5 -125 -120 123 c-66 67 -128
122 -137 122 -15 0 -18 -9 -18 -51z m348 -21 c8 -8 12 -47 12 -111 0 -89 -1
-97 -16 -83 -8 9 -21 16 -28 16 -15 0 -30 127 -19 157 12 32 32 40 51 21z"/>
<path d="M2410 1040 c0 -11 5 -20 10 -20 6 0 10 9 10 20 0 11 -4 20 -10 20 -5
0 -10 -9 -10 -20z"/>
<path d="M2580 1045 c0 -8 5 -15 10 -15 6 0 10 7 10 15 0 8 -4 15 -10 15 -5 0
-10 -7 -10 -15z"/>
<path d="M2275 1010 c-4 -6 -2 -17 4 -24 6 -7 7 -16 3 -20 -4 -4 10 -5 31 -1
46 9 49 -1 5 -15 l-33 -10 33 3 c39 4 44 -10 5 -15 -19 -2 -27 -8 -24 -18 2
-8 4 -21 4 -27 0 -7 9 -13 21 -13 20 0 20 0 0 -15 -18 -13 -18 -14 6 -9 l25 5
-25 -15 c-22 -14 -23 -15 -5 -16 17 0 18 -2 5 -11 -13 -8 -12 -10 4 -7 15 2
25 23 44 96 14 51 22 96 18 99 -4 4 -32 7 -62 7 -34 -1 -51 2 -42 7 9 6 9 9 1
9 -6 0 -15 -5 -18 -10z m68 -97 c-7 -2 -21 -2 -30 0 -10 3 -4 5 12 5 17 0 24
-2 18 -5z m4 -19 c-3 -3 -12 -4 -19 -1 -8 3 -5 6 6 6 11 1 17 -2 13 -5z"/>
<path d="M2626 1009 c3 -5 1 -9 -4 -9 -15 0 -2 -38 15 -45 9 -3 18 -3 21 0 3
3 0 5 -6 5 -7 0 -12 5 -12 11 0 5 4 8 9 4 6 -3 9 3 8 14 0 11 -9 22 -19 24
-10 3 -16 1 -12 -4z"/>
<path d="M2546 998 c-10 -6 -38 -8 -62 -4 -50 6 -50 6 -31 -69 12 -44 17 -50
38 -48 14 1 17 0 7 -3 -26 -8 -22 -24 6 -24 20 0 36 16 36 36 0 2 -15 8 -32
13 l-33 10 39 -2 c39 -2 39 -2 52 46 13 51 9 61 -20 45z m-18 -55 c-10 -2 -26
-2 -35 0 -10 3 -2 5 17 5 19 0 27 -2 18 -5z m0 -20 c-10 -2 -26 -2 -35 0 -10
3 -2 5 17 5 19 0 27 -2 18 -5z"/>
<path d="M2586 930 c-20 -75 -53 -236 -49 -242 2 -5 16 -8 31 -8 22 0 24 2 12
11 -11 8 -5 9 24 5 36 -5 37 -4 20 10 -18 14 -18 15 3 9 16 -4 21 -2 19 10 -1
9 -9 21 -17 26 -10 6 -10 9 -1 9 19 0 14 20 -5 21 -15 0 -15 2 2 9 17 7 18 9
2 9 -12 1 -16 8 -14 24 2 12 -2 47 -8 77 -10 47 -13 51 -19 30z m51 -196 c-3
-3 -12 -4 -19 -1 -8 3 -5 6 6 6 11 1 17 -2 13 -5z"/>
<path d="M2640 930 c8 -5 20 -10 25 -10 6 0 3 5 -5 10 -8 5 -19 10 -25 10 -5
0 -3 -5 5 -10z"/>
<path d="M2383 808 c-17 -68 -30 -124 -29 -125 0 -1 29 1 62 4 50 4 61 9 58
22 -13 68 -48 207 -54 214 -4 4 -21 -48 -37 -115z"/>
<path d="M2637 909 c7 -7 15 -10 18 -7 3 3 -2 9 -12 12 -14 6 -15 5 -6 -5z"/>
<path d="M1710 819 c0 -10 5 -18 12 -16 6 1 13 -6 16 -15 2 -12 -10 -23 -37
-38 -47 -23 -54 -55 -21 -85 42 -38 150 6 150 61 0 52 -31 87 -92 105 -24 6
-28 5 -28 -12z"/>
<path d="M2493 833 c9 -2 23 -2 30 0 6 3 -1 5 -18 5 -16 0 -22 -2 -12 -5z"/>
<path d="M3176 830 c-50 -15 -76 -48 -76 -97 0 -38 4 -46 33 -63 46 -29 91
-26 116 6 31 39 26 53 -24 74 -48 21 -58 39 -25 47 11 3 20 14 20 24 0 21 -2
21 -44 9z"/>
<path d="M2498 813 c6 -2 18 -2 25 0 6 3 1 5 -13 5 -14 0 -19 -2 -12 -5z"/>
<path d="M962 788 c-7 -7 -12 -27 -12 -45 0 -26 6 -36 25 -45 32 -14 75 12 75
46 0 43 -59 73 -88 44z"/>
<path d="M1092 788 c-28 -28 -4 -98 34 -98 20 0 54 37 54 58 0 40 -61 67 -88
40z"/>
<path d="M2497 780 c3 -11 7 -20 8 -20 1 0 5 9 8 20 3 12 0 20 -8 20 -8 0 -11
-8 -8 -20z"/>
<path d="M3755 776 c-30 -46 17 -102 64 -77 28 16 35 48 17 76 -21 32 -60 33
-81 1z"/>
<path d="M3892 788 c-21 -21 -15 -76 9 -89 27 -14 65 1 74 31 15 47 -49 92
-83 58z"/>
<path d="M2330 779 c0 -5 5 -7 10 -4 6 3 10 8 10 11 0 2 -4 4 -10 4 -5 0 -10
-5 -10 -11z"/>
<path d="M1870 740 c6 -11 13 -20 16 -20 2 0 0 9 -6 20 -6 11 -13 20 -16 20
-2 0 0 -9 6 -20z"/>
<path d="M902 678 c-13 -13 -16 -57 -4 -75 17 -27 70 -19 83 13 19 51 -42 99
-79 62z"/>
<path d="M1025 670 c-27 -29 -10 -74 28 -78 36 -4 57 13 57 47 0 51 -50 69
-85 31z"/>
<path d="M1154 665 c-30 -47 10 -94 64 -74 30 11 39 54 17 79 -25 28 -61 25
-81 -5z"/>
<path d="M1582 674 c-24 -17 -30 -62 -10 -82 19 -19 66 -15 78 7 15 29 12 49
-10 71 -24 24 -29 24 -58 4z"/>
<path d="M3292 674 c-24 -17 -30 -62 -10 -82 19 -19 66 -15 78 8 14 25 3 68
-20 80 -24 13 -22 13 -48 -6z"/>
<path d="M3692 678 c-19 -19 -14 -65 9 -81 44 -31 94 17 71 68 -13 27 -58 35
-80 13z"/>
<path d="M3823 678 c-33 -43 -11 -91 39 -86 40 4 55 28 42 65 -7 21 -17 29
-40 31 -17 2 -35 -3 -41 -10z"/>
<path d="M3952 678 c-7 -7 -12 -24 -12 -38 0 -34 17 -50 52 -50 37 0 57 38 40
75 -13 27 -58 35 -80 13z"/>
<path d="M1377 652 c-24 -26 -21 -59 7 -77 47 -31 93 22 62 70 -19 30 -47 32
-69 7z"/>
<path d="M2650 661 c0 -6 5 -13 10 -16 6 -3 10 1 10 9 0 9 -4 16 -10 16 -5 0
-10 -4 -10 -9z"/>
<path d="M3477 652 c-24 -27 -21 -59 8 -78 31 -20 63 -10 76 23 21 55 -46 98
-84 55z"/>
<path d="M2320 640 c0 -19 3 -21 12 -12 9 9 9 15 0 24 -9 9 -12 7 -12 -12z"/>
<path d="M2502 630 c0 -14 2 -19 5 -12 2 6 2 18 0 25 -3 6 -5 1 -5 -13z"/>
<path d="M660 630 c-11 -8 -7 -9 15 -4 37 8 45 14 19 14 -10 0 -26 -5 -34 -10z"/>
<path d="M4240 636 c0 -2 9 -6 20 -9 11 -3 18 -1 14 4 -5 9 -34 13 -34 5z"/>
<path d="M627 590 c6 -22 21 -35 29 -27 7 7 -15 47 -25 47 -5 0 -7 -9 -4 -20z"/>
<path d="M4297 603 c-4 -3 -7 -16 -7 -27 1 -21 1 -21 15 -2 8 11 15 23 15 28
0 10 -14 11 -23 1z"/>
<path d="M840 570 c-38 -38 -20 -90 30 -90 14 0 31 5 38 12 20 20 14 65 -10
82 -29 20 -34 20 -58 -4z"/>
<path d="M970 570 c-11 -11 -20 -29 -20 -39 0 -41 59 -68 88 -39 20 20 14 65
-10 82 -29 20 -34 20 -58 -4z"/>
<path d="M1100 570 c-22 -22 -25 -42 -10 -71 12 -22 59 -26 78 -7 20 20 14 65
-10 82 -29 20 -34 20 -58 -4z"/>
<path d="M1235 576 c-22 -16 -25 -74 -4 -87 20 -12 53 -11 67 3 20 20 14 65
-10 82 -27 19 -29 19 -53 2z"/>
<path d="M3630 570 c-22 -22 -25 -42 -10 -71 12 -22 59 -26 78 -7 20 20 14 65
-10 82 -29 20 -34 20 -58 -4z"/>
<path d="M3762 574 c-24 -17 -30 -62 -10 -82 19 -19 65 -14 81 9 18 25 11 55
-16 74 -26 19 -28 19 -55 -1z"/>
<path d="M3890 570 c-22 -22 -25 -42 -10 -71 12 -22 59 -26 78 -7 20 20 14 65
-10 82 -29 20 -34 20 -58 -4z"/>
<path d="M4020 570 c-11 -11 -20 -29 -20 -39 0 -41 59 -68 88 -39 20 20 14 65
-10 82 -29 20 -34 20 -58 -4z"/>
<path d="M1702 558 c-17 -17 -15 -64 4 -83 23 -22 56 -15 73 16 13 24 13 29
-2 53 -19 28 -54 35 -75 14z"/>
<path d="M3144 545 c-33 -50 20 -104 71 -71 30 20 33 56 7 79 -27 24 -59 21
-78 -8z"/>
<path d="M455 470 c-3 -5 -1 -10 4 -10 6 0 11 5 11 10 0 6 -2 10 -4 10 -3 0
-8 -4 -11 -10z"/>
<path d="M1410 454 c-91 -15 -176 -23 -260 -24 -150 0 -269 -14 -341 -39 -30
-10 -140 -60 -246 -110 -148 -71 -211 -97 -280 -111 -82 -17 -86 -19 -60 -29
40 -16 131 -14 174 4 42 18 46 18 38 5 -7 -12 -51 -32 -145 -66 l-65 -23 71
-1 c73 0 179 24 169 40 -3 4 5 6 17 2 14 -3 19 -1 14 6 -5 8 -2 10 8 6 9 -3
16 -1 16 6 0 6 5 8 10 5 6 -3 10 -1 10 5 0 7 6 10 14 7 8 -3 16 -2 18 2 3 8
171 75 278 111 47 16 108 24 220 31 360 21 340 19 350 42 5 12 14 41 20 65 7
25 17 42 25 42 8 0 15 5 15 11 0 8 23 10 70 7 53 -3 67 -1 57 8 -23 22 -62 21
-197 -2z m-403 -50 c-3 -3 -12 -4 -19 -1 -8 3 -5 6 6 6 11 1 17 -2 13 -5z
m410 0 c-3 -3 -12 -4 -19 -1 -8 3 -5 6 6 6 11 1 17 -2 13 -5z"/>
<path d="M3341 471 c-50 -13 -31 -26 34 -23 41 2 71 -1 80 -8 8 -7 22 -36 32
-66 9 -31 23 -54 30 -54 8 0 11 -4 8 -10 -3 -5 2 -10 12 -10 10 -1 122 -7 248
-14 229 -14 230 -14 344 -55 62 -23 146 -57 185 -75 172 -82 286 -112 356 -96
21 5 18 7 -21 19 -61 18 -173 70 -167 77 3 3 23 -2 43 -10 44 -19 141 -21 182
-5 26 11 24 12 -46 25 -81 14 -144 35 -206 70 -80 44 -332 153 -390 169 -39
11 -132 20 -265 25 -113 5 -245 16 -295 24 -135 23 -138 24 -164 17z m196 -67
c-3 -3 -12 -4 -19 -1 -8 3 -5 6 6 6 11 1 17 -2 13 -5z m416 -1 c-7 -2 -19 -2
-25 0 -7 3 -2 5 12 5 14 0 19 -2 13 -5z"/>
<path d="M1476 421 c-7 -10 33 -27 84 -36 19 -4 43 -9 53 -11 13 -4 17 1 17
25 l0 31 -74 0 c-41 0 -77 -4 -80 -9z"/>
<path d="M3290 413 c1 -46 8 -46 133 -12 58 16 34 29 -54 29 -69 0 -79 -2 -79
-17z"/>
<path d="M1451 370 c-5 -16 -8 -30 -5 -30 3 0 0 -8 -5 -18 -6 -11 -12 -31 -15
-46 -4 -21 1 -29 22 -40 57 -28 197 -53 532 -93 111 -13 224 -17 480 -17 347
0 463 8 765 54 161 25 199 34 242 57 28 15 32 22 29 48 -7 51 -33 110 -47 108
-8 -1 -79 -15 -159 -32 -80 -16 -199 -35 -264 -41 -383 -38 -1076 -25 -1316
25 -36 7 -91 18 -123 25 -32 6 -61 9 -64 6 -3 -3 -12 1 -20 9 -22 23 -40 18
-52 -15z m137 -82 c-3 -49 -1 -53 20 -56 12 -2 22 -8 22 -14 0 -5 -7 -7 -16
-4 -9 3 -22 6 -30 6 -15 0 -18 36 -8 89 10 48 16 37 12 -21z m1792 42 c-8 -5
-23 -10 -32 -10 -10 0 -18 -7 -18 -15 0 -10 11 -15 33 -16 l32 -1 -28 -10
c-42 -15 -32 -44 13 -40 27 2 31 0 20 -7 -8 -6 -27 -11 -42 -11 -24 0 -28 5
-33 38 -4 20 -9 45 -11 54 -5 17 11 25 56 27 20 0 22 -1 10 -9z m-1706 -25
c-4 -8 -8 -15 -10 -15 -2 0 -4 7 -4 15 0 8 4 15 10 15 5 0 7 -7 4 -15z m33
-26 c-7 -51 0 -69 23 -69 20 0 30 19 30 60 0 16 5 32 12 36 18 11 1 -89 -18
-103 -10 -7 -24 -9 -37 -4 -17 6 -23 18 -25 51 -3 43 2 70 14 70 4 0 4 -19 1
-41z m1581 23 c3 -11 1 -11 -17 -1 -15 10 -23 11 -32 2 -17 -17 -14 -62 5 -81
16 -16 19 -15 37 7 12 14 19 18 19 9 0 -18 -20 -38 -39 -38 -41 0 -64 57 -40
101 12 23 59 23 67 1z m-1441 -50 l17 -37 4 30 c5 39 22 57 22 23 0 -37 -11
-88 -20 -88 -4 0 -15 18 -25 40 -22 49 -35 51 -35 5 0 -19 -4 -35 -9 -35 -8 0
-5 67 5 98 6 20 22 5 41 -36z m1339 13 c1 -16 4 -38 9 -47 4 -11 3 -18 -4 -18
-6 0 -11 6 -11 14 0 20 -16 29 -41 21 -14 -5 -18 -12 -14 -26 4 -11 2 -19 -4
-19 -6 0 -11 8 -11 18 0 9 -3 34 -7 55 l-6 38 44 -3 c41 -3 44 -5 45 -33z
m-1265 -50 l-9 -40 -1 51 c-1 28 2 54 7 58 11 12 14 -25 3 -69z m109 55 c37
-37 19 -100 -29 -100 -54 0 -74 67 -31 102 28 23 35 23 60 -2z m1046 -6 c32
-48 -10 -103 -63 -83 -28 10 -40 53 -23 85 19 34 64 33 86 -2z m-944 -64 c4 0
8 17 8 37 0 25 3 34 10 27 12 -12 2 -104 -11 -104 -5 0 -19 19 -31 43 l-23 42
-3 -43 c-2 -23 -7 -40 -12 -37 -4 3 -6 24 -3 48 8 71 13 76 36 30 12 -24 25
-43 29 -43z m806 73 c-20 -3 -28 -10 -28 -24 0 -14 7 -19 28 -20 27 -1 27 -1
2 -8 -14 -4 -27 -17 -31 -31 -4 -18 -7 -11 -10 28 -2 30 -2 56 0 58 2 2 18 3
35 3 30 -2 30 -2 4 -6z m-618 -13 c0 -5 -13 -10 -30 -10 -20 0 -30 -5 -30 -15
0 -9 9 -15 25 -15 14 0 25 -4 25 -10 0 -5 -11 -10 -24 -10 -19 0 -26 -6 -29
-27 -2 -16 -5 0 -6 35 l-1 62 35 0 c19 0 35 -4 35 -10z m470 -36 c23 -52 26
-77 6 -51 -16 21 -45 22 -52 2 -4 -8 -10 -15 -14 -15 -8 0 12 80 25 100 10 17
15 12 35 -36z m-385 -15 c9 -28 14 -53 11 -56 -3 -3 -8 2 -12 11 -8 20 -54 22
-54 1 0 -8 -4 -15 -10 -15 -8 0 -1 25 25 98 9 25 24 11 40 -39z m55 -4 c0 -30
-4 -55 -10 -55 -5 0 -10 25 -10 55 0 30 5 55 10 55 6 0 10 -25 10 -55z m85 46
c-15 -6 -22 -20 -26 -57 l-6 -49 -1 52 c-2 40 -6 53 -19 56 -10 3 2 5 27 5 31
0 39 -2 25 -7z m115 -36 c0 -41 2 -45 25 -45 14 0 25 -5 25 -11 0 -6 -14 -9
-32 -7 -32 3 -33 4 -36 56 -2 31 1 52 7 52 6 0 11 -20 11 -45z"/>
<path d="M3125 280 c-4 -7 -3 -16 3 -22 14 -14 45 -2 40 15 -6 16 -34 21 -43
7z"/>
<path d="M1971 248 c-10 -29 -3 -55 17 -63 31 -12 55 48 30 73 -18 18 -38 14
-47 -10z"/>
<path d="M3015 264 c-18 -18 -19 -28 -5 -55 14 -25 36 -24 50 1 22 41 -14 84
-45 54z"/>
<path d="M2757 226 c-3 -8 -2 -18 4 -22 16 -9 22 2 11 21 -8 15 -10 16 -15 1z"/>
<path d="M2370 216 c0 -9 5 -16 10 -16 6 0 10 4 10 9 0 6 -4 13 -10 16 -5 3
-10 -1 -10 -9z"/>
</g>
</svg>
