<svg height="14" width="14" viewBox="0 0 1000 1000" enable-background="new 0 0 1000 1000" xmlns="http://www.w3.org/2000/svg">

<rect x="0" y="0" width="1000" height="1000" fill="#ff8877" fill-opacity="0.9"/>
<path fill="#ffffff" d="M608 443.5l-225 -382q47 -8 81 -8 177 0 304 120zm-33 168l233 -395q103 125 103 283 0 53 -16 112l-320 0zm-96 -280l-427 0q37 -91 109 -158t167 -97zm-24 335l423 0q-37 90 -108.5 156.5t-164.5 98.5zm-99 -278l-234 396q-104 -126 -104 -285 0 -52 16 -111l322 0zm-33 165l227 384q-48 9 -86 9 -172 0 -302 -120z"/>
</svg>