<!-- DubYellow -->
<svg viewBox="0 0 12 12" width="48" height="48" xmlns="http://www.w3.org/2000/svg" xmlns:xlink="http://www.w3.org/1999/xlink">
 <style>
    /* <![CDATA[ */
    line {
      fill: none;
      stroke: #000;
      stroke-width: 1;
    }
    #p2 { stroke-width: 12 }

    #w rect.box { fill : #ff8; mask:url(#wmask); }
    #p rect.box { fill : #f88; mask:url(#pmask); }
    #s rect.box { fill : #8f8; mask:url(#smask); }
    #n rect.box { fill : #88f; mask:url(#nmask); }
	svg g mask rect { fill : #fff; }
	
	@keyframes draw {
	  to {
		stroke-dashoffset: 0;
	  }
	}

	#w line,#p line#p1, #s line, #n line { 
		stroke-dasharray: 100px;
		stroke-dashoffset: 100px;
		animation-name: draw;
		animation-duration: 5s;
		animation-fill-mode: forwards;
		animation-iteration-count: 1;
		animation-timing-function: linear;
	}
    /* ]]> */
 </style>
 <svg id="w" x="0" y="0" width="12" height="12">
     <g>
      <rect class="box" id="wrect" x="0" y="0" width="12" height="12"/>
	  <mask id="wmask" x="0" y="0" width="12" height="12">
		  <rect x="0" y="0" width="12" height="12"/>
		  <line id="w1" x1="4" x2="4" y1="0" y2="4"/>
		  <line id="w2" x1="8" x2="8" y1="0" y2="4"/>
		  <line id="w3" x1="6" x2="6" y1="12" y2="9"/>
	  </mask>
     </g>
 </svg>
 <!--
 <svg id="p" x="0" y="12" width="12" height="12"> 
     <g>
      <rect class="box" x="0" y="0" width="12" height="12"/>
	  <mask id="pmask"  x="0" y="0" width="12" height="12">
	    <rect x="0" y="0" width="12" height="12"/>
		<line id="p1" x1="4" x2="8" y1="4" y2="4"/>
		<line id="p2" x1="10" x2="10" y1="7.5" y2="12"/>
	  </mask>
     </g>
 </svg>
    
 <svg id="s" x="0" y="24" width="12" height="12">   
     <g>
      <rect class="box" x="0" y="0" width="12" height="12"/>
	  <mask id="smask"  x="0" y="0" width="12" height="12">
	    <rect x="0" y="0" width="12" height="12"/>
		<line id="s1" x1="4" x2="12" y1="4" y2="4"/>
		<line id="s2" x1="0" x2="8" y1="8" y2="8"/>
	  </mask>
     </g>
 </svg>
 
 <svg id="n" x="0" y="36" width="12" height="12">
     <g>
      <rect class="box" x="0" y="0" width="12" height="12"/>
	  <mask id="nmask"  x="0" y="0" width="12" height="12">
	    <rect x="0" y="0" width="12" height="12"/>
		<line id="n1" x1="4" x2="4" y1="4" y2="12"/>
		<line id="n2" x1="8" x2="8" y1="0" y2="8"/>
	  </mask>
     </g>
 </svg>
 -->   
</svg>